<svg xmlns="http://www.w3.org/2000/svg" width="20" height="17" viewBox="0 0 20 17"><g><g><path fill="#231f20" d="M1.001 16.508a.999.999 0 0 1-.534-1.846l4.286-2.701c.809-.574 1.912-.65 2.906-.171 1.128.543 3.816.526 4.876-.032a2.799 2.799 0 0 1 2.813.11l4.207 2.808a1 1 0 0 1-1.11 1.664l-4.194-2.798a.778.778 0 0 0-.786-.013c-1.611.846-4.979.878-6.673.063-.331-.16-.676-.147-.928.03l-4.331 2.732a.997.997 0 0 1-.532.154z"/></g><g><path fill="#231f20" d="M4.949 5c0-2.757 2.243-5 5-5s5 2.243 5 5-2.243 5-5 5-5-2.243-5-5zm2 0c0 1.654 1.346 3 3 3s3-1.346 3-3-1.346-3-3-3-3 1.346-3 3z"/></g></g></svg>