<?xml version="1.0" encoding="UTF-8"?>
<!DOCTYPE svg PUBLIC "-//W3C//DTD SVG 1.1//EN" "http://www.w3.org/Graphics/SVG/1.1/DTD/svg11.dtd">
<!-- Creator: CorelDRAW -->
<svg xmlns="http://www.w3.org/2000/svg" xml:space="preserve" width="2048px" height="2048px" style="shape-rendering:geometricPrecision; text-rendering:geometricPrecision; image-rendering:optimizeQuality; fill-rule:evenodd; clip-rule:evenodd"
viewBox="0 0 2048 2048"
 xmlns:xlink="http://www.w3.org/1999/xlink">
 <defs>
  <style type="text/css">
   <![CDATA[
    .fil0 {fill:#464549}
    .fil1 {fill:#FFFAF0;fill-rule:nonzero}
   ]]>
  </style>
 </defs>
 <rect class="fil0" width="2048" height="2048"/>
 <g id="Layer_x0020_1">
  <metadata id="CorelCorpID_0Corel-Layer"/>
  <path class="fil1" d="M1646.7 547.167l-100.377 137.027 -192.728 263.098 -121.761 166.204 -7.91457 52.3725 50.7485 -20.1402c37.7268,-51.4748 191.355,-261.089 304.002,-414.838 53.6185,-73.1823 93.202,-127.175 111.863,-152.638 -4.18229,-3.54449 -10.2886,-8.47323 -17.2394,-13.9099 -9.12402,-7.13504 -18.7547,-13.5579 -26.5937,-17.1756zm-151.878 99.2765l112.104 -153.036 8.16851 -11.152 13.7067 -1.72323c2.40118,-0.301181 4.7941,-0.448819 7.17166,-0.448819 23.374,0 53.0221,15.5906 76.5709,34.0075 24.5799,19.2225 44.8158,44.6894 47.0504,61.7989l0.0177165 -0.00236221c0.297638,2.3315 0.444095,4.00985 0.444095,5.04331l0 10.1705 -6.2504 8.57953c-19.878,27.2858 -68.4839,93.6863 -123.636,168.959 -119.149,162.624 -284.175,387.785 -309.37,422.162l-5.3693 7.32402 -8.6315 3.42638 -111.05 44.0717 -51.6697 20.5051 8.29489 -54.8811 17.3717 -114.949 1.16221 -7.69725 4.7126 -6.42756c14.9126,-20.3469 65.1721,-88.9536 126.473,-172.634l192.728 -263.098zm201.584 -62.3351c0.0141732,0.175984 0.00236221,0.148819 -0.0437008,-0.219685l1.01457 7.9382 -0.970867 -7.71851z"/>
  <path class="fil1" d="M424 351.998l880.002 0c19.8343,0 37.8414,8.09174 50.8748,21.1252 13.0335,13.0335 21.1252,31.0406 21.1252,50.8748l0 330.623 -64.0016 87.3698 0 -417.992c0,-2.16614 -0.910631,-4.16103 -2.37402,-5.62441 -1.46339,-1.46339 -3.45827,-2.37402 -5.62441,-2.37402l-880.002 0c-2.16614,0 -4.16103,0.910631 -5.62441,2.37402 -1.46339,1.46339 -2.37402,3.45827 -2.37402,5.62441l0 1232c0,2.16614 0.910631,4.16103 2.37402,5.62441 1.46339,1.46339 3.45827,2.37402 5.62441,2.37402l714.566 0 173.434 -172.954 0 -255.182c13.5933,-7.95237 22.1079,-13.1965 22.2201,-13.2662l9.00001 -8.3752 32.7815 -44.7307 0 334.705 0 13.1504 -9.50079 9.47481 -192.337 191.804 -22.5 9.3756 -727.665 0c-19.8319,0 -37.8414,-8.09174 -50.8748,-21.1252 -13.0335,-13.0335 -21.1252,-31.0429 -21.1252,-50.8748l0 -1232c0,-19.8343 8.09174,-37.8414 21.1252,-50.8748 13.0335,-13.0335 31.0406,-21.1252 50.8748,-21.1252z"/>
  <polygon class="fil1" points="512,703.992 1184,703.992 1184,767.994 512,767.994 "/>
  <polygon class="fil1" points="512,895.996 1184,895.996 1184,959.997 512,959.997 "/>
  <polygon class="fil1" points="512,1088 1056,1088 1056,1152 512,1152 "/>
  <polygon class="fil1" points="512,1280 1056,1280 1056,1344 512,1344 "/>
 </g>
</svg>
