
<!DOCTYPE svg PUBLIC "-//W3C//DTD SVG 1.1//EN" "http://www.w3.org/Graphics/SVG/1.1/DTD/svg11.dtd">
<!-- Creator: CorelDRAW -->
<svg xmlns="http://www.w3.org/2000/svg" xml:space="preserve" width="2048px" height="2048px" style="shape-rendering:geometricPrecision; text-rendering:geometricPrecision; image-rendering:optimizeQuality; fill-rule:evenodd; clip-rule:evenodd" viewBox="0 0 2048 2048" xmlns:xlink="http://www.w3.org/1999/xlink">
 <defs>
  <style type="text/css">
   
    .fil1 {fill:white;fill-rule:nonzero}
   
  </style>
 </defs>
 <g id="Layer_x0020_1">
  <metadata id="CorelCorpID_0Corel-Layer"></metadata>
  <g id="_497290584">
   <path id="_497292624" class="fil1" d="M1273.91 1702.76c-85.5816,38.8701 -186.867,0.869292 -225.744,-84.7241 -7.18819,-15.828 -0.137008,-34.4906 15.6343,-41.6528 15.8351,-7.19292 34.4599,-0.19252 41.6481,15.6343 24.5209,53.987 88.4694,77.9753 142.443,53.4591 54.0473,-24.5481 77.9906,-88.4564 53.4697,-142.442 -7.18938,-15.828 -0.15,-34.4847 15.6295,-41.6516 15.8351,-7.19292 34.4634,-0.193701 41.6528,15.6331 38.876,85.5934 0.920079,186.84 -84.7335,225.744z" fill="black" />
   <path id="_497295672" class="fil1" d="M693.84 314.365c-7.30867,-16.0902 -26.2795,-23.211 -42.3709,-15.9024 -16.0902,7.30867 -23.2099,26.2795 -15.9024,42.3697l44.041 96.9639 -1.53307 0.696851c-101.783,52.5768 -176.265,141.985 -212.922,244.452 -36.228,101.267 -35.7449,215.313 11.5181,319.372 1.28504,2.82992 86.2146,191.306 134.858,381.1 23.9823,93.5682 39.0591,186.904 30.3355,256.367l-7.03465 55.8331 -7.15394 56.7934 52.1256 -23.6764 1004.63 -456.306 52.1268 -23.6752 -47.4756 -31.9807 -46.6725 -31.4386c-58.0205,-39.1229 -118.376,-111.887 -173.06,-191.512 -110.919,-161.51 -197.008,-349.486 -198.293,-352.316 -46.7492,-102.927 -127.212,-179.632 -222.207,-221.038 -94.741,-41.2949 -203.802,-47.4626 -308.271,-9.55513l-2.04921 0.930709 -0.348425 0.153543 -44.3433 -97.63zm37.7705 170.188c1.25787,-0.392126 2.50394,-0.864568 3.73465,-1.42441 1.00394,-0.454725 1.97244,-0.956694 2.90315,-1.49882l24.1347 -10.6311 0.00826772 0.0248032c88.4788,-32.1047 180.773,-26.9126 260.894,8.01024 80.8595,35.2453 149.47,100.8 189.502,188.938 1.31811,2.90315 89.6457,195.764 203.753,361.918 58.4504,85.1091 124.022,163.639 189.306,207.938l-900.392 408.961c9.60591,-78.3367 -6.3815,-179.394 -32.0162,-279.41 -50.0433,-195.253 -137.177,-388.625 -138.495,-391.529 -40.1315,-88.3548 -40.5237,-185.242 -9.73347,-271.308 31.3878,-87.7371 94.9513,-164.21 181.7,-209.108l24.7004 -10.8803z" fill="black" />
  </g>
 </g>
</svg>
