<svg xmlns="http://www.w3.org/2000/svg" width="12" height="10" viewBox="0 0 24 20"><g><g><path fill="#fbb017" d="M13.1 13.071h-.72l.001-8.577a4.618 4.618 0 0 1 9.235 0c0 .05 0 .098-.002.148h-2.166a2.171 2.171 0 0 0-2.166 2.166v.276h-1.07V8.49h-.487v.83c-1.55.527-2.576 2.007-2.626 3.752z"/></g><g><path fill="#ef4e23" d="M4.474 9.841c0 3.002 2.456 5.458 5.458 5.458.879 0 1.71-.21 2.448-.584v-4.474c0 .822-.672 1.494-1.493 1.494a1.499 1.499 0 0 1-1.494-1.494v-.4z"/></g><g><path fill="#ef4e23" d="M9.406 10.042h-4.92v-2.46a2.467 2.467 0 0 1 2.46-2.46 2.466 2.466 0 0 1 2.46 2.46z"/></g><g><path fill="#2e3191" d="M4.834 9.273L.574 4.85l6.153-.013h.01a2.639 2.639 0 1 1-1.001 5.067 2.67 2.67 0 0 1-.902-.63z"/></g><g><path fill="#fff4e5" d="M6.737 5.946a1.451 1.451 0 1 0 0 2.903 1.451 1.451 0 0 0 0-2.903z"/></g><g><path fill="#0077af" d="M14.699 19.334h3.303c.663 0 1.206-.541 1.206-1.204a1.21 1.21 0 0 0-1.206-1.205h-2.41a1.21 1.21 0 0 0 1.206-1.205 1.21 1.21 0 0 0-1.206-1.205h-2.397c.662 0 1.205-.541 1.205-1.204a1.21 1.21 0 0 0-1.205-1.206h-2.422c-.663 0-1.204.542-1.204 1.206v.893c0 2.822 2.309 5.13 5.13 5.13z"/></g><g><path fill="#fbb017" d="M21.616-.123a2.382 2.382 0 1 1 0 4.764 2.382 2.382 0 0 1 0-4.764z"/></g><g><path fill="#fbb017" d="M16.3 4.807h-2.679a.984.984 0 0 0-.982.98v2.68c0 .54.441.982.982.982h1.34a2.328 2.328 0 0 0 2.32-2.322v-1.34a.983.983 0 0 0-.98-.98z"/></g></g></svg>