<svg xmlns="http://www.w3.org/2000/svg" width="10.5" height="8.5" viewBox="0 0 21 17"><g><g><path fill="#e1cfc5" d="M1.835.262h2.892c.7 0 1.271.571 1.271 1.271 0 .698-.572 1.27-1.27 1.27H1.834z"/></g><g><path fill="#e1cfc5" d="M13.326 10.016v1.123c0 .074-.002.146-.005.22a5.47 5.47 0 0 0-2.16-.445H8.334a2.953 2.953 0 0 0-2.946 2.946c0 .597.18 1.154.487 1.618a5.002 5.002 0 0 1-2.532-4.339V3.496h1.471v3.341a3.179 3.179 0 0 0 3.18 3.18z"/></g><g><path fill="#cc8b5d" d="M18.44 14.459a2.357 2.357 0 0 1-2.35-2.35V7.984c0-.721-.56-1.318-1.267-1.377l-.053-.001c-.794 0-1.444.649-1.444 1.443v1.968h-.771l-.001-2.045a4.13 4.13 0 0 1 4.117-4.119 4.13 4.13 0 0 1 4.119 4.119v4.136a2.357 2.357 0 0 1-2.35 2.35z"/></g><g><path fill="#cc8b5d" d="M8.948 10.016h3.607l-.005-5.36a2.27 2.27 0 0 0-2.262-2.263 2.27 2.27 0 0 0-2.262 2.263V6.93c0 .711.58 1.29 1.29 1.29.71 0 1.29-.579 1.29-1.29V4.663c0-.396.309-.724.697-.757h.03c.436 0 .793.357.793.792v2.215a3.18 3.18 0 0 1-3.178 3.103z"/></g><g><path fill="#9b6e60" d="M15.985 16.13c-.152-2.522-2.264-4.54-4.824-4.54H8.334a2.278 2.278 0 0 0-2.27 2.27 2.278 2.278 0 0 0 2.27 2.27z"/></g><g><path fill="#9b6e60" d="M3.085.262H.023l1.82 4.19V4.45a1.54 1.54 0 0 0 1.434.988c.845 0 1.537-.69 1.537-1.536V1.798 1.76l-.002-.04-.003-.039-.003-.039a.437.437 0 0 1-.005-.038l-.006-.038-.006-.038a.405.405 0 0 0-.007-.037l-.009-.039a.597.597 0 0 0-.008-.036l-.01-.036-.01-.036-.013-.037-.025-.07A1.547 1.547 0 0 0 3.434.27L3.395.266c-.014 0-.026 0-.039-.002L3.317.262h-.04z"/></g><g><path fill="#fff4e5" d="M2.724.874a.834.834 0 1 0 0 1.668.834.834 0 0 0 0-1.668z"/></g></g></svg>