<svg xmlns="http://www.w3.org/2000/svg" width="12.5" height="9" viewBox="0 0 25 18"><g><g><path fill="#6d6e70" d="M7.464 12.09a2.48 2.48 0 0 1 2.01-1.033h5.611a4.324 4.324 0 0 1-4.073 2.906 4.313 4.313 0 0 1-3.548-1.873z"/></g><g><path fill="#f5accc" d="M2.584 3.874l1.661-2.847A1.494 1.494 0 0 1 6.283.491c.708.413.95 1.33.536 2.038l-1.66 2.847z"/></g><g><path fill="#f5accc" d="M4.027 2.512h3.296c.82 0 1.49.669 1.49 1.49 0 .82-.67 1.49-1.49 1.49H4.027z"/></g><g><path fill="#6d6e70" d="M2.629 3.847l2.383 1.437L2.629 6.72.246 5.284z"/></g><g><path fill="#cf8129" d="M16.165 11.057v1.228c0 3-2.456 5.457-5.457 5.457s-5.457-2.456-5.457-5.457v-1.228h1.694c.586 1.685 2.192 2.904 4.07 2.904a4.321 4.321 0 0 0 4.07-2.904z"/></g><g><path fill="#f5accc" d="M21.756 15.913a2.576 2.576 0 0 1-2.568-2.57V9.899h5.137v3.446a2.576 2.576 0 0 1-2.569 2.569z"/></g><g><path fill="#f5accc" d="M17.802 7.328h-.059c-.868 0-1.578.71-1.578 1.577v2.152h-.843V8.786a4.515 4.515 0 0 1 4.501-4.468 4.516 4.516 0 0 1 4.502 4.503v1.964h-5.137v-1.95c0-.79-.614-1.443-1.386-1.507z"/></g><g><path fill="#f5accc" d="M12.25 9.092c.775 0 1.41-.635 1.41-1.411V5.787h-2.822V7.68c0 .776.635 1.41 1.412 1.41z"/></g><g><path fill="#f5accc" d="M14.422 4.377l.032-.001a.87.87 0 0 1 .867.867v4.736h.462l.002-4.783a2.48 2.48 0 0 0-2.473-2.473 2.48 2.48 0 0 0-2.473 2.473v1.079h2.82V5.204c0-.433.338-.792.763-.827z"/></g><g><path fill="#cf8129" d="M5.251 11.057H6.71V5.284H5.251z"/></g><g><path fill="#cf8129" d="M4.273 2.848a2.436 2.436 0 1 1 .002 4.872 2.436 2.436 0 0 1-.002-4.872z"/></g><g><path fill="#fff" d="M3.178 5.284a1.096 1.096 0 1 0 2.193 0 1.096 1.096 0 0 0-2.193 0z"/></g></g></svg>