<svg xmlns="http://www.w3.org/2000/svg" width="9" height="11" viewBox="0 0 18 22"><g><g><path fill="#c92b90" d="M11.952 14.078h2.958a2.945 2.945 0 0 1 2.945 2.944v1.431c0 .875-.717 1.592-1.592 1.592a1.597 1.597 0 0 1-1.593-1.592V16.59a2.135 2.135 0 0 0-2.135-2.135h-.583z"/></g><g><path fill="#f48120" d="M7.16 8.923a1.773 1.773 0 0 1-1.769 1.745h-1.5c-.999 0-1.817.818-1.817 1.816v5.422H.96v-5.422a2.937 2.937 0 0 1 2.93-2.93h.254a.66.66 0 0 0 .656-.64l.006-.257h2.358z"/></g><g><path fill="#c92b90" d="M2.708 3.286L3.72 1.532A2.032 2.032 0 0 1 6.487.79l2.648 1.529-1.012 1.754a2.033 2.033 0 0 1-2.767.742z"/></g><g><path fill="#f48120" d="M.597 5.212l1.347-.01V5.13a2.61 2.61 0 0 1 5.214-.145c.004.077.004.15.004.228v3.79h-2z"/></g><g><path fill="#fff4e5" d="M4.553 6.826a1.733 1.733 0 1 0-.001-3.467 1.733 1.733 0 0 0 0 3.467z"/></g><g><path fill="#c92b90" d="M4.553 6.054a.96.96 0 1 0 0-1.922.96.96 0 0 0 0 1.922z"/></g><g><path fill="#c92b90" d="M12.64 14.455v-.637c-2.531.002-5.062.002-7.592.002a4.087 4.087 0 1 0 4.087 4.087c0-1.983 1.569-3.397 3.505-3.452z"/></g><g><path fill="#f48120" d="M10.069 14.226h1.453a4.358 4.358 0 0 0 4.345-4.346v-.384c0-.947-.775-1.721-1.721-1.721-.947 0-1.722.775-1.722 1.722v2.013a2.307 2.307 0 0 1-2.307 2.309h-3.73v.407z"/></g><g><path fill="#fbb017" d="M4.554 13.82H7.64a.843.843 0 0 1 0 1.684H5.956c.463 0 .842.38.842.841a.845.845 0 0 1-.842.842H4.28c.463 0 .842.38.842.841a.845.845 0 0 1-.842.842H1.81a.845.845 0 0 1-.842-.842v-.624a3.595 3.595 0 0 1 3.585-3.584z"/></g></g></svg>