<svg xmlns="http://www.w3.org/2000/svg" width="67" height="67" viewBox="0 0 67 67"><g><g><path fill="#fcecf3" d="M66.787.572H.859v65.929h65.928z"/></g><g><path fill="#dc8254" d="M7.735 43.209l27.976-2.503.14 3.456H7.77z"/></g><g><path fill="#693939" d="M54.95 40.276l7.769-2.266h-7.32a5.91 5.91 0 0 1-.45 2.266z"/></g><g><path fill="#f58b43" d="M41.353 43.227H29.151V14.694c6.781.5 12.202 7.446 12.202 15.867z"/></g><g><path fill="#a15641" d="M45.81 44.163H23.666v-2.776h8.924l13.22-1.955z"/></g><g><path fill="#a15641" d="M29.178 44.163V38.53c0-3.1-2.535-5.634-5.634-5.634-3.098 0-5.633 2.534-5.633 5.634 0 3.096 2.535 5.633 5.633 5.633z"/></g><g><path fill="#ffe9ce" d="M23.544 41.897a3.367 3.367 0 1 1 0-6.735 3.368 3.368 0 1 1 0 6.735z"/></g><g><path fill="#693939" d="M55.102 35.24l7.617 2.77h-7.066c0-.952-.186-1.89-.551-2.77z"/></g><g><path fill="#a15641" d="M48.64 44.163h-7.287v-7.288c0-4.008 3.28-7.287 7.287-7.287 4.008 0 7.288 3.279 7.288 7.287 0 4.009-3.28 7.288-7.288 7.288z"/></g><g><path fill="#fff" d="M48.64 32.278a4.597 4.597 0 1 0 .001 9.193 4.597 4.597 0 0 0 0-9.193z"/></g><g><path fill="#693939" d="M48.64 34.4a2.473 2.473 0 1 0 .002 4.946 2.473 2.473 0 0 0-.002-4.945z"/></g><g><path fill="#693939" d="M6.45 42.165a1.522 1.522 0 1 1-.002 3.042 1.522 1.522 0 0 1 .002-3.042z"/></g></g></svg>