<svg xmlns="http://www.w3.org/2000/svg" width="31" height="31" viewBox="0 0 31 31"><g><g><path fill="#906061" d="M30.808.32H.853v30.339h29.955z"/></g><g><path fill="#f7aaac" d="M11.89 7.84c-9.16 8.415 9.216 9.67 6.092 18.839 4.641-8.757 1.01-16.665-.257-21.391-1.43-5.337-7.677-4.514-7.677-.364A3.23 3.23 0 0 0 11.89 7.84z"/></g><g><path fill="#f05d5c" d="M25.317 5.555c-3.383.17-8.019.904-10.256 3.466-.643.738-1.072 1.631-1.093 2.62-.017.825.258 1.63.77 2.276a3.552 3.552 0 0 0 2.036 1.273c.967.208 1.935-.002 2.8-.457 3.011-1.584 4.796-5.926 5.743-9.178z"/></g><g><path fill="#8d5d5f" d="M13.878 6.121a1.278 1.278 0 1 1-.663-2.468 1.278 1.278 0 0 1 .663 2.468z"/></g><g><path fill="#f05d5c" d="M18.184 26.29c-2.965 6.635-7.268.021 0 0"/></g></g></svg>