<svg xmlns="http://www.w3.org/2000/svg" width="67" height="67" viewBox="0 0 67 67"><g><g><path fill="#b66f90" d="M66.715.572H.787v65.929h65.928z"/></g><g><path fill="#fff" d="M9.929 28.043l11.205-5.72v13.415L9.929 30.022h3.52a.993.993 0 0 0 .99-.99.992.992 0 0 0-.99-.989z"/></g><g><path fill="#f9cfe1" d="M52.186 33.506h3.583a1.81 1.81 0 0 0 1.805-1.804 1.81 1.81 0 0 0-1.805-1.805H53.46l2.162-2.16a1.809 1.809 0 0 0 0-2.55 1.808 1.808 0 0 0-2.551 0l-2.162 2.161v-2.31c0-.992-.811-1.804-1.804-1.804-.991 0-1.804.81-1.804 1.803v3.994H31.476a8.125 8.125 0 1 0-7.288 8.083c1.999 5.584 7.356 9.61 13.607 9.61 7.469 0 13.759-5.78 14.391-13.218z"/></g><g><path fill="#fff" d="M23.352 23.493a5.537 5.537 0 1 1-.003 11.075 5.537 5.537 0 0 1 .003-11.075z"/></g><g><path fill="#af6968" d="M23.352 25.587a3.445 3.445 0 1 1 0 6.89 3.445 3.445 0 0 1 0-6.89z"/></g><g><path fill="#fff" d="M44.663 37.05l-9.402-.003a3.798 3.798 0 0 1-3.786-3.786v-5.35c0-5.264 4.308-9.572 9.572-9.572h3.526c.735 0 1.337.603 1.337 1.337 0 .735-.602 1.337-1.337 1.337H42.62c-.737 0-1.337.6-1.337 1.335 0 .737.6 1.338 1.337 1.338l1.952-.001c.735 0 1.337.603 1.337 1.337 0 .735-.602 1.338-1.337 1.338H42.64c-.734 0-1.336.6-1.336 1.335s.602 1.337 1.336 1.337h1.953a1.34 1.34 0 0 1 1.337 1.335c0 .736-.602 1.338-1.337 1.338H42.62a1.34 1.34 0 0 0-1.337 1.335c0 .736.6 1.338 1.337 1.338h2.042a1.34 1.34 0 0 1 1.336 1.336c0 .734-.601 1.337-1.336 1.337z"/></g></g></svg>