<svg xmlns="http://www.w3.org/2000/svg" width="10" height="10" viewBox="0 0 20 20"><g><g><path fill="#ec1c24" d="M9.135 17.527a3.721 3.721 0 0 1-3.275 2.398 3.72 3.72 0 0 1-.862-3.966 3.718 3.718 0 0 1 2.948-2.364l-.002-.004A7.575 7.575 0 0 1 1.49 7.384C4.244 5.704 3.724 1.544.63.606c3.39-.242 6.568 2.1 7.137 5.496l1.492 8.959c.178 1.066.065 1.968-.124 2.466z"/></g><g><path fill="#ffca05" d="M.572.613a.853.853 0 1 1 .275 1.684A.853.853 0 0 1 .572.613z"/></g><g><path fill="#ec1c24" d="M10.135 17.527a3.723 3.723 0 0 0 3.275 2.398 3.718 3.718 0 0 0 .862-3.966 3.714 3.714 0 0 0-2.945-2.364v-.004a7.571 7.571 0 0 0 6.45-6.207c-2.752-1.68-2.23-5.84.865-6.778-3.39-.242-6.57 2.1-7.137 5.496L10.01 15.06c-.177 1.066-.062 1.968.125 2.466z"/></g><g><path fill="#ffca05" d="M18.696.613a.854.854 0 0 0-.276 1.685.854.854 0 0 0 .276-1.685z"/></g><g><path fill="#f48120" d="M8.365 14.8c.265-.03.533-.048.801-.06l.191.958c.132.656.048 1.21-.09 1.517-.397.872-1.36 1.425-2.41 1.474-.746-.618-1.03-1.566-.635-2.44.363-.797 1.201-1.327 2.143-1.45z"/></g><g><path fill="#f48120" d="M10.102 14.74c.27.012.537.03.801.059.942.123 1.781.653 2.143 1.45.397.874.113 1.822-.632 2.44-1.049-.05-2.016-.602-2.413-1.474-.137-.307-.22-.861-.089-1.517z"/></g><g><path fill="#f48120" d="M7.622 12.793c.42.045.842.077 1.272.094l.041-.209H7.72V7.422a4.889 4.889 0 0 0-2.49-.8c-1.186.98-1.637 2.483-1.008 3.868.574 1.267 1.907 2.11 3.401 2.302z"/></g><g><path fill="#f48120" d="M10.377 12.886c.428-.017.852-.048 1.27-.094 1.495-.193 2.828-1.035 3.404-2.302.629-1.384.175-2.889-1.008-3.868-.963.045-1.884.358-2.609.883v5.173h-1.098z"/></g><g><path fill="#ffca05" d="M5.763 5.583c1.315.624 2.325 1.84 2.579 3.358l.777 4.666a3.883 3.883 0 0 1-3.356-3.835z"/></g><g><path fill="#ffca05" d="M13.507 5.583c-1.315.624-2.323 1.84-2.578 3.358l-.776 4.666a3.883 3.883 0 0 0 3.354-3.835z"/></g><g><path fill="#a6a8ab" d="M9.636 9.546c.453 0 .822.371.822.824V16a.824.824 0 0 1-1.646 0v-5.63c0-.453.37-.824.824-.824z"/></g></g></svg>