<svg xmlns="http://www.w3.org/2000/svg" width="11.5" height="11" viewBox="0 0 23 22"><g><g><path fill="#00a551" d="M19.942 14.508c-1.44 4.76-5.92 5.44-7.996 2.61V10.08h.93c.146 3.57 3.423 6.555 7.066 4.43z"/></g><g><path fill="#00a551" d="M2.87 14.508c1.441 4.762 5.926 5.44 8 2.606V10.08h-.933c-.146 3.57-3.424 6.555-7.067 4.43z"/></g><g><path fill="#cddc46" d="M3.972 18.099c1.431 4.729 6.81 4.16 6.894-.736a5.267 5.267 0 0 0-1.619-3.771c.668 3.153-2.125 6.347-5.275 4.507z"/></g><g><path fill="#a5cd39" d="M.25 3.987h4.329c2.38 0 5.242 1.948 6.359 4.328l2.03 4.33H8.64c-2.382 0-5.244-1.949-6.36-4.33z"/></g><g><path fill="#a5cd39" d="M22.564 3.987h-4.329c-2.38 0-5.242 1.948-6.359 4.328l-2.03 4.33H14.175c2.381 0 5.242-1.949 6.359-4.33z"/></g><g><path fill="#cddc46" d="M18.841 18.099c-1.43 4.729-6.809 4.16-6.893-.736a5.262 5.262 0 0 1 1.618-3.771c-.667 3.153 2.125 6.347 5.275 4.507z"/></g><g><path fill="#a6a8ab" d="M8.925 3.251a1.232 1.232 0 0 1-1.23-1.229c0-.676.554-1.228 1.23-1.228.676 0 1.229.552 1.229 1.228v5.523c0 .689.564 1.254 1.253 1.254.69 0 1.254-.565 1.254-1.254V2.022A1.23 1.23 0 0 1 13.889.794a1.23 1.23 0 0 1 1.228 1.228c0 .677-.552 1.229-1.228 1.229h-.197v-.395h.197a.837.837 0 0 0 .834-.834.837.837 0 0 0-.834-.833.837.837 0 0 0-.833.833v5.523c0 .907-.741 1.648-1.65 1.648a1.653 1.653 0 0 1-1.648-1.648V2.022a.836.836 0 0 0-.833-.833.836.836 0 0 0-.833.833c0 .458.375.834.833.834h.197v.395z"/></g><g><path fill="#a37275" d="M11.407 14.974a.887.887 0 0 0 .885-.885V7.24a.887.887 0 0 0-.885-.885.888.888 0 0 0-.886.885v6.848c0 .488.4.885.886.885z"/></g></g></svg>