<svg xmlns="http://www.w3.org/2000/svg" width="67" height="67" viewBox="0 0 67 67"><g><g><path fill="#53a2b4" d="M66.645.788H.715v65.928h65.93z"/></g><g><path fill="#b77867" d="M33.602 36.283h9.659v.158h-.242v.184a1.957 1.957 0 0 0-1.054 3.41c.772.762 1.67 1.582 2.305 2.442a5.485 5.485 0 0 1 1.151 3.364v5.512h-5.51c-3.033 0-5.514-2.481-5.514-5.512v-6.955a.798.798 0 0 0-.794-.795.799.799 0 0 0-.798.795v6.955c0 3.03-2.478 5.512-5.51 5.512h-5.512V45.84a5.48 5.48 0 0 1 1.152-3.364c.634-.861 1.532-1.68 2.306-2.442a1.958 1.958 0 0 0-1.055-3.41v-.184h-.241v-.158z"/></g><g><path fill="#fff" d="M15.86 20.06h4.917c4.563 0 8.297 3.734 8.297 8.298l.001 3.233a3.725 3.725 0 0 0 3.707 3.487h1.636a3.725 3.725 0 0 0 3.706-3.487v-3.233c0-4.564 3.735-8.298 8.298-8.298h4.916a3.391 3.391 0 0 1 3.381 3.382v.626c0 6.923-5.664 12.588-12.587 12.588H25.067c-6.923-.001-12.589-5.664-12.589-12.588v-.627a3.392 3.392 0 0 1 3.382-3.381z"/></g><g><path fill="#fff" d="M25.668 50.658l2.269-.608a3.978 3.978 0 0 0 2.804-4.857l-1.027-3.83-1.85.496c-3.196.856-5.11 4.172-4.254 7.367l.078.29a1.62 1.62 0 0 0 1.98 1.142z"/></g><g><path fill="#fff" d="M41.532 50.658l-2.27-.608a3.977 3.977 0 0 1-2.803-4.857l1.027-3.83 1.85.496c3.195.856 5.11 4.172 4.254 7.367l-.08.29a1.62 1.62 0 0 1-1.978 1.142z"/></g><g><path fill="#e2cfc5" d="M19.283 24.423h3.34c3.101 0 5.64 2.537 5.64 5.639v5.637h-2.725c-4.703 0-8.552-3.85-8.552-8.552v-.426a2.304 2.304 0 0 1 2.297-2.298z"/></g><g><path fill="#e2cfc5" d="M47.916 24.423h-3.34c-3.101 0-5.64 2.537-5.64 5.639v5.637h2.725c4.704 0 8.551-3.85 8.551-8.552v-.426a2.304 2.304 0 0 0-2.297-2.298z"/></g><g><path fill="#fff" d="M28.89 19.683a2.338 2.338 0 0 1-2.333-2.332 2.338 2.338 0 0 1 2.332-2.332 2.339 2.339 0 0 1 2.332 2.332v12.994a2.386 2.386 0 0 0 2.378 2.379 2.387 2.387 0 0 0 2.38-2.38V17.352a2.337 2.337 0 0 1 2.331-2.332 2.338 2.338 0 0 1 2.332 2.332 2.338 2.338 0 0 1-2.332 2.332h-.375v-.75h.375c.87 0 1.582-.712 1.582-1.582 0-.87-.712-1.581-1.582-1.581-.869 0-1.58.712-1.58 1.58v12.995a3.138 3.138 0 0 1-3.13 3.13 3.137 3.137 0 0 1-3.129-3.13V17.35c0-.87-.714-1.581-1.582-1.581-.87 0-1.582.712-1.582 1.58 0 .87.711 1.583 1.582 1.583h.375v.75z"/></g><g><path fill="#cba497" d="M33.602 50.63a.467.467 0 0 0 .466-.466v-7.96h-.932v7.96c0 .257.21.466.466.466z"/></g><g><path fill="#cba497" d="M33.6 29.978a2.473 2.473 0 0 1 2.465 2.465v7.962A2.472 2.472 0 0 1 33.6 42.87a2.473 2.473 0 0 1-2.465-2.465v-7.962a2.473 2.473 0 0 1 2.465-2.465z"/></g><g><path fill="#cba497" d="M33.602 48.936a.793.793 0 0 0-.79.79v1.363c0 .434.356.789.79.789v-.001a.79.79 0 0 0 .79-.788v-1.363a.79.79 0 0 0-.79-.79z"/></g><g><path fill="#916060" d="M22.623 26.852a3.21 3.21 0 1 1 0 6.419 3.21 3.21 0 0 1 0-6.42z"/></g><g><path fill="#916060" d="M44.576 26.852a3.209 3.209 0 1 1 0 6.417 3.209 3.209 0 0 1 0-6.417z"/></g><g><path fill="#f3ce86" d="M22.623 28.322a1.74 1.74 0 1 1 0 3.478 1.74 1.74 0 0 1 0-3.478z"/></g><g><path fill="#f3ce86" d="M44.576 28.322c.961 0 1.738.779 1.738 1.74a1.738 1.738 0 1 1-3.479 0c0-.961.78-1.74 1.74-1.74z"/></g><g><path fill="#e2cfc5" d="M27.141 43.78a2.259 2.259 0 1 1-.002 4.517 2.259 2.259 0 0 1 .002-4.518z"/></g><g><path fill="#916060" d="M27.141 44.815a1.224 1.224 0 1 1 0 2.449 1.224 1.224 0 0 1 0-2.45z"/></g><g><path fill="#e2cfc5" d="M40.058 43.78a2.259 2.259 0 1 1 0 4.516 2.259 2.259 0 0 1 0-4.517z"/></g><g><path fill="#916060" d="M40.058 44.815a1.225 1.225 0 1 1 0 2.45 1.225 1.225 0 0 1 0-2.45z"/></g></g></svg>