<svg xmlns="http://www.w3.org/2000/svg" width="9" height="10" viewBox="0 0 18 20"><g><g><path fill="#485e87" d="M10.168 1.978l-.04 3.577L11.2 3.747a2.818 2.818 0 0 1 3.85-.986l2.418 1.432-1.432 2.418c-1.595 2.693-5.159-.103-5.163 2.575h.002a1.046 1.046 0 0 1 1.026 1.057 1.046 1.046 0 0 1-1.058 1.028 1.046 1.046 0 0 1-1.027-1.058l.095-8.238.009-.766a.771.771 0 0 1 .775-.76.77.77 0 0 1 .758.777.77.77 0 0 1-.775.758z"/></g><g><path fill="#fff" d="M12.593 3.496a2.018 2.018 0 1 0 1.856 3.584 2.018 2.018 0 0 0-1.856-3.584z"/></g><g><path fill="#00adee" d="M12.973 4.23a1.191 1.191 0 1 0 1.095 2.115 1.191 1.191 0 0 0-1.095-2.115z"/></g><g><path fill="#485e87" d="M7.585 1.978l.04 3.577-1.071-1.808a2.817 2.817 0 0 0-3.85-.986L.284 4.193c.479.806.956 1.612 1.433 2.418 1.595 2.693 5.16-.103 5.163 2.575a1.045 1.045 0 0 0-1.028 1.057A1.045 1.045 0 0 0 6.91 11.27a1.045 1.045 0 0 0 1.027-1.058l-.095-8.238-.008-.766a.77.77 0 0 0-.775-.76.77.77 0 0 0-.758.777.768.768 0 0 0 .776.758z"/></g><g><path fill="#fff" d="M5.16 3.496a2.017 2.017 0 1 1-1.854 3.583 2.017 2.017 0 0 1 1.855-3.583z"/></g><g><path fill="#00adee" d="M4.78 4.23a1.191 1.191 0 1 1-1.094 2.116A1.191 1.191 0 0 1 4.78 4.23z"/></g><g><path fill="#647b97" d="M15.068 14.976a6.188 6.188 0 0 0-12.376 0v3.729c0 .747.612 1.359 1.36 1.359.747 0 1.36-.612 1.36-1.36V17.59a2.622 2.622 0 0 0 2.51-2.613v-4.291c0-.525.43-.957.958-.957a.96.96 0 0 1 .957.957v4.29a2.622 2.622 0 0 0 2.51 2.614v1.116c0 .747.612 1.359 1.36 1.359.749 0 1.36-.612 1.36-1.36z"/></g><g><path fill="#00adee" d="M7.872 15.488c.033-.167.05-.336.05-.512v-3.564a2.525 2.525 0 1 0-.05 4.076z"/></g><g><path fill="#00adee" d="M9.836 11.412v3.564c0 .176.018.346.05.512a2.523 2.523 0 1 0-.05-4.076z"/></g><g><path fill="#ef4e23" d="M8.88 12.72c.37 0 .672-.303.672-.674v-4.6a.676.676 0 0 0-.673-.675.676.676 0 0 0-.673.674v4.601c0 .371.303.673.673.673z"/></g><g><path fill="#fff" d="M6.4 14.41a.986.986 0 0 1-.76-.355v4.01h-.228v-4.643a.988.988 0 1 1 .988.988z"/></g><g><path fill="#fff" d="M11.359 14.41a.988.988 0 0 0 .759-.355v4.01h.229v-4.643a.988.988 0 1 0-.988.988z"/></g><g><path fill="#ef4e23" d="M10.168 1.978v.003h-.256v-.007l.007-.766a.771.771 0 0 1 .776-.759.77.77 0 0 1 .758.776.771.771 0 0 1-.7.755h-.329z"/></g><g><path fill="#ef4e23" d="M7.585 1.978v.003h.257v-.007l-.008-.766A.77.77 0 0 0 7.058.45a.77.77 0 0 0-.759.776.77.77 0 0 0 .701.755h.328z"/></g></g></svg>