<svg xmlns="http://www.w3.org/2000/svg" width="67" height="67" viewBox="0 0 67 67"><g><g><path fill="#ffce8a" d="M.715.572h65.93v65.929H.715z"/></g><g><path fill="#dc8254" d="M21.643 27.543c-6.447 0-12.37 5.311-11.723 11.725l.657 6.506H8.052l.548-6.506c.602-7.15 5.868-13.043 13.043-13.043h.66v1.318z"/></g><g><path fill="#dc8254" d="M47.3 10.85h8.379a3.64 3.64 0 0 1 3.628 3.628v3.628H47.3z"/></g><g><path fill="#a75151" d="M44.87 39.37c.311.055.63.085.956.085 2.998 0 5.452-2.453 5.452-5.452V8.447h-2.406c-4.677 0-8.503 3.828-8.503 8.503v9.29H37.17a.752.752 0 0 1-.749-.75v-6.007a3.886 3.886 0 0 0-3.875-3.874 3.885 3.885 0 0 0-3.873 3.875v6.335a.75.75 0 0 1-1.499 0v-6.335a3.886 3.886 0 0 0-3.874-3.875 3.885 3.885 0 0 0-3.874 3.875v6.932c-4.11.833-7.232 4.487-7.232 8.834v9.01h.001v14.365h3.688v-6.446c0-6.957 5.692-12.65 12.65-12.65 6.956 0 12.647 5.693 12.647 12.65v6.446h3.69z"/></g><g><path fill="#dc8254" d="M42.169 26.24h9.109V10.247h-2.406c-3.682 0-6.703 3.02-6.703 6.701z"/></g><g><path fill="#fff" d="M50.196 12.182a1.306 1.306 0 1 1 .001 2.61 1.306 1.306 0 0 1 0-2.61z"/></g><g><path fill="#dc8254" d="M44.87 51.311v7.313h-3.69v-6.445c0-.292-.01-.582-.03-.868zm-28.955 0c-.02.286-.032.576-.032.868v6.445h-3.688v-7.313z"/></g><g><path fill="#dc8254" d="M42.169 22.677h9.109v4.554a4.567 4.567 0 0 1-4.554 4.553 4.567 4.567 0 0 1-4.555-4.553z"/></g><g><path fill="#dc8254" d="M51.278 16.727h8.724c.38 0 .69.31.69.689 0 .38-.31.69-.69.69h-8.724z"/></g></g></svg>