<svg xmlns="http://www.w3.org/2000/svg" width="11.5" height="11.5" viewBox="0 0 23 23"><g><g><path fill="#981b1e" d="M6.362 8.918c-2.599 0-5 2.016-5.042 4.544H.83c.441-2.843 2.62-5.11 5.532-5.11h.283v.566z"/></g><g><path fill="#981b1e" d="M17.356 1.765h3.589c.856 0 1.555.699 1.555 1.555v1.554h-5.144z"/></g><g><path fill="#f48120" d="M16.314 13.984a2.343 2.343 0 0 0 2.745-2.299V.734h-1.03a3.655 3.655 0 0 0-3.644 3.644v3.98h-1.37a.323.323 0 0 1-.32-.32V5.462c0-.913-.748-1.66-1.66-1.66-.913 0-1.66.747-1.66 1.66v2.715a.32.32 0 0 1-.643 0V5.463c0-.913-.747-1.66-1.66-1.66-.912 0-1.66.747-1.66 1.66v2.972a3.875 3.875 0 0 0-3.098 3.784v10.015h1.581v-2.762c0-2.98 2.438-5.419 5.42-5.419 2.98 0 5.418 2.438 5.418 5.42v2.761h1.581z"/></g><g><path fill="#981b1e" d="M15.157 8.358h3.902V1.506h-1.03a2.883 2.883 0 0 0-2.872 2.873z"/></g><g><path fill="#fff" d="M18.597 2.336a.558.558 0 1 1 0 1.116.558.558 0 0 1 0-1.116z"/></g><g><path fill="#981b1e" d="M15.157 6.832h3.902v1.951a1.957 1.957 0 0 1-1.95 1.952 1.958 1.958 0 0 1-1.952-1.952z"/></g><g><path fill="#981b1e" d="M2.314 19.243v2.992h1.581v-2.762c0-2.981 2.438-5.42 5.42-5.42 2.98 0 5.418 2.439 5.418 5.42v2.762h1.581v-2.992c0-3.851-3.15-7-7-7s-7 3.149-7 7z"/></g><g><path fill="#981b1e" d="M1.075 12.823a.64.64 0 1 1 0 1.28.64.64 0 0 1 0-1.28z"/></g></g></svg>