<?xml version="1.0" encoding="utf-8"?>
<!-- Generator: Adobe Illustrator 23.0.3, SVG Export Plug-In . SVG Version: 6.00 Build 0)  -->
<svg version="1.1" id="Layer_1" xmlns="http://www.w3.org/2000/svg" xmlns:xlink="http://www.w3.org/1999/xlink" x="0px" y="0px"
	 viewBox="0 0 60 60" style="enable-background:new 0 0 60 60;" xml:space="preserve">
<style type="text/css">
	.st0{fill:#71C6EF;}
	.st1{fill:#FFFFFF;}
	.st2{fill:#89C763;}
	.st3{fill:#ED1B31;}
	.st4{fill:#F3A0B7;}
	.st5{fill:#FFC548;}
	.st6{fill:#F36F34;}
</style>
<g>
	<ellipse transform="matrix(0.7071 -0.7071 0.7071 0.7071 -15.234 21.2218)" class="st2" cx="18" cy="29" rx="7.78" ry="18.38"/>
</g>
<g>
	
		<ellipse transform="matrix(0.7071 -0.7071 0.7071 0.7071 -2.4599 30.0278)" class="st2" cx="35.02" cy="17.98" rx="9.9" ry="4.95"/>
</g>
<g>
	<g>
		<circle class="st1" cx="47" cy="24" r="4"/>
		<path d="M51.01,25.99L56,24l-4.99-1.99c-0.44-0.87-1.14-1.58-2.01-2.02c-0.01-2.2-1.79-3.99-4-3.99v3.99
			c-1.48,0.74-2.5,2.25-2.5,4.01s1.02,3.27,2.5,4.01V31c0,1.65-1.35,3-3,3h-0.46C39.72,25.99,32.56,20,24,20c-9.94,0-18,8.06-18,18
			v4h2c0-2.21,1.79-4,4-4h9c1.66,0,3,1.34,3,3v12h-2v1h2h1h2v-1h-2V41c0-1.66,1.34-3,3-3h13v0h1c3.86,0,7-3.14,7-7v-2.99
			C49.87,27.57,50.58,26.87,51.01,25.99z M47,27.5c-1.93,0-3.5-1.57-3.5-3.5s1.57-3.5,3.5-3.5s3.5,1.57,3.5,3.5S48.93,27.5,47,27.5z
			"/>
	</g>
	<g>
		<circle cx="47" cy="24" r="2"/>
	</g>
	<g>
		<circle class="st1" cx="45.89" cy="23" r="1"/>
	</g>
	<g>
		<circle class="st1" cx="47.39" cy="24.5" r="0.5"/>
	</g>
</g>
<g>
	<ellipse class="st2" cx="24.5" cy="11.5" rx="2.5" ry="5.5"/>
</g>
<g>
	
		<ellipse transform="matrix(0.7071 -0.7071 0.7071 0.7071 -20.5079 40.7114)" class="st2" cx="38.89" cy="45.11" rx="2.5" ry="5.5"/>
</g>
</svg>
