<?xml version="1.0" encoding="utf-8"?>
<!-- Generator: Adobe Illustrator 23.0.3, SVG Export Plug-In . SVG Version: 6.00 Build 0)  -->
<svg version="1.1" id="Layer_1" xmlns="http://www.w3.org/2000/svg" xmlns:xlink="http://www.w3.org/1999/xlink" x="0px" y="0px"
	 viewBox="0 0 60 60" style="enable-background:new 0 0 60 60;" xml:space="preserve">
<style type="text/css">
	.st0{fill:#71C6EF;}
	.st1{fill:#FFFFFF;}
	.st2{fill:#89C763;}
	.st3{fill:#ED1B31;}
	.st4{fill:#F3A0B7;}
	.st5{fill:#FFC548;}
	.st6{fill:#F36F34;}
</style>
<g>
	<circle class="st2" cx="32" cy="32" r="17"/>
</g>
<path d="M42,18l-5-5h-4V9h-1l-0.03,0.02c-1.19,0.72-2.21,1.72-2.82,2.97c-0.77,1.58-1.17,3.33-1.16,5.11
	c0.02,3.3-1.19,6.44-3.16,9.09C22.95,28.73,22,31.85,22,35.02l0,7.77C22,45,20.2,47,18,47c-1.05,0-2.05-0.41-2.8-1.14
	C14.43,45.1,14,44.08,14,43c0-0.79,0.3-1.54,0.86-2.1c0.54-0.55,1.25-0.87,2.02-0.9c1.14-0.05,2.28-0.34,3.19-1.05
	C21.3,37.98,22,36.54,22,35c0-1.55-0.7-2.99-1.95-3.96C19.13,30.32,17.97,30,16.81,30L15,30v2l1.91,0c0.63,0,1.27,0.16,1.78,0.52
	C19.53,33.11,20,34.02,20,35c0,0.79-0.3,1.54-0.86,2.1c-0.54,0.55-1.25,0.87-2.02,0.9c-1.14,0.05-2.28,0.34-3.19,1.05
	C12.7,40.02,12,41.46,12,43c0,1.79,0.77,3.45,2.16,4.61c1.13,0.95,2.6,1.39,4.07,1.39L22,49h13h4h2v-2h0c-1.1,0-2-0.9-2-2v-4.51
	c0-1.77,0.23-3.53,0.55-5.27c0.3-1.57,0.45-3.17,0.45-4.77V30c0-3.25-1.05-6.4-3-9h2C40.66,21,42,19.66,42,18z"/>
<path class="st1" d="M28,37v1c3.87,0,7,3.13,7,7c0,1.49-0.47,2.87-1.26,4h1.18C35.6,47.82,36,46.46,36,45C36,40.58,32.42,37,28,37z"
	/>
<g>
	<circle class="st1" cx="36" cy="16" r="1"/>
</g>
</svg>
