<svg xmlns="http://www.w3.org/2000/svg" width="11" height="8.5" viewBox="0 0 22 17"><g><g><path fill="#be5327" d="M14.676 3.261l1.945 2.624-2.318.621z"/></g><g><path fill="#be5327" d="M19.81 3.261l-1.944 2.624 2.318.621z"/></g><g><path fill="#faab18" d="M5.904 8.88H4.121A3.835 3.835 0 0 1 .297 5.058V1.13H1.5v3.926a2.63 2.63 0 0 0 2.621 2.62h1.783z"/></g><g><path fill="#be5327" d="M10.68 16.195a3.833 3.833 0 0 1-3.823-3.824v-3.11H8.06v3.11a2.63 2.63 0 0 0 2.62 2.621z"/></g><g><path fill="#be5327" d="M1.547 16.195a3.834 3.834 0 0 0 3.824-3.824V8.278H4.167v4.093a2.63 2.63 0 0 1-2.62 2.621z"/></g><g><path fill="#6f2d78" d="M6.114 6.148h6.403v4.261H6.114z"/></g><g><path fill="#be5327" d="M22.016 16.195a3.834 3.834 0 0 1-3.824-3.824v-3.11h1.204v3.11a2.63 2.63 0 0 0 2.62 2.621z"/></g><g><path fill="#be5327" d="M12.882 16.195a3.834 3.834 0 0 0 3.824-3.824v-3.11h-1.203v3.11a2.63 2.63 0 0 1-2.621 2.621z"/></g><g><path fill="#6f2d78" d="M12.48 6.148h4.87a3.198 3.198 0 0 1 3.187 3.188v1.02a3.198 3.198 0 0 1-3.188 3.186h-1.682a3.197 3.197 0 0 1-3.187-3.187z"/></g><g><path fill="#faab18" d="M16.33 5.253h1.827a2.819 2.819 0 0 1 2.81 2.81 2.82 2.82 0 0 1-2.81 2.812H16.33a2.82 2.82 0 0 1-2.81-2.812 2.819 2.819 0 0 1 2.81-2.81z"/></g><g><path fill="#231f20" d="M14.907 6.892a.7.7 0 0 1 .698.698v.627a.7.7 0 0 1-.698.698.7.7 0 0 1-.698-.698V7.59a.7.7 0 0 1 .698-.698z"/></g><g><path fill="#231f20" d="M17.342 6.892c.383 0 .699.314.699.698v.627a.702.702 0 0 1-.7.698.7.7 0 0 1-.697-.698V7.59a.7.7 0 0 1 .698-.698z"/></g><g><path fill="#be5327" d="M.9.175c.33 0 .6.27.6.602v1.782H.297V.777C.297.446.568.175.9.175z"/></g></g></svg>