<?xml version="1.0" encoding="utf-8"?>
<!-- Generator: Adobe Illustrator 23.0.3, SVG Export Plug-In . SVG Version: 6.00 Build 0)  -->
<svg version="1.1" id="Layer_1" xmlns="http://www.w3.org/2000/svg" xmlns:xlink="http://www.w3.org/1999/xlink" x="0px" y="0px"
	 viewBox="0 0 60 60" style="enable-background:new 0 0 60 60;" xml:space="preserve">
<style type="text/css">
	.st0{fill:#71C6EF;}
	.st1{fill:#FFFFFF;}
	.st2{fill:#89C763;}
	.st3{fill:#ED1B31;}
	.st4{fill:#F3A0B7;}
	.st5{fill:#FFC548;}
	.st6{fill:#F36F34;}
</style>
<rect x="8" y="33" class="st2" width="42" height="2"/>
<ellipse transform="matrix(0.7071 -0.7071 0.7071 0.7071 -14.3112 44.4497)" class="st2" cx="46.5" cy="39.5" rx="1.86" ry="4.95"/>
<ellipse transform="matrix(0.7071 -0.7071 0.7071 0.7071 -16.6543 38.7929)" class="st2" cx="38.5" cy="39.5" rx="4.95" ry="1.86"/>
<g>
	<g>
		<circle class="st1" cx="44.11" cy="22" r="4"/>
		<path d="M48.3,23.61c0.19-0.5,0.31-1.04,0.31-1.61c0-2.48-2.02-4.5-4.5-4.5c-0.76,0-1.46,0.21-2.09,0.54
			C40.47,17.39,38.78,17,37,17v4.36C34.44,18.1,30.47,16,26,16c-7.73,0-14,6.27-14,14l0,0c0,7.73,6.27,14,14,14
			c1.9,0,3.67-0.75,5-2.1c1.29-1.32,2-3.06,2-4.9h-2c0,1.32-0.51,2.56-1.43,3.5C28.62,41.47,27.36,42,26,42v0c-3.31,0-6-2.69-6-6
			c0-2.22,1.21-4.15,3-5.19V35c0,0.55,0.45,1,1,1s1-0.45,1-1v-2c0-1.66,1.34-3,3-3h5v5c0,0.55,0.45,1,1,1s1-0.45,1-1v-2
			c0-1.66,1.34-3,3-3h2h10C50,27.67,49.37,25.49,48.3,23.61z M47.61,22c0,1.93-1.57,3.5-3.5,3.5s-3.5-1.57-3.5-3.5s1.57-3.5,3.5-3.5
			S47.61,20.07,47.61,22z"/>
	</g>
	<g>
		<circle cx="44.11" cy="22" r="2"/>
	</g>
	<g>
		<circle class="st1" cx="43" cy="21" r="1"/>
	</g>
	<g>
		<circle class="st1" cx="44.5" cy="22.5" r="0.5"/>
	</g>
</g>
</svg>
