<svg xmlns="http://www.w3.org/2000/svg" width="67" height="67" viewBox="0 0 67 67"><g><g><path fill="#53a2b4" d="M66.5.501H.572v65.928H66.5z"/></g><g><path fill="#f0e2db" d="M41.743 55.5h11.643c5.02 0 9.128-4.109 9.128-9.13 0-5.023-4.11-9.023-9.128-9.13l-2.026-.042H26.807v7.12H52.09a4.43 4.43 0 0 1 4.416 4.416c0 2.495-2.084 4.136-4.416 4.416L41.743 54.4z"/></g><g><path fill="#f0e2db" d="M27.126 36.237l-21.274 4.61v1.737a1.74 1.74 0 0 0 1.735 1.734h19.539z"/></g><g><path fill="#f0e2db" d="M5.852 42.674h3.653v-1.827a1.83 1.83 0 0 0-1.826-1.824 1.83 1.83 0 0 0-1.827 1.824z"/></g><g><path fill="#693939" d="M12.924 42.86a.243.243 0 0 0 .339 0l1.395-1.397 1.398 1.396a.243.243 0 0 0 .339 0 .241.241 0 0 0 0-.338l-1.567-1.567a.243.243 0 0 0-.34 0l-1.564 1.567a.236.236 0 0 0 0 .338z"/></g><g><path fill="#693939" d="M16.056 42.86a.243.243 0 0 0 .339 0l1.395-1.397.788.79a.243.243 0 0 0 .339 0 .24.24 0 0 0 0-.34l-.957-.959a.243.243 0 0 0-.34 0l-1.564 1.567a.237.237 0 0 0 0 .338z"/></g><g><path fill="#693939" d="M18.502 42.082c0 .133.109.238.24.238h4.294v-.478h-4.294a.241.241 0 0 0-.24.24z"/></g><g><path fill="#cba497" d="M25.99 33.97a3.473 3.473 0 0 1 3.47 3.47 3.473 3.473 0 0 1-3.47 3.471 3.472 3.472 0 0 1-3.47-3.47 3.472 3.472 0 0 1 3.47-3.47z"/></g><g><path fill="#693939" d="M25.99 35.66a1.78 1.78 0 1 1-1.78 1.781 1.78 1.78 0 0 1 1.78-1.781z"/></g><g><path fill="#fff" d="M29.451 37.199l1.56-1.556a.824.824 0 0 1 1.16 0l1.557 1.556z"/></g><g><path fill="#fff" d="M33.728 37.199l1.558-1.556a.824.824 0 0 1 1.161 0l1.558 1.556z"/></g><g><path fill="#fff" d="M38.006 37.199l1.558-1.556a.824.824 0 0 1 1.16 0l1.56 1.556z"/></g><g><path fill="#fff" d="M42.284 37.199l1.556-1.556a.828.828 0 0 1 1.164 0l1.555 1.556z"/></g><g><path fill="#fff" d="M46.56 37.199l1.56-1.556a.824.824 0 0 1 1.16 0l1.556 1.556z"/></g><g><path fill="#c5aca2" d="M32.911 37.955a.224.224 0 0 1 .32 0l2.913 2.911a.233.233 0 0 1 0 .322.23.23 0 0 1-.323 0l-2.91-2.913a.224.224 0 0 1 0-.32zm2.363 0l2.914 2.911a.23.23 0 0 1 0 .322.23.23 0 0 1-.323 0l-2.91-2.913a.226.226 0 0 1 .32-.32zm1.725 0a.225.225 0 0 1 .32 0l2.912 2.911a.224.224 0 0 1 0 .322.226.226 0 0 1-.319 0L37 38.275a.226.226 0 0 1 0-.32zm2.367 0l2.91 2.911a.228.228 0 0 1-.32.322l-2.912-2.913a.227.227 0 1 1 .322-.32zm2.043 0l2.911 2.911a.228.228 0 0 1-.32.322l-2.91-2.913a.225.225 0 0 1 0-.32.225.225 0 0 1 .32 0zm2.045 0l2.913 2.911a.233.233 0 0 1 0 .322.23.23 0 0 1-.323 0l-2.91-2.913a.226.226 0 1 1 .321-.32zm2.045 0l2.912 2.911a.233.233 0 0 1 0 .323.23.23 0 0 1-.323 0l-2.91-2.914a.226.226 0 1 1 .321-.32zm2.043 0l2.913 2.911a.23.23 0 0 1 0 .322.23.23 0 0 1-.322 0l-2.912-2.913a.227.227 0 0 1 .321-.32zm2.046 0l2.911 2.911a.228.228 0 0 1-.32.322l-2.913-2.913a.228.228 0 0 1 .322-.32zm2.044 0l2.91 2.911a.225.225 0 0 1 0 .322.228.228 0 0 1-.32 0l-2.912-2.913a.227.227 0 1 1 .322-.32zm-20.445 0l2.91 2.911a.228.228 0 0 1-.32.322l-2.91-2.913a.223.223 0 0 1 0-.32.225.225 0 0 1 .32 0z"/></g><g><path fill="#daac9e" d="M26.951 41.682h3.425c.973 0 1.768.795 1.768 1.768 0 .974-.796 1.77-1.768 1.77h-5.153a.04.04 0 0 1-.04-.04v-1.73c0-.973.795-1.768 1.768-1.768z"/></g><g><path fill="#daac9e" d="M32.145 41.442v2.007c0 .974-.797 1.77-1.77 1.77-.972 0-1.77-.796-1.77-1.77l.002-2.007c0-.973.796-1.769 1.769-1.769.974 0 1.769.796 1.769 1.77z"/></g><g><path fill="#daac9e" d="M44.966 41.682h3.425c.973 0 1.768.795 1.768 1.768 0 .974-.796 1.77-1.768 1.77h-5.153c-.023 0-.043-.02-.043-.04v-1.73c0-.973.797-1.768 1.77-1.768z"/></g><g><path fill="#daac9e" d="M50.16 41.442v2.007c0 .974-.797 1.77-1.77 1.77a1.773 1.773 0 0 1-1.768-1.77v-2.007c0-.973.795-1.769 1.768-1.769.974 0 1.77.796 1.77 1.77z"/></g><g><path fill="#ffe9ce" d="M25.127 24.234h13.108v6.246H25.127z"/></g><g><path fill="#ffe9ce" d="M25.215 14.42H14.999c-4.407 0-8.013 3.607-8.013 8.014 0 4.407 3.607 7.916 8.013 8.013l1.776.033h8.44v-6.246h-9.078a3.886 3.886 0 0 1-3.876-3.875c0-2.191 1.83-3.63 3.876-3.876l9.078-1.1z"/></g><g><path fill="#ffe9ce" d="M37.954 23.39l18.671 4.046v1.52c0 .84-.685 1.524-1.523 1.524H37.954z"/></g><g><path fill="#ffe9ce" d="M56.625 29.037h-3.206v-1.602c0-.88.722-1.602 1.602-1.602.883 0 1.604.722 1.604 1.602z"/></g><g><path fill="#693939" d="M53.168 29.2a.211.211 0 0 1-.298 0l-1.225-1.225-1.224 1.226a.211.211 0 0 1-.298-.298l1.374-1.374a.21.21 0 0 1 .297 0l1.374 1.374a.212.212 0 0 1-.001.298z"/></g><g><path fill="#693939" d="M50.42 29.2a.211.211 0 0 1-.297 0l-1.225-1.225-1.226 1.226a.212.212 0 0 1-.3 0 .213.213 0 0 1 0-.298l1.375-1.374a.214.214 0 0 1 .3 0l1.374 1.374a.213.213 0 0 1 0 .298z"/></g><g><path fill="#693939" d="M47.672 29.2a.212.212 0 0 1-.3 0l-1.223-1.225-.692.69a.208.208 0 0 1-.298 0 .212.212 0 0 1 0-.296l.84-.84a.211.211 0 0 1 .299 0l1.374 1.374a.212.212 0 0 1-.001.298z"/></g><g><path fill="#cba497" d="M38.953 21.4a3.045 3.045 0 1 0 0 6.09 3.045 3.045 0 0 0 0-6.09z"/></g><g><path fill="#693939" d="M38.953 22.881a1.563 1.563 0 1 0 .003 3.127 1.563 1.563 0 0 0-.003-3.127z"/></g><g><path fill="#fff" d="M35.915 24.234l-1.365-1.367a.724.724 0 0 0-1.021 0l-1.367 1.367z"/></g><g><path fill="#fff" d="M32.162 24.234l-1.368-1.367a.721.721 0 0 0-1.019 0l-1.368 1.367z"/></g><g><path fill="#fff" d="M28.407 24.234l-1.365-1.367a.725.725 0 0 0-1.022 0l-1.365 1.367z"/></g><g><path fill="#fff" d="M24.655 24.234l-1.367-1.367a.724.724 0 0 0-1.02 0L20.9 24.234z"/></g><g><path fill="#fff" d="M20.901 24.234l-1.368-1.367a.721.721 0 0 0-1.019 0l-1.368 1.367z"/></g><g><path fill="#c5aca2" d="M32.88 24.897a.198.198 0 0 1 0 .281l-2.555 2.555a.2.2 0 0 1-.283 0 .202.202 0 0 1 0-.281l2.555-2.555a.2.2 0 0 1 .283 0zm-1.794 0a.198.198 0 0 1 0 .281l-2.556 2.555a.2.2 0 0 1-.282-.281l2.555-2.555a.2.2 0 0 1 .283 0zm-1.794 0a.198.198 0 0 1 0 .281l-2.555 2.555a.2.2 0 0 1-.283 0 .198.198 0 0 1 0-.281l2.555-2.555a.2.2 0 0 1 .283 0zm-1.795 0a.2.2 0 0 1 0 .281l-2.554 2.555a.2.2 0 0 1-.283 0 .196.196 0 0 1 0-.281l2.555-2.555a.2.2 0 0 1 .282 0zm-1.793 0a.204.204 0 0 1 0 .281l-2.555 2.555a.202.202 0 0 1-.284 0 .198.198 0 0 1 0-.281l2.556-2.555a.2.2 0 0 1 .283 0zm-1.795 0a.2.2 0 0 1 0 .281l-2.555 2.555a.2.2 0 0 1-.283-.281l2.556-2.555a.2.2 0 0 1 .282 0zm-1.794 0a.2.2 0 0 1 0 .281l-2.554 2.555a.2.2 0 0 1-.283 0 .198.198 0 0 1 0-.281l2.554-2.555a.2.2 0 0 1 .283 0zm-1.795 0a.198.198 0 0 1 0 .281l-2.554 2.555a.198.198 0 0 1-.281 0h-.001a.195.195 0 0 1 0-.281l2.554-2.555a.2.2 0 0 1 .282 0zm-1.794 0a.198.198 0 0 1 0 .281l-2.553 2.555a.2.2 0 0 1-.283 0 .198.198 0 0 1 0-.281l2.554-2.555a.2.2 0 0 1 .282 0zm-1.795 0a.196.196 0 0 1 0 .281l-2.553 2.555a.2.2 0 0 1-.282-.281l2.555-2.555a.197.197 0 0 1 .28 0zm17.943 0a.198.198 0 0 1 0 .281l-2.555 2.555a.198.198 0 0 1-.281 0h-.002a.202.202 0 0 1 0-.281l2.556-2.555a.2.2 0 0 1 .282 0z"/></g><g><path fill="#daac9e" d="M38.108 28.166h-3.005c-.853 0-1.55.7-1.55 1.553s.697 1.553 1.55 1.553h4.522c.02 0 .035-.017.035-.036l.001-1.517c0-.853-.698-1.553-1.553-1.553z"/></g><g><path fill="#daac9e" d="M33.553 27.956v1.763c0 .854.697 1.553 1.55 1.553.854 0 1.554-.7 1.554-1.553v-1.763c0-.854-.7-1.551-1.553-1.551-.854 0-1.551.697-1.551 1.55z"/></g><g><path fill="#daac9e" d="M22.3 28.166h-3.004c-.856 0-1.553.7-1.553 1.553s.697 1.553 1.553 1.553h4.52a.036.036 0 0 0 .036-.036v-1.517c0-.853-.697-1.553-1.551-1.553z"/></g><g><path fill="#daac9e" d="M17.743 27.956v1.763c0 .854.696 1.553 1.553 1.553.853 0 1.551-.7 1.551-1.553v-1.763c0-.854-.698-1.551-1.55-1.551-.858 0-1.554.697-1.554 1.55z"/></g></g></svg>