<svg xmlns="http://www.w3.org/2000/svg" width="67" height="67" viewBox="0 0 67 67"><g><g><path fill="#f7bed7" d="M66.572.715H.645v65.928h65.927z"/></g><g><path fill="#8a4748" d="M24.12 28.51h12.36c4.62 0 8.402 3.783 8.402 8.403 0 4.62-3.781 8.403-8.402 8.403H24.12c-4.621 0-8.402-3.781-8.402-8.403 0-4.621 3.78-8.401 8.402-8.401z"/></g><g><path fill="#8a4748" d="M19.15 36.913h4.039v16.119H19.15z"/></g><g><path fill="#8a4748" d="M30.864 38.611h4.04v14.421h-4.04z"/></g><g><path fill="#fff" d="M35.82 21.907c-4.23 23.432 13.332 23.67 8.785 0"/></g><g><path fill="#b77867" d="M23.617 21.907a3.702 3.702 0 0 1-3.094-3.639 3.703 3.703 0 0 1 2.475-3.482v2.785c0 .668.547 1.215 1.214 1.215.668 0 1.215-.547 1.215-1.215V14.58h1.641v2.992c0 .668.545 1.215 1.214 1.215.67 0 1.215-.547 1.215-1.215V14.58h1.721v2.992c0 .668.545 1.215 1.214 1.215.668 0 1.214-.547 1.214-1.215V14.58c5.864 0 4.541 6.693 4.402 7.328zm18.814 0c-.139-.636-1.464-7.328 4.4-7.328v2.992a1.22 1.22 0 0 0 1.216 1.215 1.22 1.22 0 0 0 1.215-1.215V14.58h1.72v2.992a1.22 1.22 0 0 0 1.213 1.215 1.22 1.22 0 0 0 1.216-1.215V14.58h1.64v2.992a1.22 1.22 0 0 0 1.215 1.215 1.22 1.22 0 0 0 1.216-1.215v-2.785a3.703 3.703 0 0 1 2.471 3.482 3.7 3.7 0 0 1-3.093 3.64z"/></g><g><path fill="#693939" d="M42.44 24.999a1.833 1.833 0 1 0 .003 3.666A1.833 1.833 0 0 0 42.441 25z"/></g><g><path fill="#693939" d="M38.038 24.999a1.833 1.833 0 1 0 .002 3.664 1.833 1.833 0 0 0-.003-3.664z"/></g><g><path fill="#fff" d="M23.189 53.032H19.15v-4.183h4.039z"/></g><g><path fill="#fff" d="M34.906 53.032h-4.039v-4.183h4.039z"/></g></g></svg>