<?xml version="1.0" encoding="UTF-8"?>
<!DOCTYPE svg PUBLIC "-//W3C//DTD SVG 1.1//EN" "http://www.w3.org/Graphics/SVG/1.1/DTD/svg11.dtd">
<!-- Creator: CorelDRAW -->
<svg xmlns="http://www.w3.org/2000/svg" xml:space="preserve" width="2048px" height="2048px" style="shape-rendering:geometricPrecision; text-rendering:geometricPrecision; image-rendering:optimizeQuality; fill-rule:evenodd; clip-rule:evenodd"
viewBox="0 0 2048 2048"
 xmlns:xlink="http://www.w3.org/1999/xlink">
 <defs>
  <style type="text/css">
   <![CDATA[
    .fil0 {fill:#464549;}
    .fil1 {fill:white;fill-rule:nonzero}
   ]]>
  </style>
 </defs>
 <rect class="fil0" width="2048" height="2048"/>
 <g id="Layer_x0020_1">
  <metadata id="CorelCorpID_0Corel-Layer"/>
  <path class="fil1" d="M1031.25 1094.3c-40.5733,0 -77.3186,-16.461 -103.945,-43.076 -26.7142,-26.7 -43.2248,-63.4926 -43.2248,-104.037 0,-40.6642 16.4575,-77.465 43.0878,-104.099 26.6268,-26.6315 63.4158,-43.0937 104.082,-43.0937 40.5449,0 77.3351,16.5165 104.033,43.2331 26.6173,26.6339 43.0796,63.3863 43.0796,103.96 0,40.6205 -16.4669,77.4001 -43.0902,104.023 -26.6232,26.6232 -63.4016,43.0902 -104.022,43.0902zm-58.9453 -88.3264c15.0354,15.0295 35.8689,24.3248 58.9453,24.3248 22.9547,0 43.7339,-9.30119 58.7717,-24.339 15.0378,-15.0378 24.339,-35.8181 24.339,-58.7729 0,-23.0799 -9.29764,-43.9193 -24.3284,-58.9595 -14.9634,-14.974 -35.7414,-24.2315 -58.7823,-24.2315 -22.9973,0 -43.7918,9.30001 -58.8319,24.3425 -15.0402,15.0425 -24.3366,35.8465 -24.3366,58.8485 0,23.0445 9.25276,43.8248 24.2232,58.7871z"/>
  <path class="fil1" d="M1696.34 1014.45l-672.343 -278.447 -672.341 278.89 0.39567 617.11 415.943 0 0 -479.999 0 -32.0008 32.0008 0 448.001 0 32.0008 0 0 32.0008 0 479.999 416.073 0 0.269292 -617.553zm43.7599 -51.2233l20.0091 8.02796 -0.00826772 21.5977 -0.292914 671.151 -0.0141732 32.0008 -31.8614 0 -479.935 0 -32.0008 0 0 -32.0008 0 -479.999 -383.999 0 0 479.999 0 32.0008 -32.0008 0 -479.8 0 -31.8544 0 -0.0212599 -32.0008 -0.429922 -671.147 -0.0129921 -22.0358 20.5134 -7.83898 715.823 -291.037 715.886 291.281z"/>
  <path class="fil1" d="M480.002 1312l0 159.998 159.998 0 0 -159.998 -159.998 0zm-64.0016 191.999l0 -224 0 -32.0008 32.0008 0 224 0 32.0008 0 0 32.0008 0 224 0 32.0008 -32.0008 0 -224 0 -32.0008 0 0 -32.0008z"/>
  <path class="fil1" d="M1408 1312l0 159.998 159.998 0 0 -159.998 -159.998 0zm-64.0016 191.999l0 -224 0 -32.0008 32.0008 0 224 0 32.0008 0 0 32.0008 0 224 0 32.0008 -32.0008 0 -224 0 -32.0008 0 0 -32.0008z"/>
  <path class="fil1" d="M1054.48 383.999c0,-17.6728 -14.328,-32.0008 -32.0008,-32.0008 -17.6728,0 -32.0008,14.328 -32.0008,32.0008l0 303.183c0,17.6728 14.328,32.0008 32.0008,32.0008 17.6728,0 32.0008,-14.328 32.0008,-32.0008l0 -303.183z"/>
  <path class="fil1" d="M1255.18 510.916l-108 62.354 -108 62.354 -48.0012 27.7146 0 -55.3394 0 -124.708 0 -124.708 0 -55.3382 48.0012 27.7134 108 62.354 108 62.354 47.8465 27.6248 -47.8465 27.6248zm-140.001 7.10434l60.1524 -34.7292 -60.1524 -34.7292 -59.9989 -34.6406 0 69.3697 0 69.3697 59.9989 -34.6406z"/>
 </g>
</svg>
