<svg xmlns="http://www.w3.org/2000/svg" width="67" height="67" viewBox="0 0 67 67"><g><g><path fill="#fcecf3" d="M66.645.501H.715v65.928h65.93z"/></g><g><path fill="#b77867" d="M60.715 26.214c.659.659.659 1.74 0 2.4L48.063 41.267l-2.401-2.401 12.65-12.651a1.706 1.706 0 0 1 2.403 0z"/></g><g><path fill="#916060" d="M18.78 22.155h4.565v-7.176h-2.283a2.29 2.29 0 0 0-2.283 2.282z"/></g><g><path fill="#916060" d="M30.258 28.518h-4.566v-13.54h2.283a2.289 2.289 0 0 1 2.283 2.283z"/></g><g><path fill="#b77867" d="M19.099 49.85a2.047 2.047 0 0 0 2.039 2.04 2.046 2.046 0 0 0 2.04-2.04V43.68c0-1.122.917-2.04 2.039-2.04 1.12 0 2.038.918 2.038 2.04v6.14c0 1.122.917 2.039 2.039 2.039a2.044 2.044 0 0 0 2.039-2.038v-6.173c0-1.121.917-2.037 2.038-2.037v-.002c1.12 0 2.04.918 2.04 2.039v6.263c0 1.124.917 2.04 2.038 2.04 1.122 0 2.04-.916 2.04-2.04v-6.231c0-1.122.917-2.04 2.038-2.04 1.123 0 2.039.918 2.039 2.04v6.141c0 1.12.918 2.038 2.039 2.038a2.045 2.045 0 0 0 2.039-2.038v-6.173c0-1.121.917-2.037 2.039-2.037v-.002c1.122 0 2.038.918 2.038 2.039v6.173c0 1.12.919 2.038 2.039 2.038a2.044 2.044 0 0 0 2.038-2.038v-2.961c-.006-10.088-8.262-18.341-18.352-18.341h-7.163v-1.66c0-3.067-2.51-5.576-5.576-5.576H9.266a3.125 3.125 0 0 0-3.116 3.115v2.067c0 2.85 2.33 5.18 5.182 5.18H19.13c0 6.07-.031 12.14-.031 18.207z"/></g><g><path fill="#693939" d="M7.684 21.281h1.534v1.535c0 .844-.69 1.535-1.534 1.535H6.15v-1.535a1.54 1.54 0 0 1 1.535-1.535z"/></g><g><path fill="#693939" d="M25.3 24.759a4.843 4.843 0 0 1-4.202 2.427 4.843 4.843 0 0 1-4.202-2.427 4.847 4.847 0 0 1 4.202-2.425c1.796 0 3.364.975 4.202 2.425z"/></g><g><path fill="#fff" d="M21.098 22.506a2.253 2.253 0 1 1 0 4.507 2.253 2.253 0 0 1 0-4.507z"/></g><g><path d="M21.098 23.564a1.195 1.195 0 1 1 .002 2.39 1.195 1.195 0 0 1-.002-2.39z"/></g><g><path fill="#f58b43" d="M60.715 26.214c.659.659.659 1.74 0 2.4l-1.803 1.803-2.401-2.402 1.802-1.801a1.703 1.703 0 0 1 2.402 0z"/></g><g><path fill="#916060" d="M55.798 47.238v2.582a2.043 2.043 0 0 1-2.039 2.038 2.045 2.045 0 0 1-2.039-2.038v-2.582zm-8.154 0v2.582a2.043 2.043 0 0 1-2.039 2.038 2.043 2.043 0 0 1-2.039-2.038v-2.582zm-8.155 0v2.672a2.046 2.046 0 0 1-2.04 2.04 2.044 2.044 0 0 1-2.038-2.04v-2.672zm-8.157 0v2.582a2.043 2.043 0 0 1-2.038 2.038 2.043 2.043 0 0 1-2.039-2.038v-2.582zm-12.23 0h4.075v2.613a2.046 2.046 0 0 1-2.038 2.039 2.044 2.044 0 0 1-2.038-2.04z"/></g></g></svg>