<?xml version="1.0" encoding="utf-8"?>
<!-- Generator: Adobe Illustrator 23.0.3, SVG Export Plug-In . SVG Version: 6.00 Build 0)  -->
<svg version="1.1" id="Layer_1" xmlns="http://www.w3.org/2000/svg" xmlns:xlink="http://www.w3.org/1999/xlink" x="0px" y="0px"
	 viewBox="0 0 60 60" style="enable-background:new 0 0 60 60;" xml:space="preserve">
<style type="text/css">
	.st0{fill:#71C6EF;}
	.st1{fill:#FFFFFF;}
	.st2{fill:#89C763;}
	.st3{fill:#ED1B31;}
	.st4{fill:#F3A0B7;}
	.st5{fill:#FFC548;}
	.st6{fill:#F36F34;}
</style>
<g>
	<circle class="st5" cx="29" cy="27" r="19"/>
</g>
<g>
	<g>
		<circle class="st1" cx="44" cy="21" r="4"/>
		<path d="M48.2,22.56c0.18-0.49,0.3-1.01,0.3-1.56c0-2.48-2.02-4.5-4.5-4.5c-0.72,0-1.4,0.19-2,0.49L41,13h-1l-1.32,3.7
			C36.47,22.88,30.62,27,24.06,27H21c-2.21,0-4-1.79-4-4c0-0.79,0.3-1.54,0.86-2.1C18.43,20.32,19.19,20,20,20
			c0.79,0,1.54,0.3,2.1,0.86C22.68,21.43,23,22.19,23,23h2c0-1.35-0.53-2.62-1.5-3.57C22.56,18.51,21.32,18,20,18
			c-1.35,0-2.62,0.53-3.57,1.5C15.51,20.44,15,21.68,15,23v4v11v11h2l0.99-3.63c1.19-4.35,5.14-7.37,9.65-7.37H38l3,11h2V38v-6.54
			c0-1.43,1.01-2.66,2.41-2.94l4.65-0.93C51.77,27.25,53,25.74,53,24L48.2,22.56z M47.5,21c0,1.93-1.57,3.5-3.5,3.5
			s-3.5-1.57-3.5-3.5s1.57-3.5,3.5-3.5S47.5,19.07,47.5,21z"/>
	</g>
	<g>
		<circle cx="44" cy="21" r="2"/>
	</g>
	<g>
		<circle class="st1" cx="42.89" cy="20" r="1"/>
	</g>
	<g>
		<circle class="st1" cx="44.39" cy="21.5" r="0.5"/>
	</g>
</g>
<g>
	<path class="st1" d="M33.74,24.85l8.27,6.5c0.02-0.75,0.25-1.44,0.64-2.04l-7.33-5.76C34.82,24.02,34.29,24.45,33.74,24.85z"/>
</g>
</svg>
