<svg xmlns="http://www.w3.org/2000/svg" width="10.5" height="10.5" viewBox="0 0 21 21"><g><g><path fill="#e1cfc5" d="M8.709 15.786c1.103.314 2.227.424 3.379.234 1.09-.178 2.093-.606 3.026-1.171l-.009 5.317h1.887V14.36h.223l.043 5.792h1.881V9.036c.306.004.612.01.916-.003a.918.918 0 0 0 .882-.914V4.963a.918.918 0 0 0-.912-.917c-.932-.004-1.863 0-2.794 0a.936.936 0 0 0-.933.934c0 .514.42.932.933.932h1.874v1.315c-3.296.002-6.592.02-9.888.048a4.168 4.168 0 0 0-1.456.286l-.275.104.13 2.254c.013.167-.17.285-.32.286h-.122l-.101.069c-.401.272-.864.493-1.358.478h-.023c-.428.013-.831-.151-1.191-.37l-.251-.153-.222.194-.034.03-.139.12-.001 9.58h1.821l.008-3.772c.008-.366.07-.82.272-1.136.07-.108.198-.26.342-.256.141.002.262.152.328.26.192.32.243.779.243 1.144l.003 3.76h1.844l-.002-.403-.003-1.455-.001-2.025v-.484z"/></g><g><path fill="#6d6e70" d="M4.257 10.755l.035-.03c.502.305.962.442 1.412.429.505.015 1.02-.16 1.595-.547.395-.001.748-.325.718-.72l-.114-1.95c.408-.156.843-.25 1.317-.262 3.61-.023 6.676-.046 10.287-.046v-2.12h-2.275a.531.531 0 1 1 0-1.061c1.316 0 1.475-.005 2.79 0 .284.002.51.232.51.515v3.155c0 .276-.22.504-.492.514-.333.012-.97 0-1.304 0V19.75h-1.08l-.042-5.791-1.024-.001-.001 5.805h-1.082l.01-5.654c-2.294 1.58-4.506 2.06-7.206 1.129-.008.143-.004 2.748 0 4.512H7.274l-.003-3.358c-.022-2.414-1.937-2.397-1.988-.021l-.006 3.379h-1.02z"/></g><g><path fill="#e1cfc5" d="M4.311 11.69c.604.392 1.28.67 2.013.652.732.017 1.408-.26 2.012-.653.633-.07 1.167-.611 1.117-1.264l-.386-6.643H3.584l-.027.372c-.154 2.088-.246 4.18-.362 6.263-.05.66.484 1.203 1.116 1.273z"/></g><g><path fill="#f4e7dd" d="M4.074 4.31H8.57l.357 6.15v.004c.027.366-.303.663-.65.702l-.123.013-.105.068c-.51.332-1.094.583-1.713.567H6.31c-.62.016-1.202-.235-1.714-.567l-.104-.068-.125-.013c-.35-.04-.675-.34-.648-.709v-.011c.116-2.046.206-4.094.354-6.137z"/></g><g><path fill="#a6a8ab" d="M6.32 9.282c-.61 0-1.106.352-1.106.787 0 .434.495.786 1.105.786s1.105-.352 1.105-.786c0-.435-.495-.787-1.105-.787z"/></g><g><path fill="#e1cfc5" d="M8.856 3.604a1.777 1.777 0 0 0-1.253 2.171l.41 1.528a1.78 1.78 0 0 0 2.171 1.256 1.778 1.778 0 0 0 1.254-2.173l-.41-1.529a1.777 1.777 0 0 0-2.172-1.253z"/></g><g><path fill="#a6a8ab" d="M8.96 3.992a1.376 1.376 0 0 0-.97 1.68L8.4 7.2a1.377 1.377 0 0 0 1.68.97 1.376 1.376 0 0 0 .97-1.68l-.41-1.529a1.376 1.376 0 0 0-1.68-.969z"/></g><g><path fill="#e1cfc5" d="M1.959 3.512v.77c0 .977.797 1.774 1.773 1.774.976 0 1.773-.797 1.773-1.773V1.759c0-.975-.798-1.773-1.773-1.773H2.228C1.252-.014.455.783.455 1.759a1.78 1.78 0 0 0 1.504 1.753z"/></g><g><path fill="#6d6e70" d="M2.36 3.13v1.153c0 .754.618 1.371 1.372 1.371.754 0 1.371-.617 1.371-1.37V1.757c0-.753-.618-1.37-1.37-1.37H2.227c-.755 0-1.37.616-1.37 1.37 0 .755.615 1.372 1.37 1.372z"/></g><g><path fill="#6d6e70" d="M7.131 6.508a.542.542 0 1 0 0 1.083.542.542 0 0 0 0-1.083z"/></g><g><path fill="#6d6e70" d="M5.383 6.49a.541.541 0 1 0 0 1.083.541.541 0 0 0 0-1.083z"/></g></g></svg>