<?xml version="1.0" encoding="utf-8"?>
<!-- Generator: Adobe Illustrator 23.0.3, SVG Export Plug-In . SVG Version: 6.00 Build 0)  -->
<svg version="1.1" id="Layer_1" xmlns="http://www.w3.org/2000/svg" xmlns:xlink="http://www.w3.org/1999/xlink" x="0px" y="0px"
	 viewBox="0 0 60 60" style="enable-background:new 0 0 60 60;" xml:space="preserve">
<style type="text/css">
	.st0{fill:#71C6EF;}
	.st1{fill:#FFFFFF;}
	.st2{fill:#89C763;}
	.st3{fill:#ED1B31;}
	.st4{fill:#F3A0B7;}
	.st5{fill:#FFC548;}
	.st6{fill:#F36F34;}
</style>
<circle class="st0" cx="30" cy="28" r="17"/>
<g>
	<circle class="st1" cx="42" cy="22" r="4"/>
	<circle cx="42" cy="22" r="2"/>
	<circle class="st1" cx="40.89" cy="21" r="1"/>
	<circle class="st1" cx="42.39" cy="22.5" r="0.5"/>
</g>
<path d="M51,24h-1.55c-1.18,0-2.2-0.88-2.95-2c0-1.8-1.07-3.34-2.6-4.06C40.67,13.15,35.21,10,29,10c-4.09,0-7.84,1.38-10.86,3.67
	c-2.35-2.25-6.07-2.22-8.38,0.09l4.26,4.26C12.12,20.88,11,24.31,11,28c0,9.68,7.65,17.56,17.24,17.96l1.03,4.13
	C29.7,51.8,31.24,53,33,53h2v-1c-1.1,0-2-0.9-2-2v-3c0-1.1-0.9-2-2-2c1.1,0,2-0.9,2-2v-3c0-1.1,0.9-2,2-2v-1h-2
	c-1.76,0-3.3,1.2-3.73,2.91l-0.81,3.26C25.82,41.86,24,39.14,24,36c0-2.96,1.61-5.54,4-6.92V34c3.04,0,5.5-2.46,5.5-5.5
	c0-0.17-0.01-0.34-0.03-0.5H47h4c1.1,0,2-0.9,2-2S52.1,24,51,24z M42,25.5c-1.93,0-3.5-1.57-3.5-3.5s1.57-3.5,3.5-3.5
	s3.5,1.57,3.5,3.5S43.93,25.5,42,25.5z"/>
<path class="st1" d="M27.95,27.96c-0.31-1.99-2.1-3.19-3.77-3.19c-0.86,0-1.67,0.31-2.35,0.89C19.4,27.75,18,30.79,18,34
	c0,5.67,4.24,10.37,9.87,10.94L28,44.95v-0.89c-3.06-1.51-5-4.61-5-8.06C23,32.57,24.92,29.49,27.95,27.96z"/>
</svg>
