<svg xmlns="http://www.w3.org/2000/svg" width="67" height="67" viewBox="0 0 67 67"><g><g><path fill="#d0d2d3" d="M.645.572h65.927v65.929H.645z"/></g><g><path fill="#b77867" d="M25.178 13.38c-6.318-.025-11.269 5.165-11.269 11.268v19.489c0 .92.755 1.676 1.676 1.676.923 0 1.677-.756 1.677-1.676V36.05c.131-.828.852-1.433 1.713-1.466 1.215-.044 1.775 1.032 1.763 2.12l.05 16.988h6.515v-9.246c0-3.791 3.103-6.891 6.894-6.891h6.143c3.788 0 6.892 3.102 6.892 6.89v9.247h6.38V35.686c0-.288.234-.525.523-.525.288 0 .523.237.523.525v7.309h1.463V24.902c0-6.338-5.185-11.522-11.522-11.522z"/></g><g><path fill="#ffe9ce" d="M31.886 14.207c-4.041 0-7.345 3.306-7.345 7.347v13.29h.005a3.211 3.211 0 1 0 6.417.203c.002-.486-.024-.973-.024-1.472.2-7.819 8.296-.682 8.296-12.02 0-4.041-3.307-7.348-7.35-7.348z"/></g><g><path fill="#fff" d="M20.839 24.295a1.68 1.68 0 0 0-2.372 0l-2.35 2.348a1.685 1.685 0 0 0 0 2.372 1.683 1.683 0 0 0 2.376 0l2.346-2.35a1.68 1.68 0 0 0 0-2.37z"/></g></g></svg>