<svg xmlns="http://www.w3.org/2000/svg" width="67" height="67" viewBox="0 0 67 67"><g><g><path fill="#b66f90" d="M66.5.788H.572v65.928H66.5z"/></g><g><path fill="#f9cfe1" d="M51.959 24.07c.76 2.96 1.47 5.987 5.218 9.703l.329.327-.655.662-.33-.328c-3.847-3.814-5.515-7.356-6.545-10.365z"/></g><g><path fill="#f9cfe1" d="M17.035 15.45h23.838c6.296 0 11.446 5.15 11.446 11.446v25.157h-6.194v-12.02c0-.728-.595-1.32-1.32-1.32-.727 0-1.322.592-1.322 1.32v12.02h-6.227V41.29a2.585 2.585 0 0 0-2.578-2.578 2.587 2.587 0 0 0-2.58 2.578v10.764h-6.226V40.031c0-.727-.594-1.32-1.319-1.32-.726 0-1.323.593-1.323 1.32v12.021h-6.195z"/></g><g><path fill="#fff" d="M19.792 22.101a1.469 1.469 0 1 1 0 2.938 1.469 1.469 0 0 1 0-2.938z"/></g><g><path fill="#fff" d="M28.61 21.988a1.469 1.469 0 1 1 .002 2.938 1.469 1.469 0 0 1-.002-2.938z"/></g><g><path fill="#f59595" d="M35.102 15.45H13.3a3.747 3.747 0 0 0-3.736 3.735v7.741a3.747 3.747 0 0 0 3.736 3.735 3.746 3.746 0 0 0 3.735-3.735v-9.762h14.33v9.762a3.746 3.746 0 0 0 3.736 3.735 3.745 3.745 0 0 0 3.735-3.735v-7.74a3.745 3.745 0 0 0-3.735-3.737z"/></g><g><path fill="#fff" d="M17.035 28.907h2.757v10.81c0 .756-.62 1.377-1.377 1.377-.76 0-1.38-.62-1.38-1.378z"/></g><g><path fill="#fff" d="M28.61 28.907h2.756v10.81c0 .756-.618 1.377-1.379 1.377a1.382 1.382 0 0 1-1.377-1.378z"/></g></g></svg>