<svg xmlns="http://www.w3.org/2000/svg" width="58" height="59" viewBox="0 0 58 59"><g><g><path fill="#7fd3f6" d="M57.771.708H.048v57.724h57.723z"/></g><g><path fill="#a65252" d="M14.464 13.545h20.87c5.513 0 10.024 4.51 10.024 10.022v22.028h-5.425V35.069a1.16 1.16 0 0 0-1.156-1.156 1.16 1.16 0 0 0-1.157 1.156v10.526h-5.452V36.17a2.264 2.264 0 0 0-2.258-2.257 2.264 2.264 0 0 0-2.258 2.257v9.425H22.2V35.069a1.16 1.16 0 0 0-1.157-1.156 1.16 1.16 0 0 0-1.156 1.156v10.526h-5.424z"/></g><g><path fill="#fff" d="M16.877 19.37a1.287 1.287 0 1 1 0 2.573 1.287 1.287 0 0 1 0-2.574z"/></g><g><path fill="#fff" d="M24.598 19.269a1.287 1.287 0 1 1-.001 2.575 1.287 1.287 0 0 1 0-2.575z"/></g><g><path fill="#fff8f1" d="M30.281 13.545H11.193a3.28 3.28 0 0 0-3.27 3.27v6.779a3.279 3.279 0 0 0 3.27 3.27 3.28 3.28 0 0 0 3.271-3.27v-8.548H27.01v8.548a3.28 3.28 0 0 0 3.271 3.27 3.28 3.28 0 0 0 3.271-3.27v-6.778a3.28 3.28 0 0 0-3.27-3.271z"/></g><g><path fill="#fff" d="M14.464 25.328h2.413v9.463a1.21 1.21 0 0 1-1.207 1.207 1.21 1.21 0 0 1-1.206-1.207z"/></g><g><path fill="#fff" d="M24.598 25.328h2.413v9.463a1.21 1.21 0 0 1-1.207 1.207 1.21 1.21 0 0 1-1.206-1.207z"/></g></g></svg>