<svg xmlns="http://www.w3.org/2000/svg" width="59" height="63" viewBox="0 0 59 63"><g><g><path fill="#f9eee8" d="M58.133 62.795H.911V.3h57.222z"/></g><g><path fill="#ae7129" d="M9.217 23.4c.55-1.772-.826-6.863-2.317-8.42-.52-.542-4.826 7.925 1.98 10.934v33.885h3.067V36.155l1.914 1.615v22.029h3.066V40.037c4.944 4.219 8.928 5.23 14.972 5.23.022 1.479-.013 10.742-.025 14.532h2.628l.192-14.532h5.116l.145 14.532h2.475c.059-12.12.123-24.23.123-36.331z"/></g><g><path fill="#c27d2a" d="M9.217 23.4c.55-1.772-.826-6.863-2.317-8.42-.52-.542-4.826 7.925 1.98 10.934v33.885h3.067V36.155l1.914 1.615v22.029h3.066V40.037c4.045 3.452 7.448 4.757 11.862 5.116a35.428 35.428 0 0 0-8.37-21.73z"/></g><g><path fill="#ae7129" d="M8.88 26.788V59.8h3.066V36.155l1.914 1.615V59.8h3.066V40.038c2.486 2.12 4.73 3.43 7.113 4.21A35.712 35.712 0 0 0 8.88 26.788z"/></g><g><path fill="#986c6c" d="M32.867 16.785h-4.57a.977.977 0 0 1-.651-.25.978.978 0 0 1-.343-.743v-4.244l-2.65-.859c-1.313-.426-1.38-2.277.2-1.897l2.45.796V7.73l-3.658-1.25c-2.01-.688-1.542-2.487.074-1.936l3.584 1.225V4.276c0-.54.44-.98.98-.98.539 0 .98.441.98.98V5.77l1.902-.482c1.699-.43 2.052 1.44.516 1.83l-2.418.613v1.858l1.209-.262c1.485-.322 1.568 1.62.15 1.927l-1.36.295V13.627c.022 1.141.24 1.181 1.334 1.198h14.798c1.657-.034 1.638-.182 1.713-1.327V11.548l-1.362-.295c-1.478-.32-1.253-2.232.103-1.938l1.259.273V7.73l-2.418-.614c-1.41-.357-1.183-2.26.282-1.888l2.136.541V4.276c0-.54.44-.98.98-.98.539 0 .98.441.98.98V5.77l3.259-1.114c1.812-.619 2.275 1.182.687 1.725l-3.946 1.35v1.858l2.383-.774c1.439-.467 1.747 1.394.265 1.875l-2.648.86v-.189 4.433a.985.985 0 0 1-.983.993H43.393z"/></g><g><path fill="#a15641" d="M44.398 17.35a2.337 2.337 0 1 1 0 4.675 2.337 2.337 0 0 1 0-4.675z"/></g><g><path fill="#a15641" d="M31.896 17.59a2.339 2.339 0 0 1 2.339 2.337 2.34 2.34 0 0 1-4.676 0 2.337 2.337 0 0 1 2.337-2.337z"/></g><g><path fill="#f4a12e" d="M44.215 29.575c.079 1.036-.851 1.885-1.89 1.89-1.508 1.02-2.867 1.478-4.195 1.44-1.331.038-2.69-.42-4.196-1.44-1.04-.005-1.97-.854-1.89-1.89l.778-12.034.162-2.716h10.3l.114 1.96h-.005c.35 4.718.558 8.065.822 12.79z"/></g><g><path fill="#fff" d="M35.797 18.594a2.05 2.05 0 1 1 0 4.1 2.05 2.05 0 0 1 0-4.1z"/></g><g><path fill="#fff" d="M40.41 18.594a2.05 2.05 0 1 1 0 4.099 2.05 2.05 0 0 1 0-4.099z"/></g><g><path fill="#693939" d="M8.88 59.799h3.066v-4.851H8.88zm33.573-4.851h-2.547l.049 4.851h2.475zm-7.888 0h-2.674l-.017 4.851h2.627zm-17.638 0h-3.066v4.851h3.066z"/></g><g><path fill="#693939" d="M8.88 59.799h3.066v-4.851H8.88zm8.047-4.851h-3.066v4.851h3.066z"/></g></g></svg>