<?xml version="1.0" encoding="utf-8"?>
<!-- Generator: Adobe Illustrator 19.0.1, SVG Export Plug-In . SVG Version: 6.00 Build 0)  -->
<svg version="1.1" id="web_x5F_browser" xmlns="http://www.w3.org/2000/svg" xmlns:xlink="http://www.w3.org/1999/xlink" x="0px"
	 y="0px" viewBox="0 0 128 128" style="enable-background:new 0 0 128 128;" xml:space="preserve">
<style type="text/css">
	.st0{display:none;fill:#0A0A0A;}
	.st1{fill:#ffe9ce;}
	.st2{display:none;}
	.st3{display:inline;fill:#0A0A0A;}
	.st4{display:inline;fill-rule:evenodd;clip-rule:evenodd;fill:#0A0A0A;}
	.st5{display:inline;}
</style>
<g id="row4">
	<path id="add" class="st0" d="M128,50.9H77.1V0H50.9v50.9H0v26.3h50.9V128h26.3V77.1H128V50.9z"/>
	<path id="expand" class="st1" d="M42.6,104.5l20.5-20.8c2.9-2.9,2.9-7.7,0-10.6l-7.9-8c-2.9-2.9-7.6-2.9-10.4,0L23.9,86.3L0,62.9
		v64.9h66.5L42.6,104.5z M61.5,0.1H128v64.9l-23.9-23.4L83.2,62.9c-2.9,2.9-7.6,2.9-10.4,0l-7.9-8c-2.9-2.9-2.9-7.7,0-10.6
		l20.5-20.8L61.5,0.1z"/>
	<path id="Backward" class="st0" d="M72.3,0L8.7,63.7L9.1,64l-0.4,0.3L72.3,128l21.6-21.7L65.4,77.8h53.9V47.1H68.5l25.3-25.5
		L72.3,0"/>
	<path id="Home_1_" class="st0" d="M27.8,113.6h25.6v-36h24.4v36h25.6V70.9L65.6,38.5L27.8,69.8V113.6z M17.5,70.1H0l65.7-55.7
		L128,70.1h-16L65.4,29.7L17.5,70.1z"/>
	<path id="Downloads" class="st0" d="M96.9,61.4c-3.6,0-6.6-2.9-6.6-6.4V8.8c0-3.5-3-6.4-6.6-6.4H43.2c-3.6,0-6.6,2.9-6.6,6.4V55
		c0,3.5-3,6.4-6.6,6.4H3.4c-3.6,0-4.5,2.1-2,4.6l57.9,57.7c2.5,2.5,6.7,2.5,9.2,0L126.6,66c2.5-2.5,1.6-4.6-2-4.6H96.9z"/>
	<path id="bookmark" class="st0" d="M113.7,16.4H80.6l-12-13.7c-2.6-2.9-6.9-3-9.6-0.2L46,16.4H14.3C6.4,16.4,0,22.7,0,30.6v82.9
		c0,7.8,6.4,14.2,14.3,14.2h99.5c7.8,0,14.3-6.4,14.3-14.2V30.6C128,22.7,121.6,16.4,113.7,16.4z M35.7,107.8H21.1V93.2h14.6V107.8z
		 M35.7,78.6H21.1V64h14.6V78.6z M35.7,50.8H21.1V36.2h14.6V50.8z M106.6,107.8H48.5V93.2h58.1V107.8z M106.6,78.6H48.5V64h58.1
		V78.6z M106.6,50.8H48.5V36.2h58.1V50.8z"/>
	<polygon id="forward_2_" class="st0" points="0,87.9 0,40.1 64.5,40.1 64.5,5.1 128,67.3 64.5,122.9 64.5,87.9 	"/>
	<polygon id="backward" class="st0" points="128,40.1 128,87.9 63.5,87.9 63.5,122.9 0,60.7 63.5,5.1 63.5,40.1 	"/>
	<path id="zoom" class="st0" d="M7.5,128L0,120.5l42.1-42.1c-15.2-18.9-14-46.8,3.6-64.3c18.8-18.8,49.4-18.8,68.3,0
		c18.8,18.8,18.8,49.4,0,68.3c-17.6,17.6-45.4,18.7-64.3,3.6L7.5,128z M79.8,10.6c-10.1,0-19.5,3.9-26.6,11
		c-14.7,14.7-14.7,38.6,0,53.2c14.7,14.7,38.6,14.7,53.2,0c7.1-7.1,11-16.6,11-26.6c0-10.1-3.9-19.5-11-26.6
		C99.3,14.5,89.8,10.6,79.8,10.6z M85.1,70.1H74.4V53.6H57.9V42.9h16.5V26.4h10.6v16.5h16.5v10.6H85.1V70.1z"/>
</g>
<g id="row3" class="st2">
	<path id="favourites_x5F_Bar_2_" class="st3" d="M128,29.5H0v-3.3h128V29.5z M79.1,66.7l12.6-13.1l-18-2.1l-8.5-16l-7.5,16.5
		l-17.9,3.1l13.4,12.3l-2.5,18l15.8-8.9l16.3,8L79.1,66.7z M128,98.5H0v3.3h128V98.5z"/>
	<path id="Top_x5F_Sites_2_" class="st3" d="M18.3,36.6H0V18.3h18.3V36.6z M54.9,18.3H36.6v18.3h18.3V18.3z M91.4,18.3H73.1v18.3
		h18.3V18.3z M128,18.3h-18.3v18.3H128V18.3z M18.3,73.1H0V54.9h18.3V73.1z M54.9,54.9H36.6v18.3h18.3V54.9z M91.4,54.9H73.1v18.3
		h18.3V54.9z M128,54.9h-18.3v18.3H128V54.9z M18.3,109.7H0V91.4h18.3V109.7z M54.9,91.4H36.6v18.3h18.3V91.4z M91.4,91.4H73.1v18.3
		h18.3V91.4z M128,91.4h-18.3v18.3H128V91.4z"/>
	<path id="Home_3_" class="st3" d="M122.5,72.1l5.5-5.5l-17.3-17.3V18.2H95.8v16.2L63.6,2.2L0,65.8l5.5,5.5l11.7-11.7v62.3H5.6v3.9
		h116.7v-3.9h-11.5V60.4L122.5,72.1z M106.9,121.9H83.1V77H44.3v44.9H21.1V55.7l42.5-42.5l43.3,43.3V121.9z"/>
	<path id="download_2_" class="st3" d="M64,0C28.7,0,0,28.7,0,64s28.7,64,64,64s64-28.7,64-64S99.3,0,64,0z M63.9,104.8L30,64
		l24.7-0.1V28.1h18.7v35.7L98,63.8L63.9,104.8z"/>
	<path id="tabs_2_" class="st3" d="M87.3,128H7.2c-4,0-7.2-3.2-7.2-7.2V40.7c0-4,3.2-7.2,7.2-7.2h80.1c4,0,7.2,3.2,7.2,7.2v80.1
		C94.5,124.8,91.3,128,87.3,128z M7.2,38.3c-1.3,0-2.4,1.1-2.4,2.4v80.1c0,1.3,1.1,2.4,2.4,2.4h80.1c1.3,0,2.4-1.1,2.4-2.4V40.7
		c0-1.3-1.1-2.4-2.4-2.4H7.2z M128,81V13.6C128,6.1,121.9,0,114.4,0H47c-7.5,0-13.6,6.1-13.6,13.6v5.7h4.8v-5.7
		c0-4.8,3.9-8.8,8.8-8.8h67.4c4.8,0,8.8,3.9,8.8,8.8V81c0,4.8-3.9,8.8-8.8,8.8h-5.2v4.8h5.2C121.9,94.5,128,88.4,128,81z"/>
	<path id="Share_2_" class="st3" d="M100.4,128H27.6c-6.1,0-11-4.9-11-11V52.4c0-6.1,4.9-11,11-11h22.5v3.9H27.6
		c-3.9,0-7.1,3.2-7.1,7.1V117c0,3.9,3.2,7.1,7.1,7.1h72.8c3.9,0,7.1-3.2,7.1-7.1V52.4c0-3.9-3.2-7.1-7.1-7.1H77.7v-3.9h22.7
		c6.1,0,11,4.9,11,11V117C111.4,123.1,106.5,128,100.4,128z M62.5,4.8c0.5-0.6,1.2-0.9,1.9-0.9c0,0,0,0,0,0c0.7,0,1.4,0.3,1.9,0.8
		l22.5,24.9l2.9-2.6L69.3,2.1C68,0.8,66.3,0,64.4,0c0,0,0,0,0,0c-1.8,0-3.6,0.8-4.8,2.2L37.1,27.4l2.9,2.6L62.5,4.8z M66.4,2h-3.9
		v86.7h3.9V2z"/>
	<path id="sidebar_2_" class="st3" d="M8.4,27.1v3.7h19.3v-3.7H8.4z M8.4,35.7v3.7h19.3v-3.7H8.4z M8.4,44.3V48h19.3v-3.7H8.4z
		 M8.4,27.1v3.7h19.3v-3.7H8.4z M8.4,35.7v3.7h19.3v-3.7H8.4z M8.4,44.3V48h19.3v-3.7H8.4z M8.4,27.1v3.7h19.3v-3.7H8.4z M8.4,35.7
		v3.7h19.3v-3.7H8.4z M8.4,44.3V48h19.3v-3.7H8.4z M119.5,12.8H8.5c-4.7,0-8.5,3.8-8.5,8.5v85.3c0,4.7,3.8,8.5,8.5,8.5h111
		c4.7,0,8.5-3.8,8.5-8.5V21.3C128,16.6,124.2,12.8,119.5,12.8z M32.8,111.5H8.5c-2.6,0-4.8-2.2-4.8-4.9V21.3c0-2.7,2.2-4.9,4.8-4.9
		h24.3V111.5z M124.3,106.7c0,2.7-2.2,4.9-4.8,4.9H35.7V16.5h83.8c2.6,0,4.8,2.2,4.8,4.9V106.7z"/>
	<path id="Refresh_2_" class="st3" d="M117.1,75.6c0,29.3-23.6,52.4-52.7,52.4c-29.1,0-53.6-23.8-53.6-52.9
		c0-26.2,18.4-48.2,43.6-52.2V0l20.2,11.5L94.8,23L74.6,34.6L54.4,46.1V27.2C32.9,31.3,15,51.2,15,74.9c0,26.8,22.2,48.9,49,48.9
		c26.8,0,48.9-23.1,48.9-48.2H117.1z"/>
</g>
<g id="row2" class="st2">
	<path id="padlock" class="st3" d="M103.4,50.5v-11C103.4,17.7,85.7,0,64,0S24.4,17.7,24.4,39.5v11H16V128H112V50.5H103.4z M34,39.5
		C34,23,47.5,9.6,64,9.6S93.8,23,93.8,39.5v11H34V39.5z"/>
	<path id="message" class="st4" d="M124.7,25.2H3.3c-1.8,0-3.3,1.5-3.3,3.3v70.9c0,1.8,1.5,3.3,3.3,3.3h121.3c1.8,0,3.3-1.5,3.3-3.3
		V28.5C128,26.7,126.5,25.2,124.7,25.2z M118.1,90.4l-4.2,5.2l-35.3-29l-5.8,3.6c-5.6,2.7-12,2.7-17.6,0L54.9,70l-5.6-3.6L13.9,95.5
		l-4.3-5.2l33.8-27.8L9.9,41.4l3.6-5.6l44.8,28.4c3.6,1.7,7.8,1.7,11.4,0l44.8-28.4l3.6,5.6L84.5,62.7L118.1,90.4z"/>
	<path id="printer" class="st3" d="M113.8,35.2V0.6H13.5v34.6H0v53.3h16.8v38.8h93.7V88.6H128V35.2H113.8z M21,8.2h85.2v23.2H21V8.2
		z M106.7,123.6H20.6V66.4h86.1V123.6z"/>
	<path id="Search" class="st3" d="M114,14C95.3-4.7,64.9-4.7,46.2,14c-17.7,17.6-18.7,45.7-3,64.5L0,121.6l6.4,6.4l43.1-43.1
		c8.8,7.3,19.7,11,30.6,11c6.1,0,12.3-1.2,18.1-3.5c5.8-2.3,11.2-5.9,15.9-10.5C132.7,63.1,132.7,32.7,114,14z M107.6,75.5
		c-15.2,15.2-39.9,15.2-55.1,0c-15.2-15.2-15.2-39.9,0-55.1C60.1,12.8,70.1,9,80.1,9c10,0,20,3.8,27.6,11.4
		C122.8,35.6,122.8,60.3,107.6,75.5z"/>
	<path id="History" class="st3" d="M64,128C28.7,128,0,99.3,0,64S28.7,0,64,0s64,28.7,64,64S99.3,128,64,128z M64,7.5
		C32.9,7.5,7.5,32.9,7.5,64s25.3,56.5,56.5,56.5s56.5-25.3,56.5-56.5S95.1,7.5,64,7.5z M71.9,21.3c0-2.1-1.7-3.8-3.8-3.8
		c-2.1,0-3.8,1.7-3.8,3.8V64H35.9c-2.1,0-3.8,1.7-3.8,3.8c0,2.1,1.7,3.8,3.8,3.8h36V21.3z"/>
	<path id="Minimize" class="st3" d="M121.7,70.3H6.3C2.8,70.3,0,67.5,0,64c0-3.5,2.8-6.3,6.3-6.3h115.4c3.5,0,6.3,2.8,6.3,6.3
		C128,67.5,125.2,70.3,121.7,70.3z"/>
	<path id="Max" class="st4" d="M0,127.7V25.5h102.2v102.2H0z M93.7,51.1H8.5v68.1h85.2V51.1z M25.3,0.3H128v101.9h-9V8.2H25.3V0.3z"
		/>
	<path id="Close" class="st3" d="M122.2,128c-1.5,0-2.9-0.6-4.1-1.7L64,72.1L9.8,126.3c-2.2,2.2-5.9,2.2-8.1,0s-2.2-5.9,0-8.1
		L55.9,64L1.7,9.8c-2.2-2.2-2.2-5.9,0-8.1s5.9-2.2,8.1,0L64,55.9l54.2-54.2c2.2-2.2,5.9-2.2,8.1,0s2.2,5.9,0,8.1L72.1,64l54.2,54.2
		c2.2,2.2,2.2,5.9,0,8.1C125.2,127.4,123.7,128,122.2,128z"/>
</g>
<g id="row1" class="st2">
	<g id="arrows" class="st5">
		<path id="backward_3_" class="st1" d="M109.6,81.5c-0.4,0-0.8-0.2-1.1-0.5c-0.6-0.6-0.6-1.6,0-2.2l13.4-13.2H85.7
			c-0.9,0-1.6-0.7-1.6-1.6c0-0.9,0.7-1.6,1.6-1.6H122l-13-13.2c-0.6-0.6-0.6-1.6,0-2.2c0.6-0.6,1.6-0.6,2.2,0L128,64l-17.3,17
			C110.4,81.3,110,81.5,109.6,81.5z"/>
		<path id="forward_3_" class="st1" d="M18.4,81.5c-0.4,0-0.8-0.2-1.1-0.5L0,64l16.7-17c0.6-0.6,1.6-0.6,2.2,0
			c0.6,0.6,0.6,1.6,0,2.2L6,62.4h36.3c0.9,0,1.6,0.7,1.6,1.6c0,0.9-0.7,1.6-1.6,1.6H6.1l13.4,13.2c0.6,0.6,0.6,1.6,0,2.2
			C19.2,81.3,18.8,81.5,18.4,81.5z"/>
	</g>
	<polygon id="forward_4_" class="st3" points="35.5,128 28.5,121 85.5,64 28.5,7 35.5,0 99.5,64 	"/>
	<polygon id="backward_2_" class="st3" points="92.5,128 28.5,64 92.5,0 99.5,7 42.5,64 99.5,121 	"/>
	<path id="refresh_2_" class="st3" d="M75.1,45.1l19-19c-7.8-5-16.9-7.6-26.3-7.6c-27.3,0-49.5,22.2-49.5,49.5s22.2,49.5,49.5,49.5
		c13.4,0,26-5.3,35.4-14.8l7.5,7.3C99.2,121.6,84,128,67.8,128c-33.1,0-60-26.9-60-60c0-33.1,26.9-60,60-60
		c12.2,0,23.8,3.6,33.8,10.5L120.2,0v45.1H75.1z"/>
	<path id="Options" class="st3" d="M122.8,115.8H5.2c-2.9,0-5.2-2.3-5.2-5.2c0-2.9,2.3-5.2,5.2-5.2h117.6c2.9,0,5.2,2.3,5.2,5.2
		C128,113.5,125.7,115.8,122.8,115.8z M122.8,69.2H5.2C2.3,69.2,0,66.9,0,64s2.3-5.2,5.2-5.2h117.6c2.9,0,5.2,2.3,5.2,5.2
		S125.7,69.2,122.8,69.2z M122.8,22.5H5.2c-2.9,0-5.2-2.3-5.2-5.2s2.3-5.2,5.2-5.2h117.6c2.9,0,5.2,2.3,5.2,5.2
		S125.7,22.5,122.8,22.5z"/>
	<path id="Settings" class="st4" d="M128,59.6v8.8l-12.3,5.5c-0.5,2.5-1.2,5-2,7.4l7.9,10.9l-4.4,7.6l-13.4-1.4
		c-1.7,1.9-3.5,3.8-5.4,5.4l1.4,13.4l-7.6,4.4l-10.9-7.9c-2.4,0.8-4.9,1.5-7.4,2L68.4,128h-8.8l-5.5-12.3c-2.5-0.5-5-1.2-7.4-2
		l-10.9,7.9l-7.6-4.4l1.4-13.4c-1.9-1.7-3.8-3.5-5.4-5.4l-13.4,1.4l-4.4-7.6l7.9-10.9c-0.8-2.4-1.5-4.9-2-7.4L0,68.4v-8.8l12.3-5.5
		c0.5-2.5,1.2-5,2-7.4L6.4,35.8l4.4-7.6l13.4,1.4c1.7-1.9,3.5-3.8,5.4-5.4l-1.4-13.4l7.6-4.4l10.9,7.9c2.4-0.8,4.9-1.5,7.4-2L59.6,0
		h8.8l5.5,12.3c2.5,0.5,5,1.2,7.4,2l10.9-7.9l7.6,4.4l-1.4,13.4c1.9,1.7,3.7,3.5,5.4,5.4l13.4-1.4l4.4,7.6l-7.9,10.9
		c0.8,2.4,1.5,4.9,2,7.4L128,59.6z M64,26.3c-20.8,0-37.7,16.9-37.7,37.7s16.9,37.7,37.7,37.7s37.7-16.9,37.7-37.7
		S84.8,26.3,64,26.3z"/>
	<path id="favourites_2_" class="st3" d="M126.5,56.4l-28,24.2c-1.1,1-1.7,2.4-1.5,3.8l4.1,36.8c0.4,3.7-3.5,6.2-6.7,4.3l-31.7-19.1
		c-1.2-0.8-2.8-0.8-4.1-0.2l-33.7,15.3c-3.3,1.5-7-1.5-6.1-5l8.4-36c0.3-1.4-0.1-2.9-1-4L1.2,49c-2.5-2.7-0.8-7.1,2.9-7.4l36.9-3.2
		c1.5-0.1,2.8-1,3.5-2.2L62.7,4.1c1.8-3.2,6.5-2.9,7.9,0.5L85,38.6c0.6,1.3,1.8,2.3,3.2,2.6l36.2,7.5
		C128.1,49.5,129.2,54,126.5,56.4z"/>
</g>
</svg>
