<svg xmlns="http://www.w3.org/2000/svg" width="67" height="67" viewBox="0 0 67 67"><g><g><path fill="#daac9e" d="M.715.644h65.93v65.929H.715z"/></g><g><path fill="#e2cfc5" d="M42.919 19.756c7.65 0 13.852 6.202 13.852 13.852S50.567 47.46 42.917 47.46c-7.65 0-13.852-6.201-13.852-13.852 0-7.65 6.202-13.852 13.852-13.852z"/></g><g><path fill="#b77867" d="M38.498 15.495c10.002 0 18.112 8.11 18.112 18.113S48.5 51.721 38.498 51.721c-3.303 0-6.398-.885-9.065-2.428 5.41-3.133 9.049-8.984 9.049-15.685 0-6.7-3.639-12.55-9.049-15.685a18.042 18.042 0 0 1 9.065-2.427z"/></g><g><path fill="#fff" d="M41.564 18.479c8.355 0 15.129 6.773 15.129 15.129s-6.774 15.13-15.129 15.13c-2.759 0-5.344-.74-7.572-2.029 13.441-5.792 13.534-20.411 0-26.202a15.07 15.07 0 0 1 7.572-2.028z"/></g><g><path fill="#b77867" d="M23.12 34.3c-7.035 2.155-14.708-3.022-14.83-10.806 11.68-2.515 6.684 6.957 14.83 9.406z"/></g><g><path fill="#b77867" d="M23.12 32.916c-7.035-2.154-14.708 3.022-14.83 10.806 11.68 2.514 6.684-6.957 14.83-9.407z"/></g><g><path fill="#fff" d="M24.854 33.608c-3.365 1.668-7.046 1.483-10.083 0 3.037-1.482 6.718-1.667 10.083 0z"/></g><g><path fill="#fff" d="M41.962 22.87c7.13 0 13.413 4.264 17.108 10.738-3.695 6.476-9.977 10.738-17.108 10.738-7.13 0-13.413-4.262-17.108-10.738 3.695-6.474 9.979-10.737 17.108-10.737z"/></g><g><path fill="#f58b43" d="M56.228 37.59c-3.7 4.183-8.728 6.755-14.267 6.755a17.79 17.79 0 0 1-6.27-1.143c3.392-4.097 10.278-6.711 14.249-6.711 3.97 0 4.326.389 6.289 1.099z"/></g><g><path fill="#f58b43" d="M41.962 22.87c5.433 0 10.372 2.476 14.05 6.518-1.943.694-2.32 1.074-6.22 1.074-3.902 0-10.685-2.498-14.076-6.456a17.932 17.932 0 0 1 6.246-1.135z"/></g><g><path fill="#e2cfc5" d="M50.924 33.608c-8.64 4.28-18.087 3.806-25.88 0 7.793-3.806 17.24-4.281 25.88 0z"/></g><g><path fill="#b77867" d="M49.822 30.413a3.195 3.195 0 1 1 0 6.39 3.195 3.195 0 0 1 0-6.39z"/></g><g><path fill="#fff" d="M40.684 33.608a1.685 1.685 0 1 1-3.37 0 1.685 1.685 0 0 1 3.37 0z"/></g><g><path fill="#fff" d="M33.578 33.608a1.195 1.195 0 1 1-2.39.002 1.195 1.195 0 0 1 2.39-.002z"/></g></g></svg>