<svg xmlns="http://www.w3.org/2000/svg" width="67" height="67" viewBox="0 0 67 67"><g><g><path fill="#f7bed7" d="M66.787.715H.859v65.929h65.928z"/></g><g><path fill="#fff" d="M25.362 34.526c-3.235 1.922-4.815 4.946-4.476 7.843-.339 2.897 1.241 5.921 4.476 7.842 3.235 1.922 7.304 2.255 10.667 1.154.338-2.897-1.242-5.92-4.476-7.842a12.443 12.443 0 0 0-2.584-1.154 12.443 12.443 0 0 0 2.584-1.154c3.234-1.92 4.814-4.945 4.476-7.842-3.362-1.1-7.432-.768-10.667 1.153z"/></g><g><path fill="#fff" d="M28.081 17.148c-2.592 1.92-3.857 4.945-3.586 7.842-.27 2.897.994 5.92 3.586 7.843 2.592 1.92 5.852 2.254 8.546 1.153.27-2.897-.994-5.921-3.587-7.842a9.045 9.045 0 0 0-2.069-1.154 9.083 9.083 0 0 0 2.07-1.154c2.592-1.921 3.856-4.945 3.586-7.843-2.694-1.1-5.954-.766-8.546 1.155z"/></g><g><path fill="#fff" d="M54.835 25.378c-2.59 1.92-3.857 4.944-3.586 7.842-.27 2.896.995 5.92 3.586 7.843 2.592 1.92 5.853 2.253 8.545 1.153.272-2.897-.993-5.921-3.585-7.843a9.091 9.091 0 0 0-2.07-1.153 9.096 9.096 0 0 0 2.07-1.154c2.592-1.921 3.857-4.945 3.585-7.842-2.692-1.101-5.953-.77-8.545 1.154z"/></g><g><path fill="#c16163" d="M4.229 33.22c4.694-8.276 13.465-13.847 23.51-13.847 10.044 0 18.816 5.57 23.51 13.847-4.694 8.276-13.466 13.846-23.51 13.846-10.045 0-18.817-5.57-23.51-13.846z"/></g><g><path fill="#fff" d="M13.64 38.559a5.34 5.34 0 1 1 .002-10.68 5.34 5.34 0 0 1-.002 10.68z"/></g><g><path fill="#693939" d="M13.64 36.042a2.823 2.823 0 1 1 0-5.646 2.823 2.823 0 0 1 0 5.646z"/></g><g><path fill="#e2cfc5" d="M60.323 40.704h.011a.533.533 0 0 0 .011-1.064c-3.554-.03-6.43-2.846-6.43-6.42a6.42 6.42 0 0 1 6.42-6.42.533.533 0 1 0 0-1.065 7.485 7.485 0 0 0-.012 14.97z"/></g><g><path fill="#e2cfc5" d="M41.26 38.33c0 1.569-1.27 2.855-2.842 2.842a.286.286 0 0 1-.01-.573c1.266-.05 2.28-.973 2.28-2.268a2.267 2.267 0 0 0-2.223-2.266h-.047a.294.294 0 0 1-.164-.053v-.002l-.004-.003h-.001l-.005-.004-.011-.01-.005-.004-.005-.004a.287.287 0 0 1 .198-.494h.01c1.255-.057 2.258-.98 2.258-2.266a2.267 2.267 0 0 0-2.214-2.267h-.055a.29.29 0 0 1-.186-.07l-.014-.014-.005-.006-.014-.014H38.2l-.007-.011h-.001a.288.288 0 0 1 .23-.459h.012c1.255-.058 2.257-.98 2.257-2.266a2.267 2.267 0 0 0-2.268-2.267.287.287 0 0 1 0-.573 2.84 2.84 0 0 1 2.84 2.84 2.845 2.845 0 0 1-1.59 2.556 2.843 2.843 0 0 1-.002 5.106 2.843 2.843 0 0 1 1.59 2.55zm-4.397 2.555c0 1.567-1.271 2.853-2.844 2.84a.287.287 0 0 1-.008-.572c1.265-.05 2.279-.973 2.279-2.268a2.268 2.268 0 0 0-2.215-2.267h-.054a.288.288 0 0 1-.181-.067l-.005-.003-.02-.02-.005-.004-.004-.005-.004-.006-.01-.011a.286.286 0 0 1 .229-.457h.009c1.257-.057 2.26-.978 2.26-2.267a2.268 2.268 0 0 0-2.213-2.267h-.056a.292.292 0 0 1-.157-.05h-.001l-.005-.004h-.001l-.005-.003-.006-.004v-.001l-.01-.008-.01-.01-.02-.02a.279.279 0 0 1-.07-.187c0-.157.13-.286.288-.286h.009c1.256-.057 2.259-.98 2.259-2.267a2.267 2.267 0 0 0-2.214-2.266h-.055a.286.286 0 0 1-.185-.07h-.001l-.005-.006-.005-.004-.01-.01-.004-.005-.005-.005-.004-.005-.008-.011a.28.28 0 0 1-.058-.172c0-.157.129-.285.287-.285h.009c1.256-.058 2.26-.98 2.26-2.267a2.269 2.269 0 0 0-2.268-2.268.286.286 0 1 1 0-.573 2.84 2.84 0 0 1 2.84 2.84 2.847 2.847 0 0 1-1.59 2.557 2.841 2.841 0 0 1 1.589 2.55 2.85 2.85 0 0 1-1.59 2.557 2.846 2.846 0 0 1-.002 5.106 2.84 2.84 0 0 1 1.59 2.55zm-4.311 2.629c0 1.567-1.271 2.854-2.845 2.84a.287.287 0 0 1-.008-.573c1.265-.048 2.279-.972 2.279-2.267a2.267 2.267 0 0 0-2.214-2.267h-.055a.285.285 0 0 1-.186-.07l-.005-.005-.005-.004-.005-.006-.005-.005-.005-.004-.004-.005-.012-.016h-.001a.287.287 0 0 1 .23-.458h.009c1.256-.058 2.26-.98 2.26-2.267a2.269 2.269 0 0 0-2.268-2.268.287.287 0 0 1-.23-.113.287.287 0 0 1 .133-.534c1.267-.048 2.28-.973 2.28-2.267a2.27 2.27 0 0 0-1.784-2.216c-.13.018-.264.026-.4.025a.286.286 0 0 1-.227-.115.287.287 0 0 1 .144-.534c.153 0 .303.012.45.036 1.085-.2 1.904-1.063 1.904-2.227a2.268 2.268 0 0 0-2.215-2.267h-.054a.287.287 0 0 1-.181-.066l-.005-.004-.015-.015-.005-.004-.005-.005-.004-.006-.004-.005h-.001a.285.285 0 0 1 .222-.467h.009c1.256-.06 2.259-.98 2.259-2.267a2.268 2.268 0 0 0-2.267-2.268.286.286 0 1 1 0-.573 2.84 2.84 0 0 1 2.839 2.84 2.847 2.847 0 0 1-1.59 2.557 2.84 2.84 0 0 1 1.589 2.55 2.848 2.848 0 0 1-1.56 2.54 2.845 2.845 0 0 1-.156 5.064 2.843 2.843 0 0 1 1.715 2.609 2.85 2.85 0 0 1-1.592 2.557 2.839 2.839 0 0 1 1.59 2.55zm-4.482-2.63c0 1.568-1.271 2.854-2.844 2.84a.287.287 0 0 1-.008-.571c1.266-.05 2.279-.973 2.279-2.268a2.267 2.267 0 0 0-2.214-2.267h-.055a.289.289 0 0 1-.175-.062l-.011-.008-.015-.015-.004-.005-.01-.01-.004-.005a.287.287 0 0 1 .221-.468h.01c1.255-.06 2.259-.98 2.259-2.267a2.27 2.27 0 0 0-2.21-2.267h-.06a.288.288 0 0 1-.186-.07l-.005-.005-.004-.005h-.001l-.004-.005-.005-.004-.005-.005-.005-.006-.003-.005h-.001l-.008-.01H25a.287.287 0 0 1 .23-.458h.01c1.256-.057 2.259-.98 2.259-2.267a2.267 2.267 0 0 0-2.215-2.266h-.055a.288.288 0 0 1-.185-.07h-.001l-.004-.006-.006-.004-.004-.005-.01-.01-.008-.01h-.001l-.008-.011h-.001a.286.286 0 0 1 .23-.457h.01c1.256-.058 2.259-.98 2.259-2.267a2.268 2.268 0 0 0-2.267-2.268.286.286 0 1 1 0-.573 2.84 2.84 0 0 1 2.84 2.84 2.848 2.848 0 0 1-1.591 2.557 2.848 2.848 0 0 1-.001 5.107 2.846 2.846 0 0 1-.002 5.106 2.84 2.84 0 0 1 1.59 2.55zm17.588-5.106c0 1.567-1.271 2.854-2.843 2.84a.286.286 0 0 1-.01-.572c1.267-.05 2.28-.973 2.28-2.268a2.27 2.27 0 0 0-2.215-2.267h-.054a.28.28 0 0 1-.164-.054l-.011-.007-.001-.001-.01-.008-.01-.01-.005-.004v-.001l-.005-.004-.005-.005-.004-.006-.013-.015a.287.287 0 0 1 .23-.458h.009c1.256-.057 2.26-.98 2.26-2.267a2.267 2.267 0 0 0-2.268-2.267.286.286 0 1 1 0-.572 2.84 2.84 0 0 1 2.84 2.839 2.849 2.849 0 0 1-1.591 2.557 2.84 2.84 0 0 1 1.59 2.55z"/></g></g></svg>