<svg xmlns="http://www.w3.org/2000/svg" width="67" height="67" viewBox="0 0 67 67"><g><g><path fill="#53a2b4" d="M66.787.644H.859v65.929h65.928z"/></g><g><path fill="#fff" d="M34.52 23.347a4.058 4.058 0 0 0 .088 5.718c.934.905 1.849 1.83 2.8 2.718 2.257 2.102 5.515 2.458 8.185 1.254v-6.582a8.959 8.959 0 0 1-4.49-2.357l-.866-.84a4.056 4.056 0 0 0-5.717.089z"/></g><g><path fill="#fff" d="M34.52 46.912a4.057 4.057 0 0 1 .088-5.717c.934-.905 1.849-1.83 2.8-2.718 2.257-2.102 5.515-2.459 8.185-1.254v6.582a8.957 8.957 0 0 0-4.49 2.356l-.866.84a4.055 4.055 0 0 1-5.717-.089z"/></g><g><path fill="#ffce8a" d="M10.467 35.13a4.115 4.115 0 0 1 2.539-7.354c1.065 0 2.048.426 2.835 1.132 1.712 1.538 3.615 2.5 5.944 2.563 2.43.063 4.944-.861 7.168-1.754 2.734-1.098 5.39-2.31 8.262-3.026 3.291-.822 6.47-.886 9.732.123 4.388 1.354 8.146 4.419 11.245 7.716l.563.6-.563.6c-3.099 3.299-6.859 6.363-11.247 7.717-3.266 1.008-6.444.942-9.737.12-2.872-.717-5.529-1.928-8.263-3.028-2.224-.893-4.739-1.816-7.167-1.751-2.324.063-4.223 1.024-5.93 2.558-.789.708-1.774 1.139-2.842 1.139a4.115 4.115 0 0 1-2.539-7.355z"/></g><g><path fill="#fff" d="M46.105 29.877a5.253 5.253 0 1 1 0 10.506 5.253 5.253 0 0 1 0-10.507z"/></g><g><path fill="#fff" d="M46.631 33.151l-8.708-1.96a.367.367 0 0 0-.44.253.356.356 0 0 0 .253.441l8.708 1.961a.366.366 0 0 0 .441-.254.357.357 0 0 0-.254-.44z"/></g><g><path fill="#fff" d="M37.737 38.374l8.708-1.961a.366.366 0 0 1 .44.254c.052.191-.061.398-.253.441l-8.71 1.961a.365.365 0 0 1-.44-.255c-.05-.19.062-.397.255-.44z"/></g><g><path fill="#fff" d="M37.482 30.203a1.242 1.242 0 1 1 .002 2.484 1.242 1.242 0 0 1-.002-2.484z"/></g><g><path fill="#fff" d="M37.482 37.572a1.242 1.242 0 1 1 .002 2.485 1.242 1.242 0 0 1-.002-2.485z"/></g><g><path fill="#b77867" d="M46.105 32.503a2.627 2.627 0 1 1 .001 5.254 2.627 2.627 0 0 1 0-5.254z"/></g><g><path fill="#fff" d="M40.84 34.77H17.789a.36.36 0 0 0 0 .72h23.05a5.388 5.388 0 0 1 0-.72z"/></g></g></svg>