<svg xmlns="http://www.w3.org/2000/svg" width="67" height="67" viewBox="0 0 67 67"><g><g><path fill="#fcecf3" d="M66.645.715H.715v65.928h65.93z"/></g><g><path fill="#f58b43" d="M37.066 19.811h.001a4.552 4.552 0 0 1 4.54 4.539v18.66a4.554 4.554 0 0 1-4.54 4.539 4.552 4.552 0 0 1-4.54-4.539V24.35a4.552 4.552 0 0 1 4.54-4.539z"/></g><g><path fill="#a15641" d="M57.803 33.68C40.306 9.954 29.229 31.895 18.36 29.746v7.866c10.872-2.152 21.944 19.793 39.442-3.934z"/></g><g><path fill="#cba497" d="M57.803 33.68c-17.497-18.626-28.574-1.4-39.442-3.087v6.174c10.872-1.688 21.944 15.54 39.442-3.088z"/></g><g><path fill="#f58b43" d="M9.873 41.727a2.79 2.79 0 0 1 .492-3.26c1.38-1.378 3.119-2.656 3.119-4.786 0-2.132-1.739-3.411-3.119-4.788a2.792 2.792 0 0 1-.282-3.6c.168-.231.376-.44.606-.607a2.79 2.79 0 0 1 3.606.277l6.836 6.839c1.012 1.012 1.016 2.738.006 3.75l-6.841 6.845c-.872.873-2.199 1.02-3.248.487a2.668 2.668 0 0 1-1.175-1.156z"/></g><g><path fill="#fff" d="M40.078 37.896h-.831v-8.237h.831z"/></g><g><path fill="#ffe9ce" d="M41.097 29.66a1.435 1.435 0 1 1-2.87 0 1.435 1.435 0 0 1 2.87 0z"/></g><g><path fill="#ffe9ce" d="M41.097 37.896a1.436 1.436 0 1 1-2.872 0 1.436 1.436 0 0 1 2.872 0z"/></g><g><path fill="#fff" d="M36.524 37.896h-.831v-8.237h.831z"/></g><g><path fill="#ffe9ce" d="M37.545 29.66a1.437 1.437 0 1 1-2.874-.002 1.437 1.437 0 0 1 2.874.001z"/></g><g><path fill="#ffe9ce" d="M37.545 37.896a1.436 1.436 0 1 1-2.87 0 1.436 1.436 0 0 1 2.87 0z"/></g><g><path fill="#ffe9ce" d="M33.991 29.66a1.437 1.437 0 1 1-2.871-.002 1.437 1.437 0 0 1 2.87.001z"/></g><g><path fill="#ffe9ce" d="M33.991 37.896a1.437 1.437 0 1 1-1.436-1.436c.792 0 1.435.644 1.435 1.436z"/></g><g><path fill="#fff" d="M43.017 34.329H18.361v-1.102h24.656z"/></g><g><path fill="#fff" d="M49.881 35.754v1.37a2.08 2.08 0 0 1-2.074 2.075 2.081 2.081 0 0 1-2.075-2.075v-1.37h-1.37a2.08 2.08 0 0 1-2.075-2.074 2.08 2.08 0 0 1 2.075-2.074h1.37v-1.37c0-1.141.934-2.075 2.075-2.075a2.08 2.08 0 0 1 2.074 2.075v1.37h1.369a2.08 2.08 0 0 1 2.075 2.074 2.08 2.08 0 0 1-2.075 2.074zm-3.721-.427h3.292v-3.293H46.16z"/></g><g><path fill="#945a5d" d="M50.239 33.68a2.432 2.432 0 1 1-4.865 0 2.432 2.432 0 0 1 4.865 0z"/></g><g><path fill="#ffe9ce" d="M17.178 35.722a1.944 1.944 0 1 1 0-3.89 1.944 1.944 0 1 1 0 3.89z"/></g></g></svg>