<svg xmlns="http://www.w3.org/2000/svg" width="13" height="5.5" viewBox="0 0 26 11"><g><g><path fill="#d0d2d3" d="M5.588 6.657c11.313-1.77 4.123 10.684 0 0"/></g><g><path fill="#d0d2d3" d="M5.588 4.433c11.313 1.772 4.123-10.683 0 0"/></g><g><path fill="#a6a8ab" d="M22.32 7.827l.84 1.457c.4.691 1.293.93 1.984.531.69-.398.93-1.292.53-1.982-1.556-2.696-1.556-1.879 0-4.576.4-.69.162-1.583-.53-1.983a1.459 1.459 0 0 0-1.983.532l-.84 1.457C19.324 8.451 11.62-3.924-.115 5.546 11.62 15.014 19.324 2.638 22.32 7.827z"/></g><g><path fill="#fff" d="M5.517 8.25a2.704 2.704 0 1 0-.001-5.409 2.704 2.704 0 0 0 0 5.409z"/></g><g><path fill="#6d6e70" d="M5.517 7.046a1.5 1.5 0 1 0-.001-3.001 1.5 1.5 0 0 0 0 3z"/></g></g></svg>