<?xml version="1.0" encoding="utf-8"?>
<!-- Generator: Adobe Illustrator 23.0.3, SVG Export Plug-In . SVG Version: 6.00 Build 0)  -->
<svg version="1.1" id="Layer_1" xmlns="http://www.w3.org/2000/svg" xmlns:xlink="http://www.w3.org/1999/xlink" x="0px" y="0px"
	 viewBox="0 0 62 62" style="enable-background:new 0 0 62 62;" xml:space="preserve">
<style type="text/css">
	.st0{fill:#71C6EF;}
	.st1{fill:#FFFFFF;}
	.st2{fill:#89C763;}
	.st3{fill:#ED1B31;}
	.st4{fill:#F3A0B7;}
	.st5{fill:#FFC548;}
	.st6{fill:#F36F34;}
</style>
<g>
	<circle class="st4" cx="27" cy="36" r="19"/>
</g>
<g>
	<circle class="st1" cx="40" cy="6" r="1"/>
</g>
<g>
	<g>
		<circle class="st1" cx="41" cy="5" r="4"/>
		<path d="M42,1h-1c0.35,0,0.68,0.06,1,0.14V1z"/>
	</g>
	<g>
		<circle cx="41" cy="5" r="2"/>
	</g>
	<g>
		<circle class="st1" cx="39.89" cy="4" r="1"/>
	</g>
	<g>
		<circle class="st1" cx="41.39" cy="5.5" r="0.5"/>
	</g>
</g>
<g>
	<polygon class="st1" points="48,8 44,8 44,12 46,14 50,10 	"/>
</g>
<g>
	<path d="M36.47,10.64c-0.62-0.62-0.97-1.45-0.97-2.34c0-0.97,0.42-1.83,1.09-2.43C37,7.94,38.82,9.5,41,9.5
		c0.16,0,0.3-0.03,0.45-0.05L44,12V8h4l-2.55-2.55C45.47,5.3,45.5,5.16,45.5,5c0-2.48-2.02-4.5-4.5-4.5c-0.73,0-1.41,0.19-2.02,0.5
		H38.8c-4.03,0-7.3,3.28-7.3,7.3c0,1.95,0.76,3.78,2.14,5.16l12.29,12.29c0.69,0.69,1.07,1.61,1.07,2.59c0,2.02-1.64,3.66-3.66,3.66
		h-0.87C40.7,25.1,34.45,20,27,20c-8.84,0-16,7.16-16,16v4h1c0-2.21,1.79-4,4-4h8c1.03,0,1.93,0.52,2.47,1.31l-6.44,9.19H27V60h-2v1
		h2h1h2v-1h-2V46.5h5V49h1v-2.5V46v-0.5h-6V39c0-1.66,1.34-3,3-3h9h3h0.34c4.22,0,7.66-3.43,7.66-7.66c0-2.05-0.8-3.97-2.24-5.41
		L36.47,10.64z M41,1.5c1.93,0,3.5,1.57,3.5,3.5S42.93,8.5,41,8.5S37.5,6.93,37.5,5S39.07,1.5,41,1.5z M27,45.5h-5.04l4.98-7.11
		C26.98,38.59,27,38.79,27,39V45.5z"/>
	<path d="M50,18c2.21-2.21,2.21-5.79,0-8l-4,4L50,18z"/>
</g>
</svg>
