<svg xmlns="http://www.w3.org/2000/svg" width="67" height="67" viewBox="0 0 67 67"><g><g><path fill="#ffe9ce" d="M66.572.788H.645v65.928h65.927z"/></g><g><path fill="#e2cfc5" d="M48.108 32.346a6.658 6.658 0 1 1 9.096 2.437l-14.851 8.574-1.643-2.845 14.852-8.575a3.373 3.373 0 1 0-4.61-1.234l.137.236a1.643 1.643 0 0 1-2.845 1.643z"/></g><g><path fill="#a16859" d="M48.108 32.346a6.623 6.623 0 0 1-.737-1.9l3.143-1.126c.042.473.185.944.439 1.383l.136.236a1.643 1.643 0 0 1-2.845 1.643z"/></g><g><path fill="#cba497" d="M52.879 47.65v2.548a1.75 1.75 0 0 1-1.746 1.744 1.749 1.749 0 0 1-1.743-1.744V47.65a1.75 1.75 0 0 0-1.744-1.744c-.96 0-1.746.785-1.746 1.745v2.521a1.75 1.75 0 0 1-1.743 1.745 1.75 1.75 0 0 1-1.745-1.745v-2.548a1.75 1.75 0 0 0-1.743-1.745c-2.342 0-4.068.027-6.977.027a1.75 1.75 0 0 0-1.745 1.745v2.521a1.75 1.75 0 0 1-1.746 1.745 1.75 1.75 0 0 1-1.743-1.745v-2.548a1.75 1.75 0 0 0-1.746-1.745c-.958 0-1.742.786-1.742 1.744v2.549a1.75 1.75 0 0 1-1.746 1.745 1.75 1.75 0 0 1-1.743-1.745v-2.533c.005-8.63 7.07-15.69 15.7-15.69 8.639 0 15.698 7.065 15.698 15.702z"/></g><g><path fill="#f58b43" d="M10.6 15.56a9.92 9.92 0 0 1 8.584 4.967 9.922 9.922 0 0 1 .01 9.918 9.92 9.92 0 0 1-8.584-4.967 9.922 9.922 0 0 1-.01-9.918z"/></g><g><path fill="#f58b43" d="M36.283 15.56a9.923 9.923 0 0 0-8.585 4.967 9.912 9.912 0 0 0-.008 9.918 9.924 9.924 0 0 0 8.584-4.966 9.924 9.924 0 0 0 .01-9.919z"/></g><g><path fill="#fff" d="M12.243 28.749v1.884a4.15 4.15 0 0 0 4.137 4.138 4.148 4.148 0 0 1 4.137 4.137v1.884c0 1.14.932 2.072 2.07 2.072h1.709a2.079 2.079 0 0 0 2.072-2.072v-1.884a4.147 4.147 0 0 1 4.136-4.137 4.151 4.151 0 0 0 4.138-4.138v-1.884a4.15 4.15 0 0 0-4.138-4.137H16.38a4.148 4.148 0 0 0-4.137 4.137z"/></g><g><path fill="#693939" d="M18.773 25.186a4.237 4.237 0 1 1-.002 8.476 4.237 4.237 0 0 1 .002-8.477z"/></g><g><path fill="#cba497" d="M18.773 25.186c.054 0 .108 0 .163.003v3.729L21.13 25.9c.091.06.18.125.264.193l-2.19 3.017 3.547-1.153c.038.102.072.207.101.312l-3.547 1.153 3.547 1.153c-.029.106-.064.21-.1.31l-3.549-1.151 2.191 3.017a3.88 3.88 0 0 1-.264.192l-2.193-3.017v3.73c-.055.002-.109.004-.163.004-.053 0-.11-.003-.165-.005v-3.728l-2.19 3.017a3.703 3.703 0 0 1-.267-.193l2.193-3.017-3.549 1.152a4.031 4.031 0 0 1-.1-.311l3.548-1.153-3.549-1.153c.03-.105.063-.21.101-.312l3.55 1.153-2.194-3.018c.087-.067.173-.131.267-.192l2.19 3.018v-3.73c.054-.002.112-.003.165-.003z"/></g><g><path fill="#693939" d="M28.11 25.186a4.238 4.238 0 1 1-.001 8.475 4.238 4.238 0 0 1 0-8.476z"/></g><g><path fill="#cba497" d="M28.11 25.186c.054 0 .108 0 .163.003v3.729l2.193-3.017c.09.06.179.125.264.193l-2.191 3.017 3.549-1.153c.036.102.07.207.099.312l-3.548 1.153 3.548 1.153a4.02 4.02 0 0 1-.1.31l-3.548-1.151 2.19 3.017a3.665 3.665 0 0 1-.264.192l-2.192-3.017v3.73c-.055.002-.11.004-.163.004-.054 0-.11-.003-.164-.005v-3.728l-2.194 3.017a4.826 4.826 0 0 1-.265-.193l2.194-3.017-3.55 1.152a4.523 4.523 0 0 1-.101-.311l3.548-1.153-3.547-1.153c.03-.105.063-.21.1-.312l3.55 1.153-2.194-3.017c.088-.068.174-.132.267-.193l2.192 3.018v-3.73c.054-.002.11-.003.164-.003z"/></g><g><path fill="#fff" d="M28.11 28.149a1.274 1.274 0 1 1 0 2.548 1.274 1.274 0 0 1 0-2.548z"/></g><g><path fill="#fff" d="M18.773 28.149a1.274 1.274 0 1 1 0 2.548 1.274 1.274 0 0 1 0-2.548z"/></g><g><path fill="#b77867" d="M34.355 35.822a1.683 1.683 0 1 1 0 3.366 1.683 1.683 0 0 1 0-3.366z"/></g><g><path fill="#b77867" d="M41.215 35.822a1.684 1.684 0 1 1 0 3.368 1.684 1.684 0 0 1 0-3.368z"/></g><g><path fill="#b77867" d="M30.862 40.626a1.685 1.685 0 1 1 .002 3.37 1.685 1.685 0 0 1-.002-3.37z"/></g><g><path fill="#b77867" d="M37.785 40.626a1.684 1.684 0 1 1-1.683 1.684c0-.931.754-1.684 1.683-1.684z"/></g><g><path fill="#b77867" d="M44.708 40.626a1.683 1.683 0 1 1-1.685 1.684c0-.931.754-1.684 1.685-1.684z"/></g><g><path fill="#a15641" d="M21.48 48.629v1.543a1.75 1.75 0 0 0 1.744 1.745 1.75 1.75 0 0 0 1.746-1.745v-1.543zm1.744 3.288zm5.234-3.288v1.543a1.75 1.75 0 0 0 1.743 1.745 1.75 1.75 0 0 0 1.746-1.745v-1.543zm13.954 0v1.543a1.75 1.75 0 0 0 1.745 1.745 1.75 1.75 0 0 0 1.743-1.745v-1.543zm6.978 0v1.57a1.75 1.75 0 0 0 1.743 1.744 1.75 1.75 0 0 0 1.746-1.745v-1.57z"/></g></g></svg>