<svg xmlns="http://www.w3.org/2000/svg" width="67" height="67" viewBox="0 0 67 67"><g><g><path fill="#fcecf3" d="M.645.644h65.927v65.929H.645z"/></g><g><path fill="#fdc574" d="M33.024 62.014v-1.586c0-4.95 4.052-9.001 9.003-9.001 4.951 0 9.003 4.05 9.003 9v1.587h1.898V52.51c0-5.996-4.906-10.9-10.9-10.9l-12.76-23.787-2.414 1.612.002.028a267.236 267.236 0 0 1 4.224 42.55z"/></g><g><path fill="#dc8254" d="M31.693 26.32a1.543 1.543 0 1 1-3.086.001 1.543 1.543 0 0 1 3.086-.001zm3.888 6.417a1.542 1.542 0 1 1-3.087.001 1.542 1.542 0 0 1 3.087-.001zm-1.926-3.086a1.544 1.544 0 1 1-3.088 0 1.544 1.544 0 0 1 3.088 0zm1.926 9.502a1.543 1.543 0 1 1 0 0zm3.89 0a1.543 1.543 0 1 1-3.088.002 1.543 1.543 0 0 1 3.088-.002zm-5.816-3.086a1.544 1.544 0 1 1-3.088 0 1.544 1.544 0 0 1 3.088 0zm3.89 0a1.543 1.543 0 1 1-3.087.001 1.543 1.543 0 0 1 3.086-.001zM35.58 45.57a1.543 1.543 0 1 1-3.086 0 1.543 1.543 0 0 1 3.086 0zm3.89 0a1.543 1.543 0 1 1-3.088 0 1.543 1.543 0 0 1 3.088 0zm3.886 0a1.542 1.542 0 1 1-3.086 0 1.542 1.542 0 1 1 3.086 0zm3.89 0a1.544 1.544 0 1 1-3.085-.001 1.544 1.544 0 0 1 3.085 0zm-13.592-3.087a1.543 1.543 0 1 1-3.086 0 1.543 1.543 0 0 1 3.086 0zm3.89 0a1.543 1.543 0 1 1-3.086.003 1.543 1.543 0 0 1 3.085-.003zm3.888 0a1.543 1.543 0 1 1-3.086.001 1.543 1.543 0 0 1 3.086-.001zm-5.852 9.502a1.542 1.542 0 1 1-1.544-1.542c.851 0 1.544.69 1.544 1.542zm15.555 0a1.544 1.544 0 1 1-3.087 0 1.544 1.544 0 0 1 3.087 0zM33.656 48.9a1.543 1.543 0 1 1-3.087 0 1.543 1.543 0 0 1 3.086 0zm3.888 0a1.542 1.542 0 1 1-3.084.001 1.542 1.542 0 0 1 3.084-.001zm3.89 0a1.543 1.543 0 1 1-3.087 0 1.543 1.543 0 0 1 3.086 0zm3.888 0a1.544 1.544 0 0 1-3.087 0 1.543 1.543 0 0 1 3.087 0zm3.888 0a1.542 1.542 0 1 1-3.085 0 1.543 1.543 0 0 1 3.085 0zm-18.27 8.177a1.541 1.541 0 0 1 .085 2.596c-.024-.867-.052-1.731-.085-2.596zm-.11-2.62v.002zm0 .002a1.542 1.542 0 1 1 .08 1.823c-.026-.609-.05-1.216-.08-1.823zm-.216-3.945a1.545 1.545 0 0 1 1.08 1.47c0 .63-.376 1.172-.918 1.41-.048-.96-.103-1.922-.162-2.88zm-.482-6.488zm0 0h.016a1.543 1.543 0 0 1 .232 3.069 239.62 239.62 0 0 0-.248-3.068zm-.617-6.281a1.543 1.543 0 1 1 .305 2.916c-.096-.973-.197-1.945-.305-2.916zm-.334-2.888zm0 0a1.543 1.543 0 0 1 .255 2.166c-.083-.722-.166-1.445-.254-2.165zm-.366-2.895a1.543 1.543 0 1 1 .238 1.862c-.078-.621-.157-1.242-.238-1.862zm-.54-3.853a1.545 1.545 0 0 1 1.493 1.542c0 .685-.449 1.267-1.067 1.468a269.003 269.003 0 0 0-.427-3.01zm-.974-6.112a1.545 1.545 0 1 1 .45 2.707c-.145-.904-.296-1.806-.45-2.707zm.21-3a1.544 1.544 0 0 1-.355 2.163c-.098-.566-.199-1.131-.3-1.696l-.002-.028zm1.803-1.087c-.216.217-.499.37-.815.427l.768-.513.048.086zm1.741 3.244a1.543 1.543 0 1 1-1.447-2.696zm1.832 3.416a1.543 1.543 0 0 1-1.46-2.719zm1.711 3.189a1.543 1.543 0 0 1-1.448-2.7zm1.813 3.38a1.541 1.541 0 0 1-1.953-1.488c0-.464.205-.881.528-1.164l1.426 2.652zm1.678 3.133a1.542 1.542 0 0 1-1.351-2.52zm1.792 3.338a1.543 1.543 0 0 1-1.28-2.39zm1.64 3.058a1.545 1.545 0 0 1-1.13-2.11zm3.755 1.44a1.544 1.544 0 1 1-2.778-.487c.963.042 1.894.209 2.778.488zm3.243 1.662a1.543 1.543 0 0 1-2.394-1.287v-.067c.857.35 1.662.807 2.394 1.354zm2.441 2.515a1.544 1.544 0 1 1-1.965-2.14 11.119 11.119 0 0 1 1.965 2.14zm1.673 3.719a1.544 1.544 0 1 1-1.078-2.647h.068c.445.825.788 1.714 1.01 2.647zm.294 3.422a1.543 1.543 0 0 1-.166-2.806c.11.615.167 1.245.167 1.89v.916zm0 2.598a1.543 1.543 0 1 1 .001-1.417v1.417zm0 3.819a1.543 1.543 0 0 1 .001-2.882v2.882zm-1.899.439a1.546 1.546 0 0 1 1.9.743v.989H51.03v-1.586l-.002-.146zm-.653-3.208a1.538 1.538 0 0 1 .565 2.083 8.768 8.768 0 0 0-.565-2.083zm-2.215-3.221c.501.17.89.592 1.011 1.115a9.217 9.217 0 0 0-1.01-1.115zm-3.97-2.161a1.544 1.544 0 1 1 2.757 1.208 8.943 8.943 0 0 0-2.757-1.208zm-3.866-.102a1.54 1.54 0 0 1 1.492-1.147c.687 0 1.27.45 1.47 1.073a8.988 8.988 0 0 0-2.962.074zm-3.483 1.492a1.542 1.542 0 0 1 1.085-2.639c.79 0 1.443.594 1.534 1.359a9.023 9.023 0 0 0-2.619 1.28zm-2.367 2.464a1.543 1.543 0 0 1 1.508-1.773 9.14 9.14 0 0 0-1.508 1.773zm-1.41 4.053a1.542 1.542 0 0 1 .692-2.714 8.966 8.966 0 0 0-.692 2.714zm-1.984 2.415c-.009-.468-.02-.934-.032-1.4a1.535 1.535 0 0 1 1.064-.425c.341 0 .657.11.912.299v1.526z"/></g><g><path fill="#a15641" d="M20.28 6.716l1.524-.208 1.032 7.577-1.521.208z"/></g><g><path fill="#f58b43" d="M20.85 5.217a1.409 1.409 0 1 1 .383 2.792 1.409 1.409 0 0 1-.382-2.792z"/></g><g><path fill="#a15641" d="M27.222 6.716l-1.523-.208-1.036 7.577 1.525.208z"/></g><g><path fill="#f58b43" d="M26.65 5.217a1.408 1.408 0 1 0-.382 2.79 1.408 1.408 0 0 0 .381-2.79z"/></g><g><path fill="#a15641" d="M19.577 16.709a5.43 5.43 0 0 1-3.695-1.592 5.428 5.428 0 0 1-1.594-3.696 5.425 5.425 0 0 1 3.693 1.594 5.437 5.437 0 0 1 1.596 3.693z"/></g><g><path fill="#a15641" d="M33.213 11.422a5.433 5.433 0 0 0-3.695 1.593 5.423 5.423 0 0 0-1.594 3.694 5.427 5.427 0 0 0 3.695-1.593 5.439 5.439 0 0 0 1.594-3.694z"/></g><g><path fill="#f58b43" d="M18.688 19.962l3.717 8.222c.5 1.108 2.19 1.108 2.691 0l3.717-8.222c.5-1.107.739-2.353 0-3.244l-3.717-4.483c-.741-.893-1.952-.893-2.691 0l-3.717 4.482c-.741.892-.501 2.137 0 3.245z"/></g><g><path fill="#a15641" d="M21.309 28.524l1.792-3.288c.244-.442 1.058-.442 1.298 0l1.792 3.288c.243.443.357.94 0 1.297l-1.792 1.792a.919.919 0 0 1-1.298 0l-1.792-1.792c-.357-.357-.241-.854 0-1.297z"/></g><g><path fill="#231f20" d="M21.191 17.048a1.199 1.199 0 1 1 0 2.398 1.199 1.199 0 0 1 0-2.398z"/></g><g><path fill="#231f20" d="M26.309 17.048a1.199 1.199 0 1 1 0 2.398 1.199 1.199 0 0 1 0-2.398z"/></g></g></svg>