<svg xmlns="http://www.w3.org/2000/svg" width="8.5" height="13.5" viewBox="0 0 17 27"><g><g><path fill="#fbd2c0" d="M7.426 26.569v-.723a4.113 4.113 0 0 1 4.101-4.1 4.113 4.113 0 0 1 4.101 4.1v.723h.863v-4.33c0-2.73-2.234-4.962-4.964-4.962L5.717 6.442l-1.1.735v.013a121.525 121.525 0 0 1 1.924 19.379z"/></g><g><path fill="#e97873" d="M6.82 10.312a.703.703 0 1 1-1.406 0 .703.703 0 0 1 1.406 0zm1.771 2.923a.703.703 0 1 1-1.405-.002.703.703 0 0 1 1.405.002zm-.877-1.407a.704.704 0 1 1-1.407 0 .704.704 0 0 1 1.407 0zm.877 4.329a.704.704 0 1 1-1.407-.001.704.704 0 0 1 1.407 0zm1.772 0a.704.704 0 0 1-1.406 0 .702.702 0 1 1 1.406 0zm-2.649-1.405a.702.702 0 1 1-1.405-.001.702.702 0 0 1 1.405 0zm1.771 0a.702.702 0 1 1-1.405 0 .702.702 0 1 1 1.405 0zm-.894 4.327a.704.704 0 1 1-1.407-.001.704.704 0 0 1 1.407 0zm1.772 0a.704.704 0 0 1-1.406 0 .703.703 0 0 1 1.406 0zm1.77 0a.703.703 0 1 1-1.406 0 .703.703 0 0 1 1.406 0zm1.771 0a.703.703 0 1 1-1.406 0 .703.703 0 0 1 1.406 0zm-6.19-1.405a.702.702 0 1 1-1.405-.001.702.702 0 0 1 1.405 0zm1.771 0a.702.702 0 1 1-1.405 0 .704.704 0 1 1 1.405 0zm1.771 0a.702.702 0 1 1-1.406 0 .704.704 0 0 1 1.406 0zM8.591 22a.704.704 0 1 1-1.407 0 .704.704 0 0 1 1.407 0zm7.084 0a.703.703 0 1 1-1.406.002.703.703 0 0 1 1.406-.002zm-7.96-1.405a.702.702 0 1 1-1.406-.001.702.702 0 0 1 1.405 0zm1.77 0a.702.702 0 1 1-1.403 0 .702.702 0 0 1 1.403 0zm1.771 0a.702.702 0 1 1-1.403 0 .702.702 0 0 1 1.403 0zm1.772 0a.703.703 0 1 1-1.405-.002.703.703 0 0 1 1.405.002zm1.77 0a.702.702 0 1 1-1.403 0 .702.702 0 0 1 1.403 0zm-8.32 3.724zm0 0a.703.703 0 0 1 .038 1.183c-.012-.395-.024-.788-.038-1.183zm-.05-1.192a.703.703 0 1 1 .035.83c-.012-.276-.023-.555-.036-.83zm-.099-1.797a.703.703 0 0 1 .074 1.313c-.022-.44-.047-.876-.074-1.313zm-.22-2.955h.008a.704.704 0 0 1 .106 1.398 127.44 127.44 0 0 0-.114-1.398zm-.28-2.86a.703.703 0 1 1 .139 1.327 145.36 145.36 0 0 0-.139-1.327zM5.676 14.2a.702.702 0 0 1 .117.987c-.039-.33-.076-.66-.117-.987zm-.167-1.318a.702.702 0 0 1 1.311.353.702.702 0 0 1-1.203.495c-.035-.284-.07-.566-.108-.848zm-.246-1.756a.705.705 0 0 1 .194 1.372 90.512 90.512 0 0 0-.194-1.372zM4.82 8.343a.704.704 0 0 1 1.124.563.704.704 0 0 1-.919.669c-.066-.411-.135-.822-.205-1.232zm.095-1.366zm0 0a.707.707 0 0 1-.16.986 136.21 136.21 0 0 0-.138-.773v-.013zm.822-.495a.699.699 0 0 1-.372.194l.351-.234zM6.53 7.96a.704.704 0 1 1-.659-1.228zm.834 1.555A.703.703 0 0 1 6.7 8.277zm.78 1.453a.703.703 0 0 1-.659-1.23l.658 1.229zm.825 1.539a.703.703 0 0 1-.648-1.208zm.764 1.427a.702.702 0 0 1-.615-1.149zm.817 1.52a.704.704 0 0 1-.584-1.09zm.747 1.393a.703.703 0 0 1-.516-.961zm1.71.656a.703.703 0 1 1-1.266-.222c.438.019.863.096 1.266.222zm1.476.756a.702.702 0 0 1-1.09-.585v-.032c.39.16.757.368 1.09.617zm1.112 1.146a.704.704 0 1 1-.895-.975c.34.285.642.612.895.975zm.763 1.693a.702.702 0 1 1-.461-1.204c.203.375.36.78.461 1.204zm.133 1.559a.703.703 0 0 1-.076-1.277c.05.279.076.567.076.86zm0 1.184a.702.702 0 1 1 0-.646zm0 1.739a.704.704 0 0 1 0-1.313zm-.865.2a.703.703 0 0 1 .865.338v.45h-.863v-.722l-.002-.066zm-.297-1.461a.7.7 0 0 1 .257.948 4.071 4.071 0 0 0-.257-.948zm-1.009-1.467a.703.703 0 0 1 .46.508 4.105 4.105 0 0 0-.46-.508zm-1.809-.985a.704.704 0 1 1 1.257.55 4.096 4.096 0 0 0-1.257-.55zm-1.76-.046a.702.702 0 0 1 1.35-.033 4.133 4.133 0 0 0-1.349.033zm-1.586.68a.702.702 0 1 1 1.193-.583 4.073 4.073 0 0 0-1.193.583zm-1.078 1.122a.702.702 0 0 1 .687-.807 4.146 4.146 0 0 0-.687.807zm-.643 1.846a.703.703 0 0 1 .316-1.235c-.167.384-.275.8-.316 1.235zm-.903 1.1l-.014-.638a.7.7 0 0 1 .9-.057v.695z"/></g><g><path fill="#f05d5c" d="M3.69.77a.66.66 0 1 1-.165 1.31A.66.66 0 0 1 3.69.77z"/></g><g><path fill="#b95453" d="M6.397 2.224l-.666-.28-1.39 3.31.666.28z"/></g><g><path fill="#f05d5c" d="M6.32 1.474a.662.662 0 1 0-.512 1.22.662.662 0 0 0 .512-1.22z"/></g><g><path fill="#b95453" d="M1.715 5.826A2.541 2.541 0 0 1 .233 4.655a2.55 2.55 0 0 1-.274-1.87 2.545 2.545 0 0 1 1.482 1.172c.34.589.42 1.256.274 1.869z"/></g><g><path fill="#b95453" d="M8.542 5.086a2.549 2.549 0 0 0-1.87.273 2.55 2.55 0 0 0-1.171 1.48 2.552 2.552 0 0 0 3.041-1.753z"/></g><g><path fill="#f7aaac" d="M.917 7.194l.687 4.18c.092.563.857.768 1.22.327l2.685-3.278c.362-.441.621-.976.394-1.471L4.762 4.467c-.227-.494-.776-.641-1.22-.326l-2.23 1.58c-.445.315-.488.909-.395 1.473z"/></g><g><path fill="#b95453" d="M1.065 11.395l1.212-1.273c.164-.171.533-.072.59.158l.411 1.709c.057.228.048.468-.157.587l-1.03.594a.431.431 0 0 1-.589-.157l-.595-1.03c-.118-.205-.005-.418.158-.589z"/></g><g><path fill="#7e576a" d="M2.406 6.176a.562.562 0 1 1-.29 1.087.562.562 0 0 1 .29-1.087z"/></g><g><path fill="#7e576a" d="M4.728 6.798a.563.563 0 1 1-.293 1.088.563.563 0 0 1 .292-1.088z"/></g><g><path fill="#b95453" d="M15.559 26.569h1.001v-1.056h-1.001z"/></g><g><path fill="#b95453" d="M6.483 26.569h1.002v-1.056H6.483z"/></g></g></svg>