
<!DOCTYPE svg PUBLIC "-//W3C//DTD SVG 1.1//EN" "http://www.w3.org/Graphics/SVG/1.1/DTD/svg11.dtd">
<!-- Creator: CorelDRAW -->
<svg xmlns="http://www.w3.org/2000/svg" xml:space="preserve" width="2048px" height="2048px" style="shape-rendering:geometricPrecision; text-rendering:geometricPrecision; image-rendering:optimizeQuality; fill-rule:evenodd; clip-rule:evenodd" viewBox="0 0 2048 2048" xmlns:xlink="http://www.w3.org/1999/xlink">
 <defs>
  <style type="text/css">
   
    .str0 {stroke:white;stroke-width:70.0004}
    .fil2 {fill:none}
    .fil0 {fill:#464549}
    .fil1 {fill:white;fill-rule:nonzero}
   
  </style>
 </defs>
 <rect class="fil0" width="2048" height="2048" />
 <g id="Layer_x0020_1">
  <metadata id="CorelCorpID_0Corel-Layer"></metadata>
  <path class="fil1" d="M958 640.089l772.002 0c17.0575,0 32.5429,6.95552 43.7481,18.1606l-0.0625985 0.0625985c11.2453,11.2748 18.2232,26.7414 18.2232,43.6855l0 580.002c0,16.9441 -6.97796,32.4107 -18.2232,43.6855l0.0625985 0.0625985c-11.2051,11.2051 -26.6906,18.1606 -43.7481,18.1606l-501.056 0 0 -63.8197 499.145 0 0 -576.18 -768.18 0 0 256.09 -63.8197 0 0 -258.001c0,-16.9441 6.97796,-32.4107 18.2232,-43.6855l-0.0625985 -0.0625985c11.2051,-11.2051 26.6906,-18.1606 43.7481,-18.1606z" />
  <path class="fil2 str0" d="M501.14 1025.11l82.3548 0 72.5292 118.683 72.2162 -118.683 85.7481 0c0,0 198.328,-2.57835 212.692,168.499l0 22.3914 77.4745 -52.9477 9.04371 -6.31536c77.0741,-59.7685 151.956,35.987 93.939,93.991 -0.122835,0.122835 -43.0276,29.178 -43.0276,29.178l-59.9091 40.03 -113.932 75.8705c-38.5122,23.8276 -95.1296,-8.57245 -95.1296,-58.0985l0 -117.147 -95.5796 0 0.12874 280.565 -287.688 0 0.138189 -278.853 -95.2406 0c0,74.8985 0,149.798 0,224.697 0,86.9694 -131.473,86.6741 -131.473,0l0 -253.423c-0.0555119,0 -8.02205,-164.295 215.716,-168.437z" />
  <polygon class="fil1" points="1525.17,893.24 1218.54,1134.16 1239.76,1177.35 1546.39,936.422 " />
  <path class="fil1" d="M656.827 662.82c44.178,0 84.1784,17.9102 113.133,46.865 28.9559,28.9559 46.8662,68.9564 46.8662,113.134 0,44.178 -17.9102,84.1796 -46.865,113.134 -28.9559,28.9559 -68.9564,46.8662 -113.134,46.8662 -44.1803,0 -84.1808,-17.9102 -113.134,-46.8662 -28.9559,-28.9536 -46.8662,-68.9552 -46.8662,-113.134 0,-44.178 17.9102,-84.1784 46.8662,-113.134 28.9547,-28.9547 68.9564,-46.865 113.134,-46.865zm67.8827 92.1154c-17.3693,-17.3693 -41.3705,-28.1138 -67.8827,-28.1138 -26.5122,0 -50.5146,10.7445 -67.8839,28.1138 -17.3705,17.3705 -28.115,41.3717 -28.115,67.8839 0,26.5122 10.7457,50.5146 28.115,67.8839 17.3693,17.3693 41.3705,28.115 67.8839,28.115 26.5122,0 50.5134,-10.7445 67.8839,-28.115 17.3693,-17.3693 28.1138,-41.3717 28.1138,-67.8839 0,-26.5122 -10.7445,-50.5134 -28.115,-67.8839z" />
 </g>
</svg>
