<svg xmlns="http://www.w3.org/2000/svg" width="67" height="67" viewBox="0 0 67 67"><g><g><path fill="#daac9e" d="M66.787.501H.859v65.928h65.928z"/></g><g><path fill="#884b39" d="M54.347 24.663a3.352 3.352 0 0 1 3.34 3.342v2.448h-1.061v-2.448a2.288 2.288 0 0 0-2.28-2.28h-.531v-1.062z"/></g><g><path fill="#a75151" d="M14.178 28.825h7.89v20.187h-7.89z"/></g><g><path fill="#a75151" d="M24.45 28.825h7.89v20.187h-7.89z"/></g><g><path fill="#a75151" d="M36.507 28.825h7.89v20.187h-7.89z"/></g><g><path fill="#a75151" d="M46.779 28.825h7.89v20.187h-7.89z"/></g><g><path fill="#a75151" d="M20.728 19.91h27.391c3.602 0 6.55 2.948 6.55 6.55v9.082c0 3.6-2.948 6.549-6.55 6.549H20.728c-3.603 0-6.55-2.948-6.55-6.55v-9.08c0-3.603 2.947-6.551 6.55-6.551z"/></g><g><path fill="#e2cfc5" d="M13.451 17.916a2.932 2.932 0 1 1 .002 5.864 2.932 2.932 0 0 1-.002-5.864z"/></g><g><path fill="#e2cfc5" d="M26.8 17.916a2.931 2.931 0 1 1 0 5.864 2.932 2.932 0 1 1 0-5.864z"/></g><g><path fill="#fcecf3" d="M17.813 18.685h4.626c3.178 0 5.779 2.6 5.779 5.779v12.678H12.034V24.464c0-3.178 2.6-5.78 5.778-5.78z"/></g><g><path fill="#fcecf3" d="M25.006 44.255h-9.761c-2.907 0-5.286-2.38-5.286-5.286v-1.872c0-3.937 3.22-7.157 7.157-7.157h6.019c3.937 0 7.158 3.22 7.158 7.157v1.872c0 2.906-2.38 5.286-5.287 5.286z"/></g><g><path fill="#a75151" d="M18.168 32.955c.718 0 1.305.587 1.305 1.305v1.442c0 .718-.587 1.305-1.305 1.305a1.309 1.309 0 0 1-1.306-1.305V34.26c0-.718.587-1.305 1.306-1.305z"/></g><g><path fill="#a75151" d="M22.084 32.955a1.31 1.31 0 0 1 1.306 1.305v1.442a1.31 1.31 0 0 1-1.306 1.305 1.31 1.31 0 0 1-1.306-1.305V34.26a1.31 1.31 0 0 1 1.306-1.305z"/></g><g><path fill="#9f6e6f" d="M16.963 25.078a2.364 2.364 0 1 1 0 4.728 2.364 2.364 0 0 1 0-4.728z"/></g><g><path fill="#9f6e6f" d="M23.288 25.078a2.363 2.363 0 1 1 0 4.726 2.363 2.363 0 0 1 0-4.726z"/></g></g></svg>