<svg xmlns="http://www.w3.org/2000/svg" width="11.5" height="9" viewBox="0 0 23 18"><g><g><path fill="#faab18" d="M.506 10.108h.668v5.278a.334.334 0 0 1-.668 0z"/></g><g><path fill="#ec1651" d="M20.923 8.736h-3.665v9.379h3.665z"/></g><g><path fill="#ec1651" d="M16.151 8.736h-3.665v9.379h3.665z"/></g><g><path fill="#ec1651" d="M10.549 8.736H6.883v9.379h3.666z"/></g><g><path fill="#ec1651" d="M5.776 10.538H2.11v7.578h3.666z"/></g><g><path fill="#c5208d" d="M15.517 4.651H5.963c-3.001 0-5.456 2.455-5.456 5.457 0 3.001 2.455 5.456 5.456 5.456h9.554c.693 0 1.358-.132 1.97-.37V5.021a5.407 5.407 0 0 0-1.97-.37z"/></g><g><path fill="#faab18" d="M20.894.555a1.672 1.672 0 1 0 0 3.343 1.672 1.672 0 0 0 0-3.343z"/></g><g><path fill="#faab18" d="M13.287.555a1.67 1.67 0 1 0 0 3.34 1.67 1.67 0 0 0 0-3.34z"/></g><g><path fill="#ec1651" d="M18.408.993h-2.635a3.303 3.303 0 0 0-3.293 3.292v7.226h9.222V4.285A3.303 3.303 0 0 0 18.408.993z"/></g><g><path fill="#faab18" d="M14.309 15.565h5.563a3.021 3.021 0 0 0 3.012-3.014v-1.066a4.09 4.09 0 0 0-4.078-4.08h-3.43a4.09 4.09 0 0 0-4.08 4.08v1.066a3.021 3.021 0 0 0 3.013 3.014z"/></g><g><path fill="#c5208d" d="M18.206 9.125a.746.746 0 0 0-.744.744v.82c0 .41.335.745.744.745a.747.747 0 0 0 .744-.745v-.82a.746.746 0 0 0-.744-.744z"/></g><g><path fill="#c5208d" d="M15.974 9.125a.746.746 0 0 0-.744.744v.82c0 .41.336.745.744.745a.747.747 0 0 0 .744-.745v-.82a.746.746 0 0 0-.744-.744z"/></g><g><path fill="#fff" d="M18.893 4.635a1.347 1.347 0 1 0 0 2.693 1.347 1.347 0 0 0 0-2.693z"/></g><g><path fill="#fff" d="M15.288 4.635a1.348 1.348 0 1 0 .001 2.695 1.348 1.348 0 0 0 0-2.695z"/></g></g></svg>