<svg xmlns="http://www.w3.org/2000/svg" width="59" height="58" viewBox="0 0 59 58"><g><g><path fill="#87be98" d="M58.323-.018H.599v57.726h57.724z"/></g><g><path fill="#874a38" d="M47.43 21.14a2.934 2.934 0 0 1 2.927 2.927v2.142h-.931v-2.142a2.003 2.003 0 0 0-1.995-1.996h-.465v-.931z"/></g><g><path fill="#8a4647" d="M12.261 24.784h6.908v17.675h-6.908z"/></g><g><path fill="#8a4647" d="M21.254 24.784h6.908v17.675h-6.908z"/></g><g><path fill="#8a4647" d="M31.812 24.784h6.908v17.675h-6.908z"/></g><g><path fill="#8a4647" d="M40.805 24.784h6.908v17.675h-6.908z"/></g><g><path fill="#8a4647" d="M17.996 16.978h23.982c3.154 0 5.735 2.581 5.735 5.735v7.951c0 3.154-2.581 5.733-5.735 5.733H17.996c-3.154 0-5.735-2.579-5.735-5.733v-7.951c0-3.154 2.58-5.735 5.735-5.735z"/></g><g><path fill="#f9eee8" d="M11.623 15.231a2.567 2.567 0 1 1 0 5.136 2.568 2.568 0 0 1 0-5.136z"/></g><g><path fill="#f9eee8" d="M23.311 15.231a2.568 2.568 0 1 1 .001 5.136 2.568 2.568 0 0 1 0-5.136z"/></g><g><path fill="#cba397" d="M15.443 15.905h4.05c2.783 0 5.059 2.277 5.059 5.06v11.101h-14.17v-11.1c0-2.784 2.278-5.06 5.06-5.06z"/></g><g><path fill="#cba397" d="M21.74 38.294h-8.545a4.643 4.643 0 0 1-4.63-4.63v-1.637c0-3.447 2.82-6.268 6.268-6.268h5.27c3.447 0 6.267 2.82 6.267 6.268v1.638a4.643 4.643 0 0 1-4.63 4.629z"/></g><g><path fill="#874a38" d="M15.753 28.4c.629 0 1.144.515 1.144 1.144v1.26c0 .628-.515 1.143-1.144 1.143a1.147 1.147 0 0 1-1.143-1.143v-1.26c0-.629.515-1.144 1.143-1.144z"/></g><g><path fill="#874a38" d="M19.182 28.4c.63 0 1.143.515 1.143 1.144v1.26c0 .628-.514 1.143-1.143 1.143a1.147 1.147 0 0 1-1.143-1.143v-1.26c0-.629.515-1.144 1.143-1.144z"/></g><g><path fill="#fff" d="M14.699 21.502a2.07 2.07 0 1 1-.001 4.139 2.07 2.07 0 0 1 0-4.139z"/></g><g><path fill="#fff" d="M20.236 21.502a2.07 2.07 0 1 1 0 4.14 2.07 2.07 0 0 1 0-4.14z"/></g></g></svg>