<svg xmlns="http://www.w3.org/2000/svg" width="9.5" height="12" viewBox="0 0 19 24"><g><g><path fill="#f5accc" d="M6.24 1.522a3.519 3.519 0 0 1 0 7.024z"/></g><g><path fill="#f5accc" d="M7.101 6.165h1.797V7.72c0 .998.816 1.814 1.814 1.814h1.982a3.807 3.807 0 0 1 3.796 3.796v9.883h-1.368v-2.859c0-3.262-2.668-5.929-5.93-5.929h-.294v-3.18H7.101zm.513 17.048H6.378v-3.37a6.869 6.869 0 0 0-2.239-5.082v-.642h3.475z"/></g><g><path fill="#f5accc" d="M5.658 2.208h-1.25L5.033.115z"/></g><g><path fill="#f5accc" d="M6.543 2.208h-1.25L5.918.115z"/></g><g><path fill="#a2238d" d="M4.439 2.311l.108-.125H6.5a4.073 4.073 0 0 1 2.32 2.909c.056.279.078.508.078.78v1.861c.002.99.81 1.798 1.8 1.798h1.823A5.243 5.243 0 1 1 4.438 6.34z"/></g><g><path fill="#f497a2" d="M4.438 2.31l.028-.03a.41.41 0 0 1-.028.74zm2.974.443a.411.411 0 1 1-.646-.435c.23.124.446.27.646.435zm1.156 1.532a.412.412 0 0 1-.401-.717c.158.224.292.463.401.717zm2.945 5.25a.411.411 0 0 1-.775 0zm1.131 1.13c0 .202-.012.4-.034.594a.41.41 0 1 1 .03-.779c.002.06.004.124.004.186zm-1.886 4.029a.41.41 0 0 1 .231-.204 5.608 5.608 0 0 1-.23.204zm-6.32-9.688a.413.413 0 0 1 0 .756zm1.618 9.872a.41.41 0 1 1-.821-.002.41.41 0 0 1 .821.002zm2.741 0a.41.41 0 1 1-.821-.002.41.41 0 0 1 .821.002zm-5.48-2.741a.41.41 0 1 1-.823 0 .411.411 0 0 1 .822 0zm2.74 0a.411.411 0 1 1-.823 0 .411.411 0 0 1 .822 0zm2.74 0a.411.411 0 1 1-.822 0 .411.411 0 0 1 .822 0zm2.74 0a.411.411 0 1 1-.822 0 .411.411 0 0 1 .822 0zm-8.22-2.74a.411.411 0 1 1-.823 0 .411.411 0 0 1 .822 0zm2.74 0a.412.412 0 1 1-.824-.002.412.412 0 0 1 .823.002zm2.74 0a.412.412 0 1 1-.823-.002.412.412 0 0 1 .823.002zm-2.74-2.74a.411.411 0 1 1-.823 0 .411.411 0 0 1 .822 0zm2.74 0a.411.411 0 1 1-.822 0 .411.411 0 0 1 .822 0zm-2.74-2.741a.411.411 0 1 1-.823.001.411.411 0 0 1 .822-.001zm-1.37 9.687a.41.41 0 1 1-.822.003.41.41 0 0 1 .821-.003zm2.74 0a.41.41 0 1 1-.822.003.41.41 0 0 1 .821-.003zm2.74 0a.411.411 0 1 1-.823.001.411.411 0 0 1 .822-.001zm-5.48-2.74a.41.41 0 1 1-.821.002.41.41 0 0 1 .82-.001zm2.74 0a.41.41 0 1 1-.823 0 .411.411 0 0 1 .822 0zm2.74 0a.411.411 0 1 1-.823 0 .411.411 0 0 1 .822 0zm-5.48-2.74a.41.41 0 1 1-.821.002.41.41 0 0 1 .82-.001zm2.74 0a.41.41 0 1 1-.821.002.41.41 0 0 1 .82-.001zm0-2.738a.411.411 0 1 1-.41-.412.41.41 0 0 1 .41.412z"/></g><g><path fill="#f5accc" d="M4.439 2.311l.324-.374c.823.004 1.155-.055 1.923.338v.861a2.254 2.254 0 0 1-2.247 2.246z"/></g><g><path fill="#a2238d" d="M7.614 23.213h-1.81l.574-2.688h1.236z"/></g><g><path fill="#a2238d" d="M15.123 20.526l-.574 2.688h1.942V20.526z"/></g><g><path fill="#f5accc" d="M12.609 9.534h1.638a4.787 4.787 0 0 1 4.773 4.773v1.704h-1.638v-1.704a4.787 4.787 0 0 0-4.773-4.773z"/></g><g><path fill="#a2238d" d="M19.02 18.268h-1.638v-2.257h1.638z"/></g><g><path fill="#f5accc" d="M5.703 4.99a2.231 2.231 0 0 1-1.264.392h-2.81A1.16 1.16 0 0 1 .492 4.43l3.993-2.495.278.002.94.104z"/></g><g><path fill="#fff" d="M3.744 2.862h.797a.336.336 0 0 1 0 .671h-.797a.336.336 0 1 1 0-.671z"/></g><g><path fill="#f5accc" d="M8.898 5.8l.641-.588.005 1.456a1.168 1.168 0 0 0 1.164 1.163c.166 0 .325-.036.47-.1a1.245 1.245 0 0 1-1.036.556 1.249 1.249 0 0 1-1.244-1.245z"/></g><g><path fill="#f5accc" d="M9.543 5.118l.001.306a1.169 1.169 0 0 0 1.164 1.163c.167 0 .326-.037.47-.1a1.244 1.244 0 0 1-2.28-.688v-.638z"/></g><g><path fill="#f5accc" d="M9.483 4.38c.1.54.577.952 1.144.952.167 0 .326-.036.47-.101a1.246 1.246 0 0 1-1.035.557c-.684 0-1.244-.56-1.244-1.244V4.38z"/></g></g></svg>