<svg xmlns="http://www.w3.org/2000/svg" width="59" height="58" viewBox="0 0 59 58"><g><g><path fill="#8a57a2" d="M58.221.085H.497v57.724h57.724z"/></g><g><path fill="#fff" d="M17.992 23.135h-6.104c-3.357 0-6.104 2.747-6.104 6.104V42.8h4.272V28.106a4.087 4.087 0 0 1 4.076-4.074h3.86z"/></g><g><path fill="#ffe9ce" d="M52.934 20.636l-2.201 1.294-3.643-3.125a.738.738 0 0 0-1.263.514v9.25c0 3.956-2.823 7.285-6.554 8.073l-.068 12.544h-1.939l-3.26-12.165c-1.024-3.822-4.988-6.111-8.81-5.086-3.26.872-5.403 3.884-5.33 7.122v10.129H18.07l-5.884-17.02c-.232-.67-.495-1.334-.6-2.04a6.086 6.086 0 0 1 6.019-6.992h16.713c.055-.33.119-.656.193-.98 1.254-5.662 5.3-10.273 10.62-12.313A17.177 17.177 0 0 1 50.89 8.71l-1.581 2.576z"/></g></g></svg>