<?xml version="1.0" encoding="UTF-8"?>
<!DOCTYPE svg PUBLIC "-//W3C//DTD SVG 1.1//EN" "http://www.w3.org/Graphics/SVG/1.1/DTD/svg11.dtd">
<!-- Creator: CorelDRAW -->
<svg xmlns="http://www.w3.org/2000/svg" xml:space="preserve" width="6.82666in" height="6.82666in" style="shape-rendering:geometricPrecision; text-rendering:geometricPrecision; image-rendering:optimizeQuality; fill-rule:evenodd; clip-rule:evenodd"
viewBox="0 0 6.82666 6.82666"
 xmlns:xlink="http://www.w3.org/1999/xlink">
 <defs>
  <style type="text/css">
   <![CDATA[
    .fil4 {fill:none}
    .fil1 {fill:#212121}
    .fil2 {fill:#FECA5F}
    .fil3 {fill:#FFEDDF}
    .fil0 {fill:#212121;fill-rule:nonzero}
   ]]>
  </style>
 </defs>
 <g id="Layer_x0020_1">
  <metadata id="CorelCorpID_0Corel-Layer"/>
  <g id="_430506520">
   <path id="_430478680" class="fil0" d="M2.24643 1.53124c0.0209409,-0.0547638 -0.00648425,-0.116142 -0.061248,-0.137083 -0.0547638,-0.0209409 -0.116142,0.00648425 -0.137083,0.061248 -0.00122835,0.00320472 -0.42863,1.07257 0.767071,1.95792 -1.1957,0.885346 -0.768299,1.95471 -0.767071,1.95792 0.0209409,0.0547638 0.0823189,0.082189 0.137083,0.061248 0.0547638,-0.0209409 0.082189,-0.0823189 0.061248,-0.137083 -0.00109449,-0.00285433 -0.395059,-0.986925 0.812193,-1.79256 0.0118661,-0.0076811 0.0223858,-0.0178504 0.0307244,-0.0303583 0.0326772,-0.0490157 0.0194331,-0.115244 -0.0295827,-0.147921l-0.0591693 0.088752 0.0591654 -0.088752c-1.20867,-0.805776 -0.814425,-1.79048 -0.813331,-1.79333z"/>
   <path id="_430478728" class="fil0" d="M4.77857 1.45541c-0.0209409,-0.0547638 -0.0823189,-0.082189 -0.137083,-0.061248 -0.0547638,0.0209409 -0.082189,0.0823189 -0.061248,0.137083 0.00109449,0.00285433 0.395335,0.987555 -0.813331,1.79333l0.0591654 0.088752 -0.0591693 -0.088752c-0.0490157,0.0326772 -0.0622598,0.0989055 -0.0295827,0.147921 0.00833858,0.0125079 0.0188583,0.0226772 0.0307244,0.0303583 1.20725,0.80563 0.813287,1.7897 0.812193,1.79256 -0.0209409,0.0547638 0.00648425,0.116142 0.061248,0.137083 0.0547638,0.0209409 0.116142,-0.00648425 0.137083,-0.061248 0.00122835,-0.00320472 0.42863,-1.07257 -0.767071,-1.95792 1.1957,-0.88535 0.768299,-1.95471 0.767071,-1.95792z"/>
   <path id="_430479136" class="fil0" d="M1.9402 0.853327l2.94625 0c0.0881142,0 0.168138,0.0359724 0.226083,0.0939173 0.0579449,0.0579449 0.0939173,0.137969 0.0939173,0.226083l0 7.87402e-006c0,0.0881063 -0.0359724,0.168138 -0.0939173,0.226083 -0.0579449,0.0579449 -0.137969,0.0939173 -0.226083,0.0939173l-2.94625 0c-0.0881142,0 -0.168138,-0.0359724 -0.226083,-0.0939173 -0.0579449,-0.0579449 -0.0939173,-0.137976 -0.0939173,-0.226083l0 -7.87402e-006c0,-0.0881142 0.0359724,-0.168138 0.0939173,-0.226083 0.0579449,-0.0579449 0.137969,-0.0939173 0.226083,-0.0939173zm2.94625 0.213339l-2.94625 0c-0.0292205,0 -0.0558701,0.0120354 -0.075248,0.0314134 -0.019378,0.019378 -0.0314134,0.0460276 -0.0314134,0.075248l0 7.87402e-006c0,0.0292205 0.0120354,0.0558701 0.0314134,0.075248 0.019378,0.019378 0.0460276,0.0314134 0.075248,0.0314134l2.94625 0c0.0292205,0 0.0558701,-0.0120354 0.075248,-0.0314134 0.019378,-0.019378 0.0314134,-0.0460276 0.0314134,-0.075248l0 -7.87402e-006c0,-0.0292205 -0.0120354,-0.0558701 -0.0314134,-0.075248 -0.019378,-0.019378 -0.0460276,-0.0314134 -0.075248,-0.0314134z"/>
   <path id="_430478848" class="fil0" d="M1.9402 5.33333l2.94625 0c0.0881142,0 0.168138,0.0359724 0.226083,0.0939173 0.0579449,0.0579449 0.0939173,0.137976 0.0939173,0.226083l0 7.87402e-006c0,0.0881142 -0.0359724,0.168138 -0.0939173,0.226083 -0.0579449,0.0579449 -0.137969,0.0939173 -0.226083,0.0939173l-2.94625 0c-0.0881142,0 -0.168138,-0.0359724 -0.226083,-0.0939173 -0.0579449,-0.0579449 -0.0939173,-0.137969 -0.0939173,-0.226083l0 -7.87402e-006c0,-0.0881063 0.0359724,-0.168138 0.0939173,-0.226083 0.0579449,-0.0579449 0.137969,-0.0939173 0.226083,-0.0939173zm2.94625 0.213339l-2.94625 0c-0.0292205,0 -0.0558701,0.0120354 -0.075248,0.0314134 -0.019378,0.019378 -0.0314134,0.0460276 -0.0314134,0.075248l0 7.87402e-006c0,0.0292205 0.0120354,0.0558701 0.0314134,0.075248 0.019378,0.019378 0.0460276,0.0314134 0.075248,0.0314134l2.94625 0c0.0292205,0 0.0558701,-0.0120354 0.075248,-0.0314134 0.019378,-0.019378 0.0314134,-0.0460276 0.0314134,-0.075248l0 -7.87402e-006c0,-0.0292205 -0.0120354,-0.0558701 -0.0314134,-0.075248 -0.019378,-0.019378 -0.0460276,-0.0314134 -0.075248,-0.0314134z"/>
   <circle id="_430479160" class="fil1" cx="2.51601" cy="2.34666" r="0.106665"/>
   <circle id="_430510720" class="fil1" cx="2.87494" cy="2.34666" r="0.106665"/>
   <circle id="_430510672" class="fil1" cx="3.23387" cy="2.34666" r="0.106665"/>
   <circle id="_430510768" class="fil1" cx="3.5928" cy="2.34666" r="0.106665"/>
   <circle id="_430510960" class="fil1" cx="3.95172" cy="2.34666" r="0.106665"/>
   <circle id="_430510312" class="fil1" cx="4.31065" cy="2.34666" r="0.106665"/>
   <circle id="_430510120" class="fil1" cx="2.69547" cy="2.66666" r="0.106665"/>
   <circle id="_430510552" class="fil1" cx="3.0544" cy="2.66666" r="0.106665"/>
   <circle id="_430510432" class="fil1" cx="3.41333" cy="2.66666" r="0.106665"/>
   <circle id="_430510072" class="fil1" cx="3.77226" cy="2.66666" r="0.106665"/>
   <circle id="_430510168" class="fil1" cx="4.13119" cy="2.66666" r="0.106665"/>
   <circle id="_430510000" class="fil1" cx="2.69547" cy="2.66666" r="0.106665"/>
   <circle id="_430509904" class="fil1" cx="3.0544" cy="2.66666" r="0.106665"/>
   <circle id="_430509376" class="fil1" cx="3.41333" cy="2.66666" r="0.106665"/>
   <circle id="_430509856" class="fil1" cx="3.77226" cy="2.66666" r="0.106665"/>
   <circle id="_430509880" class="fil1" cx="4.13119" cy="2.66666" r="0.106665"/>
   <circle id="_430509784" class="fil1" cx="2.87494" cy="2.98666" r="0.106665"/>
   <circle id="_430509712" class="fil1" cx="3.23387" cy="2.98666" r="0.106665"/>
   <circle id="_430509352" class="fil1" cx="3.5928" cy="2.98666" r="0.106665"/>
   <circle id="_430509544" class="fil1" cx="3.95172" cy="2.98666" r="0.106665"/>
   <circle id="_430509640" class="fil1" cx="3.23387" cy="3.30666" r="0.106665"/>
   <circle id="_430508968" class="fil1" cx="3.5928" cy="3.30666" r="0.106665"/>
   <circle id="_430508416" class="fil1" cx="3.41333" cy="3.62666" r="0.106665"/>
   <circle id="_430508608" class="fil1" cx="3.41333" cy="3.94666" r="0.106665"/>
   <circle id="_430509040" class="fil1" cx="3.41333" cy="4.26666" r="0.106665"/>
   <circle id="_430508368" class="fil1" cx="4.31065" cy="5.12" r="0.106665"/>
   <circle id="_430507888" class="fil1" cx="3.95172" cy="5.12" r="0.106665"/>
   <circle id="_430508032" class="fil1" cx="3.5928" cy="5.12" r="0.106665"/>
   <circle id="_430508296" class="fil1" cx="3.23387" cy="5.12" r="0.106665"/>
   <circle id="_430507600" class="fil1" cx="2.87494" cy="5.12" r="0.106665"/>
   <circle id="_430507936" class="fil1" cx="2.51601" cy="5.12" r="0.106665"/>
   <circle id="_430508104" class="fil1" cx="4.13119" cy="4.8" r="0.106665"/>
   <circle id="_430508248" class="fil1" cx="3.77226" cy="4.8" r="0.106665"/>
   <circle id="_430507072" class="fil1" cx="3.41333" cy="4.8" r="0.106665"/>
   <circle id="_430507144" class="fil1" cx="3.0544" cy="4.8" r="0.106665"/>
   <circle id="_430507576" class="fil1" cx="2.69547" cy="4.8" r="0.106665"/>
   <circle id="_430507480" class="fil1" cx="4.13119" cy="4.8" r="0.106665"/>
   <circle id="_430507024" class="fil1" cx="3.77226" cy="4.8" r="0.106665"/>
   <circle id="_430507384" class="fil1" cx="3.41333" cy="4.8" r="0.106665"/>
   <circle id="_430506664" class="fil1" cx="3.0544" cy="4.8" r="0.106665"/>
   <circle id="_430506784" class="fil1" cx="2.69547" cy="4.8" r="0.106665"/>
  </g>
  <path class="fil2" d="M1.9402 1.28l2.94625 0c0.0292205,0 0.0558701,-0.0120354 0.075248,-0.0314134 0.019378,-0.019378 0.0314134,-0.0460276 0.0314134,-0.0752559 0,-0.0292205 -0.0120354,-0.0558701 -0.0314134,-0.075248 -0.019378,-0.019378 -0.0460276,-0.0314134 -0.075248,-0.0314134l-2.94625 0c-0.0292205,0 -0.0558701,0.0120354 -0.075248,0.0314134 -0.019378,0.019378 -0.0314134,0.0460276 -0.0314134,0.0752559 0,0.0292205 0.0120354,0.0558701 0.0314134,0.075248 0.019378,0.019378 0.0460276,0.0314134 0.075248,0.0314134z"/>
  <path class="fil3" d="M4.57321 1.49333l-2.31976 0c0,0.0126102 -0.00225984,0.0254291 -0.0070315,0.0379094 -0.00109449,0.00285433 -0.395335,0.987555 0.813335,1.79333 0.0490157,0.0326772 0.0622598,0.0989055 0.0295827,0.147921 -0.00833858,0.0125079 -0.0188583,0.0226772 -0.0307244,0.0303583 -1.20725,0.80563 -0.813287,1.7897 -0.812193,1.79256 0.00477165,0.0124803 0.0070315,0.0253071 0.0070315,0.0379173l2.31976 0c0,-0.0126102 0.00225984,-0.025437 0.0070315,-0.0379173 0.00109449,-0.00285433 0.395059,-0.986925 -0.812193,-1.79256 -0.0118661,-0.0076811 -0.0223858,-0.0178504 -0.0307244,-0.0303583 -0.0326772,-0.0490157 -0.0194331,-0.115244 0.0295866,-0.147921 1.20867,-0.805776 0.814425,-1.79048 0.813331,-1.79333 -0.00477165,-0.0124803 -0.0070315,-0.0252992 -0.0070315,-0.0379094zm-1.80494 0.853327c0,-0.0589094 0.0477559,-0.106665 0.106665,-0.106665 0.0589094,0 0.106665,0.0477559 0.106665,0.106665 0,0.0589094 -0.0477559,0.106665 -0.106665,0.106665 -0.0589094,0 -0.106665,-0.0477559 -0.106665,-0.106665zm0.106665 0.533335c0.0589094,0 0.106665,0.0477559 0.106665,0.106665 0,0.0589094 -0.0477559,0.106665 -0.106665,0.106665 -0.0589094,0 -0.106665,-0.0477559 -0.106665,-0.106665 0,-0.0589094 0.0477559,-0.106665 0.106665,-0.106665zm0.179465 -0.32c0.0589094,0 0.106665,0.0477559 0.106665,0.106665 0,0.0589094 -0.0477559,0.106665 -0.106665,0.106665 -0.0589094,0 -0.106665,-0.0477559 -0.106665,-0.106665 0,-0.0589094 0.0477559,-0.106665 0.106665,-0.106665zm-0.358929 0c0.0589094,0 0.106665,0.0477559 0.106665,0.106665 0,0.0589094 -0.0477559,0.106665 -0.106665,0.106665 -0.0589094,0 -0.106665,-0.0477559 -0.106665,-0.106665 0,-0.0589094 0.0477559,-0.106665 0.106665,-0.106665zm-0.179465 -0.32c0.0589094,0 0.106665,0.0477559 0.106665,0.106665 0,0.0589094 -0.0477559,0.106665 -0.106665,0.106665 -0.0589094,0 -0.106665,-0.0477559 -0.106665,-0.106665 0,-0.0589094 0.0477559,-0.106665 0.106665,-0.106665zm0.0727992 2.56c0,-0.0589094 0.0477559,-0.106665 0.106665,-0.106665 0.0589094,0 0.106665,0.0477559 0.106665,0.106665 0,0.0589094 -0.0477559,0.106665 -0.106665,0.106665 -0.0589094,0 -0.106665,-0.0477559 -0.106665,-0.106665zm0.358929 0c0,-0.0589094 0.0477559,-0.106665 0.106665,-0.106665 0.0589094,0 0.106665,0.0477559 0.106665,0.106665 0,0.0589094 -0.0477559,0.106665 -0.106665,0.106665 -0.0589094,0 -0.106665,-0.0477559 -0.106665,-0.106665zm-0.538394 0.32c0,-0.0589094 0.0477559,-0.106665 0.106665,-0.106665 0.0589094,0 0.106665,0.0477559 0.106665,0.106665 0,0.0589094 -0.0477559,0.106665 -0.106665,0.106665 -0.0589094,0 -0.106665,-0.0477559 -0.106665,-0.106665zm0.358929 0c0,-0.0589094 0.0477559,-0.106665 0.106665,-0.106665 0.0589094,0 0.106665,0.0477559 0.106665,0.106665 0,0.0589094 -0.0477559,0.106665 -0.106665,0.106665 -0.0589094,0 -0.106665,-0.0477559 -0.106665,-0.106665zm0.358929 -1.81333c0,-0.0589094 0.0477559,-0.106665 0.106665,-0.106665 0.0589094,0 0.106665,0.0477559 0.106665,0.106665 0,0.0589094 -0.0477559,0.106665 -0.106665,0.106665 -0.0589094,0 -0.106665,-0.0477559 -0.106665,-0.106665zm0.179465 0.32c0,-0.0589094 0.0477559,-0.106665 0.106665,-0.106665 0.0589094,0 0.106665,0.0477559 0.106665,0.106665 0,0.0589094 -0.0477559,0.106665 -0.106665,0.106665 -0.0589094,0 -0.106665,-0.0477559 -0.106665,-0.106665zm0 0.32c0,-0.0589094 0.0477559,-0.106665 0.106665,-0.106665 0.0589094,0 0.106665,0.0477559 0.106665,0.106665 0,0.0589094 -0.0477559,0.106665 -0.106665,0.106665 -0.0589094,0 -0.106665,-0.0477559 -0.106665,-0.106665zm0.106665 0.213335c0.0589094,0 0.106665,0.0477559 0.106665,0.106665 0,0.0589094 -0.0477559,0.106665 -0.106665,0.106665 -0.0589094,0 -0.106665,-0.0477559 -0.106665,-0.106665 0,-0.0589094 0.0477559,-0.106665 0.106665,-0.106665zm0.252264 0.64c0,-0.0589094 0.0477559,-0.106665 0.106665,-0.106665 0.0589094,0 0.106665,0.0477559 0.106665,0.106665 0,0.0589094 -0.0477559,0.106665 -0.106665,0.106665 -0.0589094,0 -0.106665,-0.0477559 -0.106665,-0.106665zm-0.538394 -1.81333c0,-0.0589094 0.0477559,-0.106665 0.106665,-0.106665 0.0589094,0 0.106665,0.0477559 0.106665,0.106665 0,0.0589094 -0.0477559,0.106665 -0.106665,0.106665 -0.0589094,0 -0.106665,-0.0477559 -0.106665,-0.106665zm0.897323 1.81333c0,-0.0589094 0.0477559,-0.106665 0.106665,-0.106665 0.0589094,0 0.106665,0.0477559 0.106665,0.106665 0,0.0589094 -0.0477559,0.106665 -0.106665,0.106665 -0.0589094,0 -0.106665,-0.0477559 -0.106665,-0.106665zm-0.179465 0.32c0,-0.0589094 0.0477559,-0.106665 0.106665,-0.106665 0.0589094,0 0.106665,0.0477559 0.106665,0.106665 0,0.0589094 -0.0477559,0.106665 -0.106665,0.106665 -0.0589094,0 -0.106665,-0.0477559 -0.106665,-0.106665zm0.358929 0c0,-0.0589094 0.0477559,-0.106665 0.106665,-0.106665 0.0589094,0 0.106665,0.0477559 0.106665,0.106665 0,0.0589094 -0.0477559,0.106665 -0.106665,0.106665 -0.0589094,0 -0.106665,-0.0477559 -0.106665,-0.106665zm-0.970122 -2.88c0.0589094,0 0.106665,0.0477559 0.106665,0.106665 0,0.0589094 -0.0477559,0.106665 -0.106665,0.106665 -0.0589094,0 -0.106665,-0.0477559 -0.106665,-0.106665 0,-0.0589094 0.0477559,-0.106665 0.106665,-0.106665zm0.431728 0.426665c0,-0.0589094 0.0477559,-0.106665 0.106665,-0.106665 0.0589094,0 0.106665,0.0477559 0.106665,0.106665 0,0.0589094 -0.0477559,0.106665 -0.106665,0.106665 -0.0589094,0 -0.106665,-0.0477559 -0.106665,-0.106665zm0.28613 0.213335c0.0589094,0 0.106665,0.0477559 0.106665,0.106665 0,0.0589094 -0.0477559,0.106665 -0.106665,0.106665 -0.0589094,0 -0.106665,-0.0477559 -0.106665,-0.106665 0,-0.0589094 0.0477559,-0.106665 0.106665,-0.106665zm-0.465594 -0.533335c0,-0.0589094 0.0477559,-0.106665 0.106665,-0.106665 0.0589094,0 0.106665,0.0477559 0.106665,0.106665 0,0.0589094 -0.0477559,0.106665 -0.106665,0.106665 -0.0589094,0 -0.106665,-0.0477559 -0.106665,-0.106665zm0.465594 0.106665c-0.0589094,0 -0.106665,-0.0477559 -0.106665,-0.106665 0,-0.0589094 0.0477559,-0.106665 0.106665,-0.106665 0.0589094,0 0.106665,0.0477559 0.106665,0.106665 0,0.0589094 -0.0477559,0.106665 -0.106665,0.106665zm0.179465 0.106669c0.0589094,0 0.106665,0.0477559 0.106665,0.106665 0,0.0589094 -0.0477559,0.106665 -0.106665,0.106665 -0.0589094,0 -0.106665,-0.0477559 -0.106665,-0.106665 0,-0.0589094 0.0477559,-0.106665 0.106665,-0.106665zm0.0727992 -0.213335c0,-0.0589094 0.0477559,-0.106665 0.106665,-0.106665 0.0589094,0 0.106665,0.0477559 0.106665,0.106665 0,0.0589094 -0.0477559,0.106665 -0.106665,0.106665 -0.0589094,0 -0.106665,-0.0477559 -0.106665,-0.106665zm-0.897323 2.45333c0,-0.0589094 0.0477559,-0.106665 0.106665,-0.106665 0.0589094,0 0.106665,0.0477559 0.106665,0.106665 0,0.0589094 -0.0477559,0.106665 -0.106665,0.106665 -0.0589094,0 -0.106665,-0.0477559 -0.106665,-0.106665zm0.106665 -2.02667c-0.0589094,0 -0.106665,-0.0477559 -0.106665,-0.106665 0,-0.0589094 0.0477559,-0.106665 0.106665,-0.106665 0.0589094,0 0.106665,0.0477559 0.106665,0.106665 0,0.0589094 -0.0477559,0.106665 -0.106665,0.106665zm0.0727992 0.213335c0,-0.0589094 0.0477559,-0.106665 0.106665,-0.106665 0.0589094,0 0.106665,0.0477559 0.106665,0.106665 0,0.0589094 -0.0477559,0.106665 -0.106665,0.106665 -0.0589094,0 -0.106665,-0.0477559 -0.106665,-0.106665zm0.106665 0.213335c0.0589094,0 0.106665,0.0477559 0.106665,0.106665 0,0.0589094 -0.0477559,0.106665 -0.106665,0.106665 -0.0589094,0 -0.106665,-0.0477559 -0.106665,-0.106665 0,-0.0589094 0.0477559,-0.106665 0.106665,-0.106665zm-0.465594 1.92c0,-0.0589094 0.0477559,-0.106665 0.106665,-0.106665 0.0589094,0 0.106665,0.0477559 0.106665,0.106665 0,0.0589094 -0.0477559,0.106665 -0.106665,0.106665 -0.0589094,0 -0.106665,-0.0477559 -0.106665,-0.106665zm0.358929 0c0,-0.0589094 0.0477559,-0.106665 0.106665,-0.106665 0.0589094,0 0.106665,0.0477559 0.106665,0.106665 0,0.0589094 -0.0477559,0.106665 -0.106665,0.106665 -0.0589094,0 -0.106665,-0.0477559 -0.106665,-0.106665z"/>
  <path class="fil2" d="M4.88646 5.54667l-2.94625 0c-0.0292205,0 -0.0558701,0.0120354 -0.075248,0.0314134 -0.019378,0.019378 -0.0314134,0.0460276 -0.0314134,0.0752559 0,0.0292205 0.0120354,0.0558701 0.0314134,0.075248 0.019378,0.019378 0.0460276,0.0314134 0.075248,0.0314134l2.94625 0c0.0292205,0 0.0558701,-0.0120354 0.075248,-0.0314134 0.019378,-0.019378 0.0314134,-0.0460276 0.0314134,-0.0752559 0,-0.0292205 -0.0120354,-0.0558701 -0.0314134,-0.075248 -0.019378,-0.019378 -0.0460276,-0.0314134 -0.075248,-0.0314134z"/>
 </g>
 <rect class="fil4" width="6.82666" height="6.82666"/>
</svg>
