<?xml version="1.0" encoding="UTF-8"?>
<!DOCTYPE svg PUBLIC "-//W3C//DTD SVG 1.1//EN" "http://www.w3.org/Graphics/SVG/1.1/DTD/svg11.dtd">
<!-- Creator: CorelDRAW -->
<svg xmlns="http://www.w3.org/2000/svg" xml:space="preserve" width="2048px" height="2048px" style="shape-rendering:geometricPrecision; text-rendering:geometricPrecision; image-rendering:optimizeQuality; fill-rule:evenodd; clip-rule:evenodd"
viewBox="0 0 2048 2048"
 xmlns:xlink="http://www.w3.org/1999/xlink">
 <defs>
  <style type="text/css">
   <![CDATA[
    .fil1 {fill:white;fill-rule:nonzero}
   ]]>
  </style>
 </defs>
 <g id="Layer_x0020_1">
  <metadata id="CorelCorpID_0Corel-Layer"/>
  <g id="_412616264">
   <path id="_412614656" class="fil1" d="M401.231 247.792l992.826 0c22.3772,0 42.6922,9.12875 57.3969,23.8335 14.7047,14.7047 23.8335,35.0209 23.8335,57.3981l0 322.096 -72.2067 72.2067 0 -394.303c0,-2.44488 -1.02756,-4.69489 -2.67874,-6.34607 -1.65118,-1.65118 -3.90118,-2.67874 -6.34489,-2.67874l-992.826 0c-2.44488,0 -4.69489,1.02756 -6.34607,2.67874 -1.65118,1.65118 -2.67874,3.90118 -2.67874,6.34607l0 1389.95c0,2.4437 1.02756,4.69489 2.67874,6.34607 1.65118,1.65118 3.90118,2.67756 6.34607,2.67756l806.18 0 195.67 -195.128 0 -605.328 72.2067 -72.2067 0 692.372 0 14.8358 -10.7185 10.6902 -216.996 216.395 -25.3855 10.578 -820.957 0c-22.3748,0 -42.6933,-9.12993 -57.3981,-23.8335 -14.7047,-14.7047 -23.8335,-35.0233 -23.8335,-57.3981l0 -1389.95c0,-22.3772 9.12875,-42.6933 23.8335,-57.3981 14.7047,-14.7047 35.0209,-23.8335 57.3981,-23.8335z"/>
   <path id="_412614104" class="fil1" d="M644.925 576.818c13.3288,0 25.4008,-5.40709 34.1386,-14.1449 8.7378,-8.7378 14.1449,-20.8099 14.1449,-34.1386 0,-13.3299 -5.40591,-25.4044 -14.1425,-34.1398 -8.73662,-8.73662 -20.8087,-14.1425 -34.141,-14.1425 -13.337,0 -25.4103,5.40473 -34.1433,14.1378 -8.73426,8.73426 -14.1378,20.8075 -14.1378,34.1445 0,13.3358 5.40355,25.4079 14.139,34.1433 8.73544,8.73544 20.8075,14.1402 34.1422,14.1402zm79.389 31.1055c-20.3209,20.3221 -48.3945,32.8961 -79.389,32.8961 -31.0004,0 -59.0717,-12.5705 -79.3926,-32.8914 -20.3209,-20.3209 -32.8902,-48.3922 -32.8902,-79.3938 0,-31.0028 12.5705,-59.0741 32.889,-79.3949 20.3185,-20.3185 48.391,-32.889 79.3938,-32.889 30.9981,0 59.0693,12.5717 79.3914,32.8937 20.3221,20.3197 32.8937,48.3922 32.8937,79.3902 0,30.9945 -12.574,59.0682 -32.8961,79.389z"/>
   <path id="_412613888" class="fil1" d="M514.914 878.839l-10.8343 0 -32.0008 0 0 -32.0008 0 -10.8331 0 -44.765c0,-14.9528 2.51693,-29.6717 7.19764,-43.7055 4.77638,-14.3173 11.7248,-27.5563 20.4732,-39.2551 8.74016,-11.6858 19.526,-22.1185 31.9784,-30.8292 12.1146,-8.47442 25.5555,-15.1028 39.9508,-19.441l5.63268 -1.69606 16.6417 -5.01024 13.2331 11.3847 4.48111 3.85512c2.40827,2.07284 5.02323,3.94134 7.80591,5.5878 2.91378,1.72441 5.74134,3.09803 8.44843,4.10315 2.50748,0.930709 5.45315,1.70315 8.80631,2.29843 3.04488,0.540945 6.24449,0.818505 9.56221,0.818505 3.26575,0 6.43229,-0.277559 9.46772,-0.818505 3.07677,-0.548032 6.06733,-1.36063 8.93387,-2.42126 3.12284,-1.15512 5.93977,-2.46851 8.413,-3.92126 2.55591,-1.50236 5.10591,-3.33425 7.61575,-5.47914l4.76575 -4.07363 14.0776 -12.0319 17.4225 6.28229 5.89843 2.12717c14.9835,5.40119 28.0595,12.0697 39.3555,20.0835 11.9079,8.44843 21.8658,18.3508 30.0107,29.7945 8.01615,11.263 14.0717,23.8169 18.3,37.7457 4.00866,13.2012 6.29882,27.4276 6.99922,42.7725l0.125197 1.3748 0 0.465355 -0.125197 0 0.0271654 44.7544 0.00708662 10.8331 0.0212599 32.0008 -31.8969 0 -10.7976 0 -259.997 0zm21.1666 -87.5989l0 23.5973 217.733 0 -0.0141732 -22.6772 -0.0437008 -0.90945 -0.0814961 0 0 -0.465355 0.056693 0c-0.522048,-9.58111 -1.89331,-18.1217 -4.17874,-25.6465 -2.17087,-7.15276 -5.25,-13.5567 -9.30001,-19.2473 -3.96969,-5.57717 -8.95158,-10.4953 -15.0106,-14.7945 -4.06418,-2.88307 -8.59489,-5.49922 -13.6075,-7.85788 -2.04095,1.37244 -4.13268,2.68937 -6.27756,3.94961 -6.16536,3.62362 -12.4122,6.61064 -18.665,8.92205 -6.46182,2.39173 -13.1303,4.21063 -19.9323,5.42126 -6.75119,1.20354 -13.598,1.82008 -20.4685,1.82008 -6.91182,0 -13.7906,-0.616536 -20.563,-1.82008 -6.55512,-1.16457 -13.2685,-3.02835 -20.0551,-5.54882 -6.67796,-2.48032 -12.9366,-5.4437 -18.698,-8.85355 -2.26181,-1.33819 -4.49055,-2.7626 -6.68032,-4.27087 -4.30748,1.94055 -8.34095,4.23544 -12.065,6.84095 -6.47717,4.53071 -12.2917,10.2295 -17.2288,16.8307 -4.89922,6.55158 -8.71064,13.7244 -11.2228,21.2551 -2.40355,7.20709 -3.69685,15.0945 -3.69685,23.4543z"/>
   <polygon id="_412612904" class="fil1" points="933.746,540.715 1330.88,540.715 1330.88,604.717 933.746,604.717 "/>
   <polygon id="_412615016" class="fil1" points="464.412,1479.39 1330.88,1479.39 1330.88,1543.39 464.412,1543.39 "/>
   <polygon id="_412616672" class="fil1" points="464.412,1262.77 1330.88,1262.77 1330.88,1326.77 464.412,1326.77 "/>
   <path id="_412612856" class="fil1" d="M997.914 911.32c-12.3827,-15.4984 -34.989,-18.0236 -50.4886,-5.64095 -15.4984,12.3839 -18.0236,34.9902 -5.63977,50.4886l144.41 180.513c-2.48622,2.53701 29.9658,27.5421 54.0496,2.64213l577.183 -577.182c14.0965,-14.0965 14.0965,-36.9555 0,-51.052 -14.0976,-14.0965 -36.9555,-14.0965 -51.052,0l-549.248 549.248 -119.213 -149.017z"/>
  </g>
 </g>
</svg>
