<svg xmlns="http://www.w3.org/2000/svg" width="11" height="11" viewBox="0 0 22 22"><g><g><path fill="#ef4e23" d="M10.543 15.457h2.53v2.586a2.602 2.602 0 0 0 2.595 2.595h3.218v1.026h-5.238a3.113 3.113 0 0 1-3.105-3.103z"/></g><g><path fill="#ef4e23" d="M2.518 6.302H4.29c4.609 0 8.418 3.585 8.784 8.104v2.367H7.29c-2.626 0-4.773-2.149-4.773-4.775z"/></g><g><path fill="#ef4e23" d="M2.518 8.23h3.038V3.623H2.518z"/></g><g><path fill="#58595b" d="M4.643 10.748c.2 0 .365.165.365.365 0 .2-.164.365-.365.365H2.379a.913.913 0 0 0-.91.909v.967a.696.696 0 0 1-.692.695H.082v-1.528a1.78 1.78 0 0 1 1.775-1.773z"/></g><g><path fill="#ef4e23" d="M3.955 2.713L5.015.875a.539.539 0 0 1 .932.539l-.75 1.3z"/></g><g><path fill="#ef4e23" d="M4.552 2.713L3.49.875a.541.541 0 0 0-.735-.197.54.54 0 0 0-.197.736l.75 1.3z"/></g><g><path fill="#58595b" d="M1.361 5.05h2.767a1.43 1.43 0 0 0 1.427-1.428c0-.785-.642-1.427-1.427-1.427H1.361c-.784 0-1.428.642-1.428 1.427 0 .786.644 1.427 1.428 1.427z"/></g><g><path fill="#fff" d="M3.651 2.774a.562.562 0 1 0 0 1.124.562.562 0 0 0 0-1.124z"/></g><g><path fill="#ef4e23" d="M18.799 20.638h1.56c.537 0 .976.439.976.976l-.002.05h-2.534z"/></g><g><path fill="#58595b" d="M10.543 16.773c0 2.824-3.102 4.891-6.063 4.891H2.598v-1.193H4.48c2.298 0 3.2-1.876 3.2-3.84z"/></g><g><path fill="#58595b" d="M10.543 16.773H8.228a2.322 2.322 0 0 1-2.315-2.316 2.322 2.322 0 0 1 2.315-2.316 2.322 2.322 0 0 1 2.315 2.316z"/></g></g></svg>