<svg xmlns="http://www.w3.org/2000/svg" width="67" height="67" viewBox="0 0 67 67"><g><g><path fill="#ffe9ce" d="M66.5.715H.572v65.928H66.5z"/></g><g><path fill="#dc8254" d="M41.927 55.166v-6.304h7.84a3.16 3.16 0 0 1 3.153 3.152 3.161 3.161 0 0 1-3.152 3.152z"/></g><g><path fill="#dc8254" d="M41.927 36.74v-6.305h7.84a3.162 3.162 0 0 1 3.153 3.153 3.16 3.16 0 0 1-3.152 3.152z"/></g><g><path fill="#a15641" d="M24.024 37.865v5.386c0 6.554 5.362 11.915 11.914 11.915h6.818V25.95h-6.818c-6.552 0-11.915 5.36-11.915 11.914z"/></g><g><path fill="#ffce8a" d="M28.815 12.193h19.647c3.45 0 6.273 2.823 6.273 6.273 0 3.45-2.823 6.273-6.273 6.273l-19.647-.001c-3.45 0-6.27-2.821-6.27-6.272 0-3.45 2.82-6.273 6.27-6.273z"/></g><g><path fill="#ffce8a" d="M30.169 15.249h16.94v10.884c0 4.658-3.81 8.471-8.47 8.471s-8.47-3.813-8.47-8.471z"/></g><g><path fill="#a15641" d="M35.06 20.213a1.608 1.608 0 1 1 .001 3.217 1.608 1.608 0 0 1-.001-3.217z"/></g><g><path fill="#a15641" d="M42.218 20.213c.889 0 1.607.72 1.607 1.608a1.607 1.607 0 1 1-3.215 0c0-.888.719-1.608 1.608-1.608z"/></g><g><path fill="#dc8254" d="M38.64 23.425a1.87 1.87 0 0 1 1.862 1.863v3.914a1.87 1.87 0 0 1-1.862 1.863 1.87 1.87 0 0 1-1.864-1.863v-3.914a1.87 1.87 0 0 1 1.864-1.863z"/></g><g><path fill="#ffce8a" d="M23.544 50.565v-3.646h4.533c1.003 0 1.823.82 1.823 1.823a1.83 1.83 0 0 1-1.823 1.823z"/></g><g><path fill="#ffce8a" d="M23.544 41.733v-3.646h4.533c1.003 0 1.823.82 1.823 1.823a1.829 1.829 0 0 1-1.823 1.823z"/></g><g><path fill="#e2cfc5" d="M13.192 40.561v3.115c0 3.788 3.101 6.889 6.89 6.889h3.942V33.672h-3.942c-3.789 0-6.89 3.1-6.89 6.889z"/></g><g><path fill="#dc8254" d="M15.963 25.717h11.36a3.637 3.637 0 0 1 3.626 3.627 3.638 3.638 0 0 1-3.626 3.627h-11.36a3.637 3.637 0 0 1-3.627-3.627 3.636 3.636 0 0 1 3.627-3.627z"/></g><g><path fill="#dc8254" d="M16.746 27.484h9.795v6.293a4.912 4.912 0 0 1-4.899 4.899c-2.693 0-4.896-2.204-4.896-4.9z"/></g><g><path fill="#a15641" d="M19.573 30.355c.514 0 .932.416.932.93a.931.931 0 0 1-1.863 0 .93.93 0 0 1 .931-.93z"/></g><g><path fill="#a15641" d="M23.712 30.355c.515 0 .929.416.929.93a.93.93 0 1 1-.929-.93z"/></g><g><path fill="#ffe9ce" d="M21.643 32.212a1.08 1.08 0 0 1 1.078 1.077v2.262a1.08 1.08 0 0 1-1.078 1.078 1.08 1.08 0 0 1-1.077-1.077v-2.263a1.08 1.08 0 0 1 1.077-1.077z"/></g></g></svg>