<?xml version="1.0" encoding="UTF-8"?>
<!DOCTYPE svg PUBLIC "-//W3C//DTD SVG 1.1//EN" "http://www.w3.org/Graphics/SVG/1.1/DTD/svg11.dtd">
<!-- Creator: CorelDRAW -->
<svg xmlns="http://www.w3.org/2000/svg" xml:space="preserve" width="6.82666in" height="6.82666in" style="shape-rendering:geometricPrecision; text-rendering:geometricPrecision; image-rendering:optimizeQuality; fill-rule:evenodd; clip-rule:evenodd"
viewBox="0 0 6.82666 6.82666"
 xmlns:xlink="http://www.w3.org/1999/xlink">
 <defs>
  <style type="text/css">
   <![CDATA[
    .fil1 {fill:none}
    .fil0 {fill:#ff7c6d}
    .fil3 {fill:#FFFFFE}
    .fil2 {fill:#FFFFFE;fill-rule:nonzero}
   ]]>
  </style>
 </defs>
 <g id="Layer_x0020_1">
  <metadata id="CorelCorpID_0Corel-Layer"/>
  <rect class="fil0" width="6.82666" height="6.82666"/>
  <rect class="fil1" x="0.853331" y="0.853331" width="5.12" height="5.12"/>
  <path class="fil2" d="M3.41333 0.746661c0.736366,0 1.40304,0.29848 1.88561,0.781059 0.482579,0.482575 0.781059,1.14924 0.781059,1.88561 0,0.736366 -0.29848,1.40304 -0.781059,1.88561 -0.482575,0.482579 -1.14924,0.781059 -1.88561,0.781059 -0.736366,0 -1.40304,-0.29848 -1.88561,-0.781059 -0.482579,-0.482575 -0.781059,-1.14924 -0.781059,-1.88561 0,-0.736366 0.29848,-1.40304 0.781059,-1.88561 0.482575,-0.482579 1.14924,-0.781059 1.88561,-0.781059zm1.73478 0.931894c-0.443957,-0.443961 -1.0573,-0.718555 -1.73478,-0.718555 -0.67748,0 -1.29082,0.274594 -1.73478,0.718555 -0.443961,0.443957 -0.718555,1.0573 -0.718555,1.73478 0,0.67748 0.274594,1.29082 0.718555,1.73478 0.443957,0.443961 1.0573,0.718555 1.73478,0.718555 0.67748,0 1.29082,-0.274594 1.73478,-0.718555 0.443961,-0.443957 0.718555,-1.0573 0.718555,-1.73478 0,-0.67748 -0.274594,-1.29082 -0.718555,-1.73478z"/>
  <circle class="fil3" cx="2.43197" cy="2.55999" r="0.213335"/>
  <circle class="fil3" cx="4.31992" cy="2.55999" r="0.213335"/>
  <path class="fil2" d="M3.41333 3.62041l1.46196 -3.93701e-006 0.106669 -3.93701e-006 0 0.106256 0 3.93701e-006c0,0.433154 -0.175579,0.825311 -0.459453,1.10918 -0.28387,0.283874 -0.676028,0.459453 -1.10918,0.459453 -0.433154,0 -0.825311,-0.175579 -1.10918,-0.459453 -0.283874,-0.28387 -0.459453,-0.676028 -0.459453,-1.10918l0 -0.106669 0.106669 0 1.46196 0 0 0.000417323zm1.35118 0.2125l-1.35118 3.93701e-006 0 0.000417323 -1.35115 0c0.0258268,0.331736 0.171071,0.629949 0.392799,0.851677 0.245252,0.245256 0.584079,0.396949 0.958346,0.396949 0.374268,0 0.713094,-0.151693 0.958346,-0.396949 0.221823,-0.221819 0.367098,-0.520193 0.392835,-0.852098z"/>
 </g>
</svg>
