<svg xmlns="http://www.w3.org/2000/svg" width="8.5" height="10.5" viewBox="0 0 17 21"><g><g><path fill="#231f20" d="M15.99 20.414H4.583a2.195 2.195 0 0 1-2.191-2.19c0-1.206.985-2.19 2.19-2.19h9.542a.726.726 0 0 0 .722-.723v-2.43h1.71v2.43a2.438 2.438 0 0 1-2.432 2.433H4.582a.483.483 0 0 0-.48.48c0 .262.218.48.48.48H15.99a.855.855 0 1 1 0 1.71z"/></g><g><path fill="#231f20" d="M3.048 15.095a.672.672 0 0 1 0-1.341h1.468c.794 0 1.443-.649 1.443-1.442V4.708h2.258c4.585 0 8.337 3.752 8.337 8.338v2.05z"/></g><g><path fill="#d2baaf" d="M15.86 9.725c.1.229.19.461.27.699L11.697 11.7zm-1.472-2.272c.167.183.324.374.473.57l-3.776 2.566zm-2.036-1.64c.216.124.427.259.63.402L9.98 9.725z"/></g><g><path fill="#231f20" d="M16.554 12.945v2.15H14.63v-.001a2.008 2.008 0 0 0 1.917-2.001v-.148z"/></g><g><path fill="#eadacd" d="M5.003 9.146C.253 4.396-.177 5.119 1.291.1a5.011 5.011 0 0 1 1.913 2.688c1.457-1.488 3.934-1.485 5.39.001A5.009 5.009 0 0 1 10.508.1c1.467 5.021 1.037 4.296-3.714 9.047-.474.475-1.317.473-1.79-.001z"/></g><g><path fill="#231f20" d="M7.815 2.923a1.82 1.82 0 1 1 .001 3.64 1.82 1.82 0 0 1 0-3.64z"/></g><g><path fill="#fff" d="M7.815 4.012a.73.73 0 1 1 .001 1.461.73.73 0 0 1 0-1.46z"/></g><g><path fill="#231f20" d="M3.983 2.923a1.82 1.82 0 1 0 0 3.639 1.82 1.82 0 0 0 0-3.639z"/></g><g><path fill="#fff" d="M3.983 4.012a.73.73 0 1 0 0 1.461.73.73 0 0 0 0-1.46z"/></g></g></svg>