<svg xmlns="http://www.w3.org/2000/svg" width="67" height="67" viewBox="0 0 67 67"><g><g><path fill="#daac9e" d="M66.787.788H.859v65.928h65.928z"/></g><g><path fill="#4e2728" d="M50.385 56.808h-25.9a4.983 4.983 0 0 1-4.972-4.973 4.982 4.982 0 0 1 4.973-4.972l21.658-.001c.896 0 1.637-.74 1.637-1.636v-5.52h3.882v5.52a5.53 5.53 0 0 1-5.52 5.519H24.487c-.596 0-1.09.494-1.09 1.09 0 .596.494 1.09 1.09 1.09h25.899a1.941 1.941 0 0 1 0 3.883z"/></g><g><path fill="#fff" d="M45.796 46.861h.347c.472 0 .902-.205 1.202-.53l1.968 3.408a5.532 5.532 0 0 1-1.437.726z"/></g><g><path fill="#fff" d="M43.456 46.861h1.607v3.883h-1.607zm-3.326 0h1.607v3.883H40.13zm-3.324 0h1.607v3.883h-1.607zm-3.325 0h1.607v3.883h-1.607zm-3.325 0h1.606v3.883h-1.606zm1.607 9.947h-1.606v-3.882h1.606zm3.325 0h-1.607v-3.882h1.607zm3.325 0h-1.607v-3.882h1.607zm3.324 0H40.13v-3.882h1.607zm3.326 0h-1.607v-3.882h1.607zm3.324 0H46.78v-3.882h1.607z"/></g><g><path fill="#fff" d="M26.831 46.861h1.607v3.883h-1.607z"/></g><g><path fill="#fff" d="M21.859 47.616a4.91 4.91 0 0 1 1.528-.63l2.73 3.759h-1.631c-.11 0-.218.017-.32.048z"/></g><g><path fill="#fff" d="M19.579 52.639a4.956 4.956 0 0 1 0-1.607h4.175c-.22.2-.358.487-.358.803 0 .316.139.603.358.804z"/></g><g><path fill="#fff" d="M23.434 56.695a4.936 4.936 0 0 1-1.537-.618l2.316-3.187c.087.022.18.035.273.035h1.687z"/></g><g><path fill="#fff" d="M28.438 56.808h-1.607v-3.882h1.607z"/></g><g><path fill="#a15641" d="M21.004 44.734a1.526 1.526 0 0 1-1.52-1.52v-.002c0-.837.683-1.522 1.52-1.522h3.334a3.282 3.282 0 0 0 3.273-3.273v-17.26h5.127c10.41 0 18.924 8.516 18.924 18.924v4.653z"/></g><g><path fill="#cba497" d="M50.086 32.545c.227.517.431 1.047.612 1.587l-10.064 2.896zm-3.343-5.157c.377.415.734.847 1.074 1.294l-8.569 5.824zm-4.623-3.725c.492.283.97.588 1.433.913l-6.813 7.97z"/></g><g><path fill="#fff" d="M25.443 31.23c-10.783-10.784-11.761-9.14-8.428-20.535a11.368 11.368 0 0 1 4.344 6.101c3.308-3.374 8.929-3.37 12.235.002a11.36 11.36 0 0 1 4.344-6.1c3.332 11.395 2.355 9.751-8.428 20.534-1.076 1.076-2.991 1.073-4.067-.002z"/></g><g><path fill="#4e2728" d="M31.826 17.107a4.13 4.13 0 1 1 0 8.26 4.13 4.13 0 0 1 0-8.26z"/></g><g><path fill="#ffe9ce" d="M31.826 19.578a1.659 1.659 0 1 1 0 3.317 1.659 1.659 0 0 1 0-3.317z"/></g><g><path fill="#4e2728" d="M23.127 17.107a4.13 4.13 0 1 0 0 8.26 4.13 4.13 0 0 0 0-8.26z"/></g><g><path fill="#ffe9ce" d="M23.127 19.578a1.66 1.66 0 1 0 0 3.318 1.66 1.66 0 0 0 0-3.318z"/></g></g></svg>