<svg xmlns="http://www.w3.org/2000/svg" width="67" height="67" viewBox="0 0 67 67"><g><g><path fill="#ffe9ce" d="M66.5.571H.572v65.93H66.5z"/></g><g><path fill="#f58b43" d="M18.764 44.502v4.711c0 .63.514 1.147 1.144 1.147.63 0 1.148-.517 1.148-1.147v-4.71zm-4.587 0v4.711c0 .63.516 1.147 1.147 1.147a1.15 1.15 0 0 0 1.145-1.147v-4.71zm19.58-14.179h-9.781v14.18h3.05v4.71a1.15 1.15 0 0 0 1.145 1.147 1.15 1.15 0 0 0 1.147-1.147v-4.71h2.293v4.71c0 .628.515 1.147 1.146 1.147a1.15 1.15 0 0 0 1.147-1.147v-4.71h4.254c3.899 0 7.09-3.192 7.09-7.09V25.3a2.245 2.245 0 0 1 2.238-2.237h5.209c.86 0-.105.02.86.02a3.194 3.194 0 0 0 3.184-3.187v-1.27a1.92 1.92 0 0 0-1.916-1.914c-9.3 0-16.716.03-26.018.03a3.678 3.678 0 0 0-3.67 3.67 3.681 3.681 0 0 0 3.67 3.671h3.342v-2.507c0-.444.362-.806.805-.806.443 0 .805.363.805.806z"/></g><g><path fill="#fff" d="M39 18.196a3.558 3.558 0 1 0 0 7.116 3.558 3.558 0 0 0 0-7.116z"/></g><g><path fill="#693939" d="M39 19.865a1.887 1.887 0 1 0-.004 3.774A1.887 1.887 0 0 0 39 19.865z"/></g><g><path fill="#a15641" d="M14.177 44.502h19.728V30.323h-12.64c-3.9 0-7.088 3.19-7.088 7.09z"/></g></g></svg>