<svg xmlns="http://www.w3.org/2000/svg" width="9" height="10.5" viewBox="0 0 18 21"><g><g><path fill="#f48120" d="M17.591 16.694a4.347 4.347 0 0 1-4.339 4.095c-3.815 0-7.629-.005-11.443-.005v-.502c3.814 0 7.628.005 11.443.005a3.845 3.845 0 0 0 3.836-3.593z"/></g><g><path fill="#a03129" d="M2.219 19.28a.663.663 0 0 1-.661-.662c0-.363.297-.66.66-.66h2.826c.78 0 1.42-.64 1.42-1.422V6.256H8.69c.386 0 .767.028 1.14.081v4.837a2.435 2.435 0 0 0 2.429 2.428h.993a2.84 2.84 0 1 1 0 5.681c-3.678 0-7.355-.004-11.033-.004z"/></g><g><path fill="#f48120" d="M6.463.025a6.543 6.543 0 1 1 0 13.086 6.543 6.543 0 0 1 0-13.086z"/></g><g><path fill="#fff" d="M2.923 3.344a1.41 1.41 0 0 1 1.989 0l1.552 1.552-1.99 1.99-1.551-1.553a1.41 1.41 0 0 1 0-1.989z"/></g><g><path fill="#fff" d="M10.005 3.344a1.412 1.412 0 0 0-1.99 0L6.463 4.896l1.99 1.99 1.552-1.553a1.412 1.412 0 0 0 0-1.989z"/></g><g><path fill="#a03129" d="M4.59 6.164h3.747v3.66a.84.84 0 0 1-.838.84h-2.07a.84.84 0 0 1-.838-.84z"/></g><g><path fill="#a03129" d="M4.723 3.866h3.481c.838 0 1.524.686 1.524 1.525v1.234c0 .84-.686 1.525-1.524 1.525h-3.48A1.527 1.527 0 0 1 3.2 6.625V5.391c0-.839.685-1.525 1.523-1.525z"/></g><g><path fill="#fff" d="M5.276 6.14l.63.364a.376.376 0 0 1-.376.65l-.63-.363a.376.376 0 0 1 .376-.65z"/></g><g><path fill="#fff" d="M7.652 6.14l-.63.364a.376.376 0 0 0 .376.651l.629-.364a.376.376 0 0 0-.375-.65z"/></g></g></svg>