<svg xmlns="http://www.w3.org/2000/svg" width="65" height="52" viewBox="0 0 65 52"><g><g><path fill="#784445" d="M.949.344h63.366v50.869H.949z"/></g><g><path fill="#db8155" d="M12.253 42.415V46.198a2.595 2.595 0 0 0 2.589 2.587 2.595 2.595 0 0 0 2.588-2.587v-7.836a2.596 2.596 0 0 1 2.588-2.588 2.597 2.597 0 0 1 2.589 2.588v7.795a2.597 2.597 0 0 0 2.588 2.59 2.597 2.597 0 0 0 2.588-2.59v-7.834a2.595 2.595 0 0 1 2.588-2.588c3.45 0 6.9.039 10.353.039a2.595 2.595 0 0 1 2.588 2.588v7.795a2.597 2.597 0 0 0 2.588 2.59 2.597 2.597 0 0 0 2.588-2.59v-7.834a2.595 2.595 0 0 1 2.588-2.588 2.596 2.596 0 0 1 2.589 2.588V46.157a2.597 2.597 0 0 0 2.588 2.59 2.596 2.596 0 0 0 2.587-2.59v-3.759c-.008-12.806-10.49-23.281-23.297-23.281-12.814 0-23.29 10.484-23.29 23.298z"/></g><g><path fill="#db8155" d="M59.184 16.97c.564.324.759 1.051.434 1.614l-6.235 10.8-2.05-1.183 6.235-10.8a1.186 1.186 0 0 1 1.616-.432z"/></g><g><path fill="#f4a12e" d="M20.018 5.995c7.94 0 19.64 10.468 14.374 17.842L20.018 43.968 5.644 23.838C.38 16.462 12.08 5.994 20.018 5.994z"/></g><g><path fill="#ffe9ce" d="M13.719 24.075a5.232 5.232 0 0 1-2.972-4.704c0-2.869 2.347-5.216 5.215-5.216h8.112c2.87 0 5.216 2.347 5.216 5.215a5.237 5.237 0 0 1-2.972 4.706v2.317c0 3.466-2.834 6.3-6.3 6.3-3.465 0-6.3-2.834-6.3-6.3z"/></g><g><path d="M19.194 25.04h1.65c.502 0 1.109.45.913.914-.801 1.89-2.66 1.876-3.476 0-.201-.461.412-.913.913-.913z"/></g><g><path fill="#784445" d="M17.555 19.979a1.615 1.615 0 1 1 0 3.23 1.615 1.615 0 0 1 0-3.23z"/></g><g><path fill="#784445" d="M22.481 19.979a1.616 1.616 0 1 1 0 3.231 1.616 1.616 0 0 1 0-3.232z"/></g><g><path fill="#f4a12e" d="M61.428 13.108c2.25 12.82-12.226 4.461 0 0"/></g></g></svg>