<?xml version="1.0" encoding="UTF-8"?>
<!DOCTYPE svg PUBLIC "-//W3C//DTD SVG 1.1//EN" "http://www.w3.org/Graphics/SVG/1.1/DTD/svg11.dtd">
<!-- Creator: CorelDRAW -->
<svg xmlns="http://www.w3.org/2000/svg" xml:space="preserve" width="2048px" height="2048px" style="shape-rendering:geometricPrecision; text-rendering:geometricPrecision; image-rendering:optimizeQuality; fill-rule:evenodd; clip-rule:evenodd"
viewBox="0 0 2048 2048"
 xmlns:xlink="http://www.w3.org/1999/xlink">
 <defs>
  <style type="text/css">
   <![CDATA[
    .fil0 {fill:#464549}
    .fil1 {fill:white}
    .fil2 {fill:white;fill-rule:nonzero}
   ]]>
  </style>
 </defs>
 <rect class="fil0" width="2048" height="2048"/>
 <g id="Layer_x0020_1">
  <metadata id="CorelCorpID_0Corel-Layer"/>
  <g id="_412670512">
   <path id="_412672144" class="fil1" d="M627.618 500.954l-0.61063 142.427c-13.8543,4.87441 -23.8087,18.1382 -23.8087,33.6815 0,11.5819 5.38937,21.8386 13.8543,28.4292 -2.70473,19.6205 -11.7602,33.7701 -22.6288,43.9382 -8.78032,8.07993 -13.3453,19.6406 -12.5563,31.5047 0.686221,11.8701 6.79016,22.813 16.4362,29.7059l4.99725 3.56929c9.15827,6.48071 20.6162,8.87717 31.5874,6.26812 11.074,-2.47087 20.4449,-9.46064 25.9229,-19.2083 18.9354,-33.9083 9.74883,-77.8465 3.47481,-98.8678 6.48071,-6.48071 10.5579,-15.4677 10.5579,-25.3394 0,-15.4406 -9.8445,-28.7044 -23.602,-33.6815l0.486615 -135.946 -24.111 -6.48071z"/>
   <path id="_412670392" class="fil2" d="M1014.75 1237.87c-56.6682,0 -124.375,-38.713 -179.418,-89.5855l0 -0.125197c-55.6111,-51.3993 -100.002,-116.973 -108.142,-168.727 -3.47362,-4.74449 -7.2815,-7.92402 -10.8744,-10.9252 -11.5925,-9.68032 -22.1362,-18.489 -30.4229,-42.5906 -4.01929,-11.6906 -7.52481,-22.904 -10.1339,-34.8414 -2.73307,-12.4973 -4.35118,-25.2319 -4.35118,-39.1394 0,-16.8839 0.346063,-27.137 3.38032,-38.478 3.12402,-11.6728 8.11182,-20.6634 17.2701,-34.4681 1.51417,-2.28307 2.62914,-4.3004 3.34843,-6.11221 0.754725,-1.90276 1.30394,-3.95315 1.66299,-6.23741l0 -0.124016c4.63701,-29.3114 9.01182,-66.4784 12.2197,-104.336 2.72717,-32.1744 4.48937,-64.2107 4.67953,-91.3347l-71.6835 -43.0099c-0.472441,-0.283465 -0.00944883,0.0555119 -1.14213,-0.522048 -2.00906,-1.02284 -2.74961,-1.39843 -2.86299,-1.45158l-64.7717 -30.7477 66.1465 -27.6284c4.42914,-1.84961 5.99764,-2.51575 7.31103,-3.07677 3.82205,-1.62756 7.73741,-3.29764 8.65749,-3.67914l347.294 -144.411 12.2504 -5.09292 12.2504 5.09292 347.294 144.411c0.920079,0.381496 4.83544,2.05158 8.65749,3.67914 1.31339,0.561024 2.88189,1.22717 7.31103,3.07677l66.1465 27.6284 -64.7717 30.7477c-0.113386,0.0531496 -0.853938,0.42874 -2.86299,1.45158 -1.13268,0.577559 -0.669686,0.238583 -1.14213,0.522048l-71.6835 43.0099c0.190158,27.124 1.95236,59.1603 4.67953,91.3347 3.20788,37.8579 7.58268,75.0249 12.2197,104.336l0 0.124016c0.359055,2.28425 0.908268,4.33465 1.66299,6.23741 0.719292,1.81181 1.83425,3.82914 3.34843,6.11221 9.15827,13.8047 14.1461,22.7953 17.2701,34.4681 3.03425,11.341 3.38032,21.5941 3.38032,38.478 0,13.9075 -1.61811,26.6421 -4.35118,39.1394 -2.60906,11.9374 -6.11457,23.1508 -10.1339,34.8414 -8.28662,24.1016 -18.8303,32.9103 -30.4229,42.5906 -3.5941,3.00118 -7.40197,6.18189 -10.8756,10.9264 -8.1567,51.8174 -52.6973,117.369 -108.445,168.727 -55.2863,50.9327 -123.263,89.7095 -179.949,89.7095zm-136.231 -136.519l0.0625985 -0.0673229c44.5973,41.2181 96.5753,72.5847 136.168,72.5847 39.6626,0 91.8898,-31.428 136.7,-72.7087 48.1678,-44.3752 85.8461,-98.1119 88.9406,-135.154l4.0004 -12.874c10.0913,-18.1406 19.7043,-26.1697 28.6288,-33.6236 4.40197,-3.67559 8.40591,-7.02166 10.9228,-14.341 3.35906,-9.76891 6.22441,-18.8492 8.13544,-27.5918 1.78937,-8.18268 2.84882,-16.526 2.84882,-25.6394 0,-11.6008 -0.115748,-18.1902 -1.12913,-21.978 -0.923623,-3.45236 -3.5752,-7.88505 -8.77087,-15.7169 -3.70748,-5.59016 -6.79961,-11.4413 -9.34843,-17.8642 -2.49685,-6.29764 -4.27559,-12.8256 -5.39292,-19.865l-0.0188977 0.00354331c-5.11536,-32.3386 -9.76418,-71.2276 -12.9709,-109.084 -3.04488,-35.9221 -4.94764,-71.7213 -4.94764,-101.414l0 -13.161 0 -18 15.626 -9.3756 39.3237 -23.5937 -292.129 -121.473 -292.129 121.473 39.3237 23.5937 15.626 9.3756 0 18 0 13.161c0,29.6929 -1.90276,65.4922 -4.94764,101.414 -3.2067,37.8567 -7.85552,76.7457 -12.9709,109.084l-0.0188977 -0.00354331c-1.11732,7.03938 -2.89607,13.5673 -5.39292,19.865 -2.54882,6.42284 -5.64095,12.274 -9.34843,17.8642 -5.19567,7.8319 -7.84725,12.2646 -8.77087,15.7169 -1.01339,3.7878 -1.12913,10.3772 -1.12913,21.978 0,9.11339 1.05945,17.4567 2.84882,25.6394 1.91103,8.74253 4.77638,17.8228 8.13544,27.5918 2.51693,7.3193 6.52087,10.6654 10.9228,14.341 8.92442,7.45394 18.5374,15.4831 28.6288,33.6236l4.0004 12.874c3.1063,37.1788 40.5981,90.9875 88.5733,135.345z"/>
   <path id="_412670704" class="fil2" d="M483.195 1520.18l0 16.141 -0.125197 0.375591c-0.372048,26.1083 27.2351,50.6067 73.0642,72.3296 70.0867,33.2209 177.212,55.9217 296.401,67.1788 120.469,11.3776 252.677,10.8933 371.436,-2.34921 174.782,-19.4882 317.531,-64.3973 338.983,-136.417l0.034252 0.0106299c0.604725,-2.05512 1.06536,-4.19764 1.38425,-6.41339 0.28937,-2.01024 0.432284,-4.30985 0.432284,-6.87993 0,-85.128 -39.1677,-141.214 -96.0272,-178.271 -55.6453,-36.2658 -128.378,-55.741 -199.71,-66.456 -40.9819,61.6453 -87.2883,104.691 -135.499,130.909 -42.091,22.891 -85.532,32.9941 -128.211,31.4882 -42.6863,-1.50709 -84.1831,-14.576 -122.424,-38.0303 -43.2945,-26.5547 -82.4351,-66.4548 -114.245,-117.885 -22.4221,6.09686 -42.8788,10.9772 -62.2737,15.6036 -113.092,26.9799 -186.634,44.5559 -223.22,218.666zm-63.8776 16.141l-0.124016 0 0 -18.9555 0.751182 -6.3756c44.53,-217.525 133.858,-238.838 271.721,-271.727 26.4851,-6.31772 54.9213,-13.1032 83.1379,-21.4358l24.6768 -7.28859 12.3236 22.663c28.3736,52.1741 64.4351,91.5922 104.38,116.093 28.9878,17.7791 59.9847,27.6709 91.4245,28.7799 31.4481,1.11024 63.7772,-6.50788 95.4591,-23.7378 43.2,-23.4933 85.3182,-64.7422 122.852,-125.935l10.8177 -17.6374 20.4331 2.6374c85.5816,11.0445 176.152,33.2292 246.357,78.9839 74.1792,48.3449 125.278,121.303 125.278,231.77 0,5.07874 -0.392126,10.3772 -1.18347,15.8799 -0.744095,5.17678 -1.88268,10.3606 -3.41929,15.528l0 0.125197c-29.9776,100.65 -194.566,159.516 -393.233,181.668 -122.654,13.676 -259.497,14.1484 -384.435,2.34921 -126.217,-11.9197 -240.871,-36.5339 -317.652,-72.9284 -68.765,-32.5937 -110.151,-75.9875 -109.566,-130.456z"/>
  </g>
 </g>
</svg>
