<?xml version="1.0" encoding="UTF-8"?>
<!DOCTYPE svg PUBLIC "-//W3C//DTD SVG 1.1//EN" "http://www.w3.org/Graphics/SVG/1.1/DTD/svg11.dtd">
<!-- Creator: CorelDRAW -->
<svg xmlns="http://www.w3.org/2000/svg" xml:space="preserve" width="6.82666in" height="6.82666in" style="shape-rendering:geometricPrecision; text-rendering:geometricPrecision; image-rendering:optimizeQuality; fill-rule:evenodd; clip-rule:evenodd"
viewBox="0 0 6.82666 6.82666"
 xmlns:xlink="http://www.w3.org/1999/xlink">
 <defs>
  <style type="text/css">
   <![CDATA[
    .fil0 {fill:none}
    .fil1 {fill:#1E88E5}
    .fil2 {fill:#FFFFFE;fill-rule:nonzero}
   ]]>
  </style>
 </defs>
 <g id="Layer_x0020_1">
  <metadata id="CorelCorpID_0Corel-Layer"/>
  <rect class="fil0" width="6.82666" height="6.82666"/>
  <rect class="fil0" x="0.853331" y="0.853331" width="5.12" height="5.12"/>
  <rect class="fil0" width="6.82666" height="6.82666"/>
  <rect class="fil0" x="0.853331" y="0.853331" width="5.12" height="5.12"/>
  <rect class="fil1" width="6.82666" height="6.82666"/>
  <rect class="fil0" x="0.853331" y="0.853331" width="5.12" height="5.12"/>
  <path class="fil2" d="M3.41333 0.746661c0.736366,0 1.40304,0.29848 1.88561,0.781059 0.482579,0.482575 0.781059,1.14924 0.781059,1.88561 0,0.736366 -0.29848,1.40304 -0.781059,1.88561 -0.482575,0.482579 -1.14924,0.781059 -1.88561,0.781059 -0.736366,0 -1.40304,-0.29848 -1.88561,-0.781059 -0.482579,-0.482575 -0.781059,-1.14924 -0.781059,-1.88561 0,-0.736366 0.29848,-1.40304 0.781059,-1.88561 0.482575,-0.482579 1.14924,-0.781059 1.88561,-0.781059zm1.73478 0.931894c-0.443957,-0.443961 -1.0573,-0.718555 -1.73478,-0.718555 -0.67748,0 -1.29082,0.274594 -1.73478,0.718555 -0.443961,0.443957 -0.718555,1.0573 -0.718555,1.73478 0,0.67748 0.274594,1.29082 0.718555,1.73478 0.443957,0.443961 1.0573,0.718555 1.73478,0.718555 0.67748,0 1.29082,-0.274594 1.73478,-0.718555 0.443961,-0.443957 0.718555,-1.0573 0.718555,-1.73478 0,-0.67748 -0.274594,-1.29082 -0.718555,-1.73478z"/>
  <polygon class="fil2" points="4,2.29332 4.53333,2.29332 4.53333,2.50666 4,2.50666 "/>
  <polygon class="fil2" points="2.18667,2.29333 2.72,2.29333 2.72,2.50667 2.18667,2.50667 "/>
  <path class="fil2" d="M4.58735 4.80755c-0.120878,-0.20937 -0.293374,-0.378756 -0.496366,-0.495953l0.000102362 -0.000181102c-0.20224,-0.116689 -0.435165,-0.181098 -0.677752,-0.181098 -0.242587,0 -0.475512,0.0644094 -0.677752,0.181098l0.000102362 0.000181102c-0.202992,0.117197 -0.375488,0.286583 -0.496366,0.495953l-0.184165 -0.105835c0.140272,-0.242961 0.339681,-0.439079 0.573862,-0.574283l0.000417323 0c0.23487,-0.135598 0.504315,-0.210453 0.783902,-0.210453 0.279587,0 0.549031,0.0748543 0.783902,0.210453l0.000417323 0c0.234181,0.135205 0.433591,0.331323 0.573862,0.574283l-0.184165 0.105835z"/>
 </g>
</svg>
