<svg xmlns="http://www.w3.org/2000/svg" width="11.5" height="9" viewBox="0 0 23 18"><g><g><path fill="#eaa628" d="M3.285 8.336l-1.39-1.391a.82.82 0 0 0-1.156 0 .819.819 0 0 0 0 1.157l1.39 1.39z"/></g><g><path fill="#eaa628" d="M3.455 14.458v2.338c0 .313.255.57.57.57a.571.571 0 0 0 .568-.57v-2.338zm-2.279 0v2.338c0 .313.258.57.571.57a.571.571 0 0 0 .57-.57v-2.338zm9.725-7.042H6.043v5.032l.032-.001c.815 0 1.483.666 1.483 1.482v2.867c0 .312.256.57.57.57a.57.57 0 0 0 .568-.57v-2.583a.57.57 0 0 1 .57-.57c.313 0 .57.256.57.57v2.583c0 .312.255.57.568.57.313 0 .57-.257.57-.57v-2.338h2.113a3.532 3.532 0 0 0 3.521-3.521V4.922c0-.612.5-1.112 1.111-1.112h2.586c.428 0-.052.009.428.009.87 0 1.581-.711 1.581-1.582v-.63a.954.954 0 0 0-.95-.951c-4.62 0-8.303.015-12.922.015-1.003 0-1.823.82-1.823 1.822 0 1.003.82 1.823 1.823 1.823h1.66V3.072c0-.22.18-.4.4-.4.22 0 .4.18.4.4z"/></g><g><path fill="#fff" d="M13.505 1.394a1.767 1.767 0 1 0 0 3.533 1.767 1.767 0 0 0 0-3.533z"/></g><g><path fill="#888433" d="M13.505 2.222a.938.938 0 1 0 0 1.876.938.938 0 0 0 0-1.876z"/></g><g><path fill="#888433" d="M1.177 17.373h1.139v-3.16a.57.57 0 0 1 1.138 0v3.16h1.14V13.93c0-.816.667-1.482 1.482-1.482s1.482.666 1.482 1.483v3.444h1.139v-3.161a.57.57 0 0 1 1.139 0v3.16h1.139v-2.916l-.073-7.042H4.698a3.53 3.53 0 0 0-3.521 3.521z"/></g><g><path fill="#e1cfc5" d="M1.177 16.221h1.139v1.154H1.177zm2.277 0h1.139v1.154H3.454zm4.104 0h1.138v1.154H7.558zm2.277 0h1.139v1.154H9.835z"/></g><g><path fill="#e1cfc5" d="M4.105 7.466c-.226.04-.444.1-.652.18l.318 3.463z"/></g><g><path fill="#e1cfc5" d="M6.23 7.416h-.677l.338 3.693z"/></g><g><path fill="#e1cfc5" d="M8.351 7.416h-.677l.34 3.693z"/></g><g><path fill="#e1cfc5" d="M10.473 7.416h-.677l.338 3.693z"/></g><g><path fill="#e1cfc5" d="M5.08 7.416h-.382l-.116.002.25 2.712z"/></g><g><path fill="#e1cfc5" d="M7.202 7.416h-.498l.248 2.714z"/></g><g><path fill="#e1cfc5" d="M9.322 7.416h-.498l.25 2.714z"/></g></g></svg>