<svg xmlns="http://www.w3.org/2000/svg" width="11.5" height="12.5" viewBox="0 0 23 25"><g><g><path fill="#692510" d="M2.961 21.771l1.851-3.206c2.018-3.495 6.525-4.702 10.021-2.685 2.963 1.712 4.281 5.211 3.385 8.366h-1.15c.937-2.757-.173-5.905-2.784-7.413-2.97-1.715-6.806-.687-8.52 2.282l-1.85 3.206z"/></g><g><path fill="#692510" d="M10.618 8.998l.55-.952-9.875-5.693-.55.952z"/></g><g><path fill="#692510" d="M12.865 8.47h.002c3.898 1.044 7.94-1.29 8.985-5.188L22.649.31 21.586.025l-.796 2.973c-.887 3.312-4.327 5.297-7.638 4.41h-.003z"/></g><g><path fill="#8b270e" d="M9.374 15.409c.13 4.237 6.814 4.259 6.925-.025.038-1.483-1.015-4.594-1.015-7.695h-4.896c0 3.045-1.056 6.31-1.014 7.72z"/></g><g><path fill="#692510" d="M15.799 2.811H9.874c-.847 0-1.54.693-1.54 1.541 0 .847.693 1.54 1.54 1.54h5.925c.847 0 1.54-.693 1.54-1.54 0-.848-.693-1.541-1.54-1.541z"/></g><g><path fill="#f48120" d="M12.837 1.488a3.03 3.03 0 0 0-3.022 3.02v1.739a3.031 3.031 0 0 0 3.022 3.022 3.03 3.03 0 0 0 3.02-3.022V4.509a3.03 3.03 0 0 0-3.02-3.021z"/></g><g><path fill="#8b270e" d="M10.33 6.314a2.514 2.514 0 0 0 2.507 2.508 2.516 2.516 0 0 0 2.508-2.508v-.141h-.284v.14a2.232 2.232 0 0 1-2.224 2.226 2.232 2.232 0 0 1-2.225-2.225v-.141h-.282z"/></g><g><path fill="#fcf8cd" d="M13.843 3.246a.81.81 0 1 0 .81.809.808.808 0 0 0-.81-.809z"/></g><g><path fill="#fcf8cd" d="M11.829 3.246a.81.81 0 1 0 .81.809.808.808 0 0 0-.81-.809z"/></g></g></svg>