<svg xmlns="http://www.w3.org/2000/svg" width="67" height="67" viewBox="0 0 67 67"><g><g><path fill="#ffce8a" d="M66.715.788H.787v65.928h65.928z"/></g><g><path fill="#dc8254" d="M33.75 23.41c7.606 0 13.83 6.224 13.83 13.83v19.694h-3.213V37.92c0-5.84-4.777-10.615-10.616-10.615-5.838 0-10.615 4.777-10.615 10.615v19.013h-3.212V37.24c0-7.606 6.222-13.83 13.827-13.83z"/></g><g><path fill="#dc8254" d="M26.139 26.623h15.225v30.311H38.5v-8.573a4.763 4.763 0 0 0-4.75-4.75 4.763 4.763 0 0 0-4.748 4.75v8.574h-2.863z"/></g><g><path fill="#a15641" d="M23.392 15.808H44.11a4.869 4.869 0 0 1 4.854 4.854 4.87 4.87 0 0 1-4.854 4.854H23.392a4.869 4.869 0 0 1-4.854-4.854 4.868 4.868 0 0 1 4.854-4.854z"/></g><g><path fill="#ffe9ce" d="M23.392 17.759H44.11a2.911 2.911 0 0 1 2.903 2.903 2.91 2.91 0 0 1-2.903 2.902H23.392a2.91 2.91 0 0 1-2.903-2.902 2.911 2.911 0 0 1 2.903-2.903z"/></g><g><path fill="#f58b43" d="M33.75 10.57c5.782 0 10.513 4.729 10.513 10.51 0 5.782-4.731 10.51-10.512 10.51-5.78 0-10.51-4.728-10.51-10.51 0-5.781 4.73-10.51 10.51-10.51z"/></g><g><path fill="#ffe9ce" d="M33.75 17.608a4.659 4.659 0 0 1 4.647 4.645v7.15a4.659 4.659 0 0 1-4.646 4.644 4.657 4.657 0 0 1-4.644-4.645v-7.149a4.658 4.658 0 0 1 4.644-4.645z"/></g><g><path fill="#ffe9ce" d="M29.98 15.953a4.994 4.994 0 1 1-.001 9.988 4.994 4.994 0 0 1 .002-9.988z"/></g><g><path fill="#ffe9ce" d="M37.523 15.953a4.994 4.994 0 1 1 0 9.988 4.994 4.994 0 0 1 0-9.988z"/></g><g><path fill="#693939" d="M29.98 18.538a2.41 2.41 0 1 1 0 4.819 2.41 2.41 0 0 1 0-4.82z"/></g><g><path fill="#693939" d="M37.523 18.538a2.41 2.41 0 1 1 0 4.82 2.41 2.41 0 0 1 0-4.82z"/></g><g><path fill="#cba497" d="M32.494 24.425c.48 0 .873.393.873.873v1.467c0 .48-.394.873-.873.873a.876.876 0 0 1-.873-.873v-1.467c0-.48.393-.873.873-.873z"/></g><g><path fill="#cba497" d="M35.008 24.425c.48 0 .873.393.873.873v1.467c0 .48-.392.873-.873.873a.876.876 0 0 1-.872-.873v-1.467c0-.48.393-.873.872-.873z"/></g></g></svg>