<svg xmlns="http://www.w3.org/2000/svg" width="49" height="53" viewBox="0 0 49 53"><g><g><path fill="#cba397" d="M48.911.731H.178v51.613h48.733z"/></g><g><path fill="#ffe9ce" d="M26.136 18.054h18.167v2.244H26.136z"/></g><g><path fill="#ffe9ce" d="M21.413 20.47h-.005C13.17 20.47 6.437 13.737 6.437 5.5V.732H8.68v4.767c0 6.999 5.73 12.728 12.728 12.728h.005z"/></g><g><path fill="#ffe9ce" d="M28.53 34.554c-.264 8.645-13.904 8.69-14.13-.053-.08-3.025 2.07-9.373 2.07-15.701h9.991c0 6.212 2.157 12.878 2.07 15.754z"/></g><g><path fill="#784445" d="M15.42 8.845h12.09a3.153 3.153 0 0 1 3.145 3.143 3.153 3.153 0 0 1-3.144 3.144H15.42a3.153 3.153 0 0 1-3.144-3.144 3.153 3.153 0 0 1 3.144-3.143z"/></g><g><path fill="#98525d" d="M21.466 6.144c3.392 0 6.167 2.775 6.167 6.167v3.546c0 3.392-2.775 6.167-6.167 6.167s-6.167-2.775-6.167-6.167V12.31c0-3.392 2.775-6.167 6.167-6.167z"/></g><g><path fill="#fcf8cd" d="M19.41 9.731a1.653 1.653 0 1 1 0 3.306 1.653 1.653 0 0 1 0-3.306z"/></g><g><path fill="#fcf8cd" d="M23.521 9.731a1.652 1.652 0 1 1 0 3.304 1.652 1.652 0 0 1 0-3.304z"/></g><g><path fill="#ffe9ce" d="M43.024 49.972l-5.182-8.976c-4.118-7.133-13.318-9.598-20.451-5.48-5.971 3.447-8.668 10.453-6.975 16.828h2.334c-1.766-5.567.509-11.85 5.762-14.885 6.06-3.499 13.888-1.402 17.387 4.66l5.182 8.975z"/></g></g></svg>