<?xml version="1.0" encoding="utf-8"?>
<!-- Generator: Adobe Illustrator 23.0.3, SVG Export Plug-In . SVG Version: 6.00 Build 0)  -->
<svg version="1.1" id="Layer_1" xmlns="http://www.w3.org/2000/svg" xmlns:xlink="http://www.w3.org/1999/xlink" x="0px" y="0px"
	 viewBox="0 0 60 60" style="enable-background:new 0 0 60 60;" xml:space="preserve">
<style type="text/css">
	.st0{fill:#71C6EF;}
	.st1{fill:#FFFFFF;}
	.st2{fill:#89C763;}
	.st3{fill:#ED1B31;}
	.st4{fill:#F3A0B7;}
	.st5{fill:#FFC548;}
	.st6{fill:#F36F34;}
</style>
<g>
	<circle class="st1" cx="13.25" cy="37" r="4"/>
	<circle cx="13.25" cy="37" r="2"/>
	<circle class="st1" cx="12.14" cy="36" r="1"/>
	<circle class="st1" cx="13.64" cy="37.5" r="0.5"/>
</g>
<path class="st5" d="M52.53,29.28c0-8.28-6.72-15-15-15v5.68c0.42,0.06,0.82,0.24,1.14,0.56c0.78,0.78,0.78,2.05,0,2.83
	c-0.32,0.32-0.72,0.5-1.14,0.56v5.38h4.43c-0.1-0.34-0.03-0.72,0.24-0.99c0.39-0.39,1.02-0.39,1.41,0c0.27,0.27,0.34,0.65,0.24,0.99
	H52.53z M42.2,19.81c-0.39-0.39-0.39-1.02,0-1.41c0.39-0.39,1.02-0.39,1.41,0c0.39,0.39,0.39,1.02,0,1.41
	C43.22,20.2,42.59,20.2,42.2,19.81z M43.61,25.46c-0.78-0.78-0.78-2.05,0-2.83c0.78-0.78,2.05-0.78,2.83,0
	c0.78,0.78,0.78,2.05,0,2.83C45.66,26.25,44.39,26.25,43.61,25.46z"/>
<path class="st5" d="M34.54,12.29c0.2-0.2,0.45-0.29,0.71-0.29v-2h-10c0,2.99,1.32,5.67,3.4,7.5c0.02-0.02,0.02-0.04,0.04-0.06
	c0.59-0.59,1.54-0.59,2.12,0c0.45,0.45,0.55,1.11,0.31,1.66c1.26,0.57,2.66,0.9,4.13,0.9v-6c-0.26,0-0.51-0.1-0.71-0.29
	C34.15,13.32,34.15,12.68,34.54,12.29z M29.96,13.71c-0.39,0.39-1.02,0.39-1.41,0s-0.39-1.02,0-1.41c0.39-0.39,1.02-0.39,1.41,0
	C30.35,12.68,30.35,13.32,29.96,13.71z M32.1,15.85c-0.2,0.2-0.51,0.2-0.71,0c-0.2-0.2-0.2-0.51,0-0.71c0.2-0.2,0.51-0.2,0.71,0
	S32.3,15.66,32.1,15.85z M32.1,11.85c-0.2,0.2-0.51,0.2-0.71,0c-0.2-0.2-0.2-0.51,0-0.71c0.2-0.2,0.51-0.2,0.71,0
	S32.3,11.66,32.1,11.85z"/>
<path d="M51.93,32.32c-1.25-1.2-2.98-1.86-4.68-1.82c-1.65,0-3-1.35-3-3c0-1.56,1.19-2.82,2.71-2.97c0.08-0.33,0.08-0.67-0.01-1
	c-2.07,0.16-3.7,1.86-3.7,3.97c0,2.21,1.79,4,4,4c1.44,0.04,2.84,0.67,3.8,1.7c0.97,1.03,1.5,2.42,1.45,3.8
	c-0.04,1.38-0.64,2.7-1.63,3.62c-0.98,0.93-2.31,1.42-3.62,1.38c-2.21,0-3.26-1.88-4.02-4l0,0.04c-2.08-5.89-7.13-10.36-13.36-11.64
	c-1.12-3.7-4.55-6.4-8.62-6.4h0c-4.97,0-9,4.03-9,9v3.62c-2,0.46-3.5,2.24-3.5,4.38c0,0.47,0.09,0.92,0.23,1.35
	C7.29,40.46,6.25,42,6.25,42s0,1.32,0,2h12c1.66,0,3,1.34,3,3h1l2-3h10c1.66,0,3,1.34,3,3h1l2-3h3h1h3
	c1.83-0.03,3.62-0.83,4.86-2.14c1.25-1.3,1.94-3.09,1.89-4.86C53.96,35.23,53.19,33.51,51.93,32.32z M13.25,40.5
	c-1.93,0-3.5-1.57-3.5-3.5s1.57-3.5,3.5-3.5s3.5,1.57,3.5,3.5S15.18,40.5,13.25,40.5z"/>
<g>
	<path class="st1" d="M21.25,22c-3.86,0-7,3.14-7,7v2.09c2.51,0.42,4.49,2.4,4.91,4.91h2.09c3.86,0,7-3.14,7-7S25.11,22,21.25,22z"
		/>
</g>
</svg>
