<svg xmlns="http://www.w3.org/2000/svg" width="41" height="64" viewBox="0 0 41 64"><g><g><path fill="#a15641" d="M.185.659h40.742V64H.185z"/></g><g><path fill="#e2cfc5" d="M15.776 34.565v-.001a1.218 1.218 0 0 1 1.792 0L29.297 47.02a1.412 1.412 0 0 1 0 1.905c-.493.524-1.3.524-1.793 0L15.776 36.469a1.408 1.408 0 0 1 0-1.904z"/></g><g><path fill="#e2cfc5" d="M28.833 47.085c-.604-.37-1.349-.125-1.732.493l-9.374 15.124h4.111l7.458-13.777c.349-.643.141-1.47-.463-1.84z"/></g><g><path fill="#f4a12e" d="M1.338 9.198l2.887-.02-.002-.155a5.591 5.591 0 0 1 11.171-.31c.008.165.007.324.007.488v8.121h-4.284z"/></g><g><path fill="#fff" d="M9.813 12.656a3.713 3.713 0 1 0-3.714-3.713 3.713 3.713 0 0 0 3.714 3.713z"/></g><g><path fill="#874a34" d="M9.813 11.002a2.06 2.06 0 1 0 .001-4.12 2.06 2.06 0 0 0-.001 4.12z"/></g><g><path fill="#f4a12e" d="M15.402 17.322h-3.276v16.611h3.276z"/></g><g><path fill="#ffe9ce" d="M38.928 24.668a2.588 2.588 0 0 1-2.82 3.01c-4.343-.462-8.295 1.128-8.295 6.256a7.843 7.843 0 1 1-15.687 0 7.845 7.845 0 0 1 7.844-7.846l3.563.002c2.717.002 3.591-.688 3.605-3.341l.03-5.03c.001-.26.035-.522.11-.775a2.587 2.587 0 1 1 4.707 2.047c.002.001.387-.446.43-.485a2.587 2.587 0 0 1 3.44 3.866c-.045.039-.532.366-.532.366.002.004.56-.174.62-.185a2.589 2.589 0 0 1 2.985 2.115z"/></g><g><path fill="#f4a12e" d="M15.918 32.933a7.131 7.131 0 0 1 5.78-2.972h16.136c-1.684 4.85-6.308 8.358-11.712 8.358-4.22 0-7.963-2.14-10.203-5.386z"/></g></g></svg>