<svg xmlns="http://www.w3.org/2000/svg" width="67" height="67" viewBox="0 0 67 67"><g><g><path fill="#d0d2d3" d="M66.715.715H.787v65.929h65.928z"/></g><g><path fill="#b38b7f" d="M33.752 17.749c9.118 3.928 15.254 11.269 15.254 19.676 0 8.407-6.136 15.747-15.254 19.675-9.12-3.928-15.255-11.268-15.255-19.675s6.135-15.748 15.255-19.675z"/></g><g><path fill="#725555" d="M43.681 50.248c3.36-3.65 5.325-8.064 5.325-12.823 0-5.371-2.505-10.306-6.692-14.196a26.502 26.502 0 0 0-3.05 12.348c0 5.372 1.614 10.394 4.417 14.672z"/></g><g><path fill="#ffe9ce" d="M48.137 42.29a25.456 25.456 0 0 1-7.084-16.13l-.027-.08c.14-.37.29-.735.448-1.097l.173-.005.01.32c.006.246.017.491.03.734a24.965 24.965 0 0 0 7.305 10.71c.009.228.014.455.014.683l-.001.168-.207-.175a25.634 25.634 0 0 1-6.865-9.043 24.817 24.817 0 0 0 6.532 13.33c-.061.24-.13.48-.201.718zm-2.24 4.931a29.207 29.207 0 0 1-5.995-17.43c.05-.222.103-.442.157-.66h.483v.32c0 6.26 2.018 12.291 5.79 17.281-.116.197-.237.39-.362.583z"/></g><g><path fill="#725555" d="M23.821 50.248c-3.359-3.65-5.324-8.064-5.324-12.823 0-5.371 2.505-10.306 6.691-14.196a26.515 26.515 0 0 1 3.051 12.348c0 5.372-1.615 10.394-4.418 14.672z"/></g><g><path fill="#ffe9ce" d="M19.238 42.422a16.243 16.243 0 0 1-.2-.717 24.81 24.81 0 0 0 6.532-13.33 25.625 25.625 0 0 1-6.866 9.043l-.206.174v-.168c0-.228.004-.455.013-.682a24.956 24.956 0 0 0 7.304-10.71c.014-.243.025-.488.031-.734l.01-.32.173.004c.157.362.307.728.45 1.097l-.029.08a25.45 25.45 0 0 1-7.084 16.13zm2.295 4.893a20.873 20.873 0 0 1-.364-.582 28.55 28.55 0 0 0 5.792-17.282v-.32h.483c.055.219.108.439.157.66a29.202 29.202 0 0 1-5.997 17.43z"/></g><g><path fill="#cba497" d="M33.752 39.832c-49.276-37.355 49.275-37.355 0 0"/></g><g><path fill="#ffe9ce" d="M33.752 22.216c1.065.695 1.782 1.994 1.782 3.48 0 1.489-.717 2.788-1.782 3.483-1.066-.695-1.783-1.993-1.783-3.482 0-1.487.717-2.786 1.783-3.481z"/></g><g><path fill="#916060" d="M33.321 21.785v-.966c0-3.194-2.615-5.808-5.808-5.808h-6.19a3.295 3.295 0 0 1-3.287-3.286v-.43h2.071v.43a2.434 2.434 0 0 0 2.426 2.426h4.98c3.668 0 6.667 3 6.667 6.669v.965z"/></g><g><path fill="#916060" d="M34.18 21.785v-.966c0-3.194 2.616-5.808 5.81-5.808h6.19a3.295 3.295 0 0 0 3.286-3.286v-.43h-2.071v.43a2.434 2.434 0 0 1-2.425 2.426h-4.98c-3.668 0-6.668 3-6.668 6.669v.965z"/></g><g><path fill="#916060" d="M48.43 10.26a1.035 1.035 0 1 1 0 2.07 1.035 1.035 0 0 1 0-2.07z"/></g><g><path fill="#fff" d="M27.784 16.036a5.968 5.968 0 1 1 0 11.936 5.968 5.968 0 0 1 0-11.936z"/></g><g><path fill="#fff" d="M39.718 16.036a5.967 5.967 0 1 1 0 11.934 5.967 5.967 0 0 1 0-11.934z"/></g><g><path fill="#693939" d="M27.784 19.286a2.719 2.719 0 1 1 0 5.438 2.719 2.719 0 0 1 0-5.438z"/></g><g><path fill="#693939" d="M39.718 19.286a2.718 2.718 0 1 1 0 5.436 2.718 2.718 0 0 1 0-5.436z"/></g><g><path fill="#e6e7e8" d="M27.559 47.84l1.873-1.872 1.87 1.872c.152.15.396.15.546 0l1.873-1.872 1.87 1.872c.15.15.395.15.546 0l1.87-1.872 1.873 1.872a.385.385 0 0 0 .545-.544L38.28 45.15a.387.387 0 0 0-.545 0l-1.872 1.873-1.872-1.873a.386.386 0 0 0-.544 0l-1.872 1.873-1.873-1.873a.386.386 0 0 0-.544 0l-2.144 2.145a.385.385 0 0 0 .544.544z"/></g><g><path fill="#e6e7e8" d="M29.703 42.886l1.873-1.872 1.872 1.872c.15.15.394.15.544.001l1.872-1.873 1.872 1.872a.385.385 0 0 0 .545-.544l-2.144-2.144a.388.388 0 0 0-.545 0L33.72 42.07l-1.873-1.872a.388.388 0 0 0-.545 0l-2.144 2.144a.386.386 0 0 0 .544.545z"/></g><g><path fill="#e6e7e8" d="M29.703 52.794l1.873-1.873 1.872 1.873c.15.15.394.15.544 0l1.872-1.873 1.872 1.873a.385.385 0 0 0 .545-.544l-2.144-2.145a.387.387 0 0 0-.545 0l-1.871 1.872-1.873-1.872a.387.387 0 0 0-.545 0l-2.144 2.144a.385.385 0 0 0 .544.545z"/></g></g></svg>