<svg xmlns="http://www.w3.org/2000/svg" width="7.5" height="11" viewBox="0 0 15 22"><g><g><path fill="#2cb5a5" d="M7.226 3.506c4.132 1.781 6.914 5.107 6.914 8.917 0 3.812-2.782 7.14-6.914 8.917C3.093 19.562.312 16.235.312 12.423c0-3.81 2.78-7.136 6.914-8.917z"/></g><g><path fill="#684286" d="M11.727 18.236c1.52-1.655 2.413-3.656 2.413-5.812 0-2.435-1.135-4.67-3.033-6.434a12.01 12.01 0 0 0-1.382 5.596c0 2.435.73 4.711 2.002 6.65z"/></g><g><path fill="#ffe9ce" d="M12.763 16.907c.057-.088.112-.175.165-.263a12.95 12.95 0 0 1-2.625-7.833v-.147h-.218c-.025.1-.05.2-.071.3a13.23 13.23 0 0 0 2.717 7.9zm1.04-2.219c.033-.107.063-.215.09-.325a11.25 11.25 0 0 1-2.96-6.04 11.628 11.628 0 0 0 3.112 4.097l.095.08v-.076c0-.103-.002-.206-.006-.31a11.297 11.297 0 0 1-3.311-4.853 12.354 12.354 0 0 1-.014-.333l-.005-.145-.078.002c-.071.165-.14.33-.204.497l.013.037a11.53 11.53 0 0 0 3.21 7.31z"/></g><g><path fill="#684286" d="M2.725 18.236C1.203 16.581.312 14.58.312 12.424c0-2.435 1.135-4.67 3.033-6.434a12.022 12.022 0 0 1 1.382 5.596c0 2.435-.73 4.711-2.002 6.65z"/></g><g><path fill="#ffe9ce" d="M1.72 16.863a13.225 13.225 0 0 0 2.718-7.9l-.071-.299h-.22v.146c0 2.837-.913 5.57-2.624 7.833.053.088.108.175.166.263zM.706 14.63a11.529 11.529 0 0 0 3.21-7.31l.013-.037a13.277 13.277 0 0 0-.203-.497l-.08-.002-.003.145c-.003.11-.008.222-.014.333a11.306 11.306 0 0 1-3.311 4.854 7.962 7.962 0 0 0-.005.385l.094-.08a11.614 11.614 0 0 0 3.11-4.097 11.241 11.241 0 0 1-2.96 6.04c.028.11.059.219.09.326z"/></g><g><path fill="#fbb017" d="M7.226 13.515c-22.333-16.931 22.333-16.93 0 0"/></g><g><path fill="#ef5b72" d="M7.226 5.532c.483.314.809.902.809 1.577 0 .674-.326 1.263-.81 1.578-.482-.315-.807-.904-.807-1.578 0-.675.325-1.263.808-1.577z"/></g><g><path fill="#a37275" d="M7.03 5.335v-.437A2.64 2.64 0 0 0 4.4 2.265H1.593c-.82 0-1.49-.67-1.49-1.49V.58h.939v.195c0 .605.495 1.101 1.1 1.101h2.257A3.03 3.03 0 0 1 7.42 4.898v.437z"/></g><g><path fill="#a37275" d="M7.42 5.335v-.437a2.64 2.64 0 0 1 2.633-2.633h2.805c.82 0 1.49-.67 1.49-1.49V.58h-.939v.195c0 .605-.495 1.101-1.1 1.101h-2.256A3.03 3.03 0 0 0 7.03 4.898v.437z"/></g><g><path fill="#fff" d="M4.521 2.73a2.706 2.706 0 1 1 0 5.412 2.706 2.706 0 0 1 0-5.412z"/></g><g><path fill="#fff" d="M9.93 2.73a2.704 2.704 0 0 1 0 5.41 2.705 2.705 0 1 1 0-5.41z"/></g><g><path fill="#801a52" d="M4.521 4.203a1.232 1.232 0 1 1 0 2.463 1.232 1.232 0 0 1 0-2.463z"/></g><g><path fill="#801a52" d="M9.93 4.203a1.232 1.232 0 1 1-.001 2.463 1.232 1.232 0 0 1 .001-2.463z"/></g></g></svg>