<svg xmlns="http://www.w3.org/2000/svg" width="58" height="59" viewBox="0 0 58 59"><g><g><path fill="#7fd3f6" d="M58.048.81H.322v57.725h57.726z"/></g><g><path fill="#b28a7e" d="M29.186 15.724c7.984 3.44 13.356 9.866 13.356 17.227 0 7.362-5.373 13.79-13.357 17.227-7.984-3.438-13.356-9.865-13.356-17.227 0-7.36 5.372-13.788 13.356-17.227z"/></g><g><path fill="#725454" d="M37.88 44.179c2.94-3.196 4.662-7.062 4.662-11.228 0-4.703-2.192-9.024-5.86-12.43a23.21 23.21 0 0 0-2.67 10.812c0 4.703 1.414 9.1 3.868 12.846z"/></g><g><path fill="#ffe9ce" d="M39.884 41.61c.11-.168.216-.339.319-.509a25.003 25.003 0 0 1-5.072-15.13v-.283h-.423c-.047.192-.093.386-.136.578a25.556 25.556 0 0 0 5.25 15.262zm2.01-4.283c.062-.208.12-.418.174-.629a21.727 21.727 0 0 1-5.718-11.67 22.443 22.443 0 0 0 6.009 7.918l.182.152v-.147c0-.2-.003-.4-.011-.598a21.839 21.839 0 0 1-6.395-9.377 19.442 19.442 0 0 1-.028-.642l-.008-.28-.151.003c-.138.317-.27.637-.393.96l.024.071a22.293 22.293 0 0 0 6.202 14.123z"/></g><g><path fill="#725454" d="M20.491 44.179c-2.94-3.196-4.662-7.062-4.662-11.228 0-4.703 2.193-9.024 5.86-12.43a23.211 23.211 0 0 1 2.671 10.812c0 4.703-1.415 9.1-3.869 12.846z"/></g><g><path fill="#ffe9ce" d="M18.55 41.528a25.57 25.57 0 0 0 5.25-15.262 30.22 30.22 0 0 0-.137-.578h-.423v.282c0 5.48-1.766 10.761-5.07 15.131.101.17.208.341.317.508zm-1.96-4.317a22.288 22.288 0 0 0 6.202-14.123l.024-.07a25.061 25.061 0 0 0-.392-.96l-.152-.004-.008.28c-.006.215-.015.43-.028.642a21.839 21.839 0 0 1-6.395 9.377 14.836 14.836 0 0 0-.01.745l.18-.152a22.423 22.423 0 0 0 6.01-7.919 21.72 21.72 0 0 1-5.718 11.671c.053.211.112.421.175.63z"/></g><g><path fill="#cba397" d="M29.186 35.059c-43.145-32.707 43.144-32.707 0 0"/></g><g><path fill="#ffe9ce" d="M29.186 19.635c.933.608 1.56 1.746 1.56 3.048 0 1.303-.627 2.44-1.56 3.048-.933-.608-1.561-1.745-1.561-3.048 0-1.302.628-2.44 1.56-3.048z"/></g><g><path fill="#906061" d="M28.81 19.257v-.846c0-2.796-2.29-5.085-5.087-5.085h-5.419a2.885 2.885 0 0 1-2.878-2.877v-.377h1.813v.377c0 1.167.957 2.124 2.124 2.124h4.36c3.212 0 5.84 2.627 5.84 5.838v.846z"/></g><g><path fill="#906061" d="M29.562 19.257v-.846c0-2.796 2.29-5.085 5.086-5.085h5.419a2.884 2.884 0 0 0 2.877-2.877v-.377h-1.812v.377a2.132 2.132 0 0 1-2.124 2.124h-4.36c-3.212 0-5.839 2.627-5.839 5.838v.846z"/></g><g><path fill="#906061" d="M42.039 9.166a.907.907 0 1 1-.002 1.813.907.907 0 0 1 .002-1.813z"/></g><g><path fill="#fff" d="M23.96 14.224a5.225 5.225 0 1 1 .002 10.45 5.225 5.225 0 0 1-.001-10.45z"/></g><g><path fill="#fff" d="M34.41 14.224a5.225 5.225 0 1 1 0 10.45 5.225 5.225 0 0 1 0-10.45z"/></g><g><path fill="#693939" d="M23.96 17.069a2.38 2.38 0 1 1 .001 4.76 2.38 2.38 0 0 1 0-4.76z"/></g><g><path fill="#693939" d="M34.41 17.069a2.38 2.38 0 1 1 0 4.758 2.38 2.38 0 0 1 0-4.758z"/></g><g><path fill="#e5e6e7" d="M23.764 42.07l1.639-1.64 1.639 1.64a.34.34 0 0 0 .477 0l1.639-1.64 1.639 1.64a.34.34 0 0 0 .476 0l1.64-1.64 1.639 1.64a.34.34 0 0 0 .477 0 .339.339 0 0 0 0-.476l-1.878-1.878a.339.339 0 0 0-.477 0l-1.64 1.64-1.638-1.64a.339.339 0 0 0-.477 0l-1.638 1.64-1.64-1.64a.339.339 0 0 0-.476 0l-1.877 1.878a.337.337 0 1 0 .476.477z"/></g><g><path fill="#e5e6e7" d="M25.642 37.733l1.639-1.64 1.638 1.64a.337.337 0 0 0 .477 0l1.639-1.64 1.639 1.64a.337.337 0 1 0 .477-.477l-1.879-1.877a.337.337 0 0 0-.475 0l-1.64 1.639-1.638-1.64a.339.339 0 0 0-.477 0l-1.877 1.878a.337.337 0 1 0 .477.477z"/></g><g><path fill="#e5e6e7" d="M25.642 46.407l1.639-1.639 1.638 1.64a.337.337 0 0 0 .477 0l1.639-1.64 1.639 1.64a.337.337 0 1 0 .477-.478l-1.879-1.877a.336.336 0 0 0-.475 0l-1.64 1.64-1.638-1.64a.337.337 0 0 0-.477 0l-1.877 1.877a.337.337 0 1 0 .477.477z"/></g></g></svg>