<svg xmlns="http://www.w3.org/2000/svg" width="58" height="58" viewBox="0 0 58 58"><g><g><path fill="#e2cfc5" d="M.323 57.708h57.722V-.017H.323z"/></g><g><path fill="#fff" d="M26.235 20.658h5.899c4.866 0 8.848 3.982 8.848 8.848v8.11c0 4.868-3.982 8.85-8.848 8.85h-5.9c-4.866 0-8.848-3.982-8.848-8.85v-8.11c0-4.866 3.982-8.848 8.849-8.848z"/></g><g><path fill="#fff" d="M26.235 21.715h5.899c4.286 0 7.79 3.506 7.79 7.79v8.112c0 4.286-3.504 7.79-7.79 7.79h-5.9c-4.284 0-7.791-3.504-7.791-7.79v-8.111c0-4.285 3.507-7.791 7.792-7.791z"/></g><g><path fill="#693939" d="M17.148 43.82l3.8 6.584a3.196 3.196 0 0 0 4.354 1.167 3.198 3.198 0 0 0 1.167-4.354l-3.801-6.583a3.196 3.196 0 0 0-4.353-1.167 3.196 3.196 0 0 0-1.167 4.353z"/></g><g><path fill="#693939" d="M31.9 47.218l3.801-6.583a3.196 3.196 0 0 1 4.353-1.167 3.197 3.197 0 0 1 1.166 4.353l-3.8 6.584a3.198 3.198 0 0 1-4.353 1.167 3.197 3.197 0 0 1-1.167-4.354z"/></g><g><path fill="#693939" d="M18.008 36.344h7.6a3.196 3.196 0 0 0 3.188-3.187 3.197 3.197 0 0 0-3.187-3.187h-7.601a3.197 3.197 0 0 0-3.187 3.187 3.196 3.196 0 0 0 3.187 3.187z"/></g><g><path fill="#693939" d="M32.76 29.97h7.601a3.197 3.197 0 0 1 3.187 3.187 3.197 3.197 0 0 1-3.187 3.187H32.76a3.197 3.197 0 0 1-3.187-3.187 3.197 3.197 0 0 1 3.187-3.187z"/></g><g><path fill="#693939" d="M40.356 6.743a3.603 3.603 0 0 0-5.08 0l-7.092 7.093 5.08 5.079 7.092-7.092a3.603 3.603 0 0 0 0-5.08z"/></g><g><path fill="#693939" d="M18.012 6.743a3.603 3.603 0 0 1 5.08 0l7.092 7.093-5.08 5.079-7.092-7.092a3.603 3.603 0 0 1 0-5.08z"/></g><g><path fill="#e2cfc5" d="M26.654 7.512h5.061c4.174 0 7.591 3.416 7.591 7.591v4.43c0 5.565-4.555 10.121-10.122 10.121s-10.122-4.556-10.122-10.122v-4.429c0-4.175 3.416-7.59 7.592-7.59z"/></g><g><path fill="#fff" d="M26.627 8.526c-3.595 0-6.54 2.945-6.54 6.54v4.476c0 5.001 4.097 9.097 9.098 9.097 5.002 0 9.097-4.096 9.097-9.097v-4.477c0-3.594-2.945-6.539-6.54-6.539z"/></g><g><path fill="#5e1e1e" d="M25.257 11.63a3.363 3.363 0 0 1 3.354 3.353v1.444a3.363 3.363 0 0 1-3.354 3.354 3.363 3.363 0 0 1-3.354-3.354v-1.444a3.363 3.363 0 0 1 3.354-3.354z"/></g><g><path fill="#5e1e1e" d="M33.112 11.63a3.363 3.363 0 0 0-3.354 3.353v1.444a3.363 3.363 0 0 0 3.354 3.354 3.363 3.363 0 0 0 3.354-3.354v-1.444a3.363 3.363 0 0 0-3.354-3.354z"/></g><g><path fill="#fff" d="M25.257 14.167a1.537 1.537 0 1 1 0 3.077 1.539 1.539 0 1 1 0-3.077z"/></g><g><path fill="#fff" d="M33.112 14.167a1.538 1.538 0 1 1 .001 3.077 1.538 1.538 0 0 1-.001-3.077z"/></g><g><path fill="#5e1e1e" d="M28.271 19.823h1.827c.556 0 1.228.5 1.011 1.012-.886 2.095-2.945 2.077-3.85 0-.222-.51.455-1.012 1.012-1.012z"/></g><g><path fill="#693939" d="M24.918 22.331a4.267 4.267 0 0 0 8.532 0v-.488h-.975v.488a3.291 3.291 0 0 1-6.582 0v-.488h-.976z"/></g></g></svg>