<svg xmlns="http://www.w3.org/2000/svg" width="7.5" height="10.5" viewBox="0 0 15 21"><g><g><path fill="#231f20" d="M.56 16.296a.686.686 0 0 1-.684-.684c0-.377.308-.685.684-.685h2.927c.81 0 1.473-.663 1.473-1.473V2.8h2.306c.401 0 .795.028 1.182.083v5.014a2.524 2.524 0 0 0 2.517 2.515h1.03a2.944 2.944 0 0 1 0 5.888c-3.812 0-7.623-.005-11.435-.005z"/></g><g><path fill="#fff" d="M7.287 5.29v.619a2.228 2.228 0 0 1-2.22 2.222c-1.223 0-2.222-1-2.222-2.222v-.62a2.508 2.508 0 0 1-1.442-2.262 2.507 2.507 0 0 1 2.5-2.501H6.23c1.376 0 2.5 1.125 2.5 2.5 0 .974-.57 1.855-1.442 2.264z"/></g><g><path fill="#231f20" d="M7.007 5.104v.804A1.947 1.947 0 0 1 5.066 7.85a1.948 1.948 0 0 1-1.941-1.942v-.804a2.228 2.228 0 0 1-1.442-2.078c0-1.221.999-2.219 2.22-2.219H6.23c1.22 0 2.219.998 2.219 2.219 0 .923-.58 1.752-1.442 2.078z"/></g><g><path fill="#231f20" d="M1.397.644a1.464 1.464 0 0 1 2.061 0l1.607 1.608-2.06 2.06-1.608-1.605a1.464 1.464 0 0 1 0-2.063z"/></g><g><path fill="#231f20" d="M8.735.644a1.463 1.463 0 0 0-2.06 0L5.065 2.252l2.062 2.06 1.607-1.605a1.464 1.464 0 0 0 0-2.063z"/></g><g><path fill="#fff" d="M3.835 3.163l.653.376a.391.391 0 0 1 .142.532.388.388 0 0 1-.531.142l-.653-.376a.389.389 0 0 1 .389-.674z"/></g><g><path fill="#fff" d="M6.297 3.163l-.652.376a.39.39 0 0 0 .389.674l.653-.376a.39.39 0 0 0-.39-.674z"/></g><g><path fill="#231f20" d="M14.284 13.354v2.316a1.99 1.99 0 0 1-1.984 1.983H6.151c-.886 0-1.609.725-1.609 1.61 0 .885.723 1.61 1.61 1.61h8.23v-.653h-8.23a.96.96 0 0 1-.957-.956.96.96 0 0 1 .956-.956h6.15a2.645 2.645 0 0 0 2.637-2.638v-2.315z"/></g></g></svg>