<svg xmlns="http://www.w3.org/2000/svg" width="31" height="42" viewBox="0 0 31 42"><g><g><path fill="#98525d" d="M30.397.344H.911v41.638h29.486z"/></g><g><path fill="#ffe9ce" d="M23.85 23.967a58.993 58.993 0 0 1-2.947 15.963l-2-.537c4.74-7.69 4.31-10.88 4.268-16.103z"/></g><g><path fill="#fff" d="M23.37 26.1a58.942 58.942 0 0 1-6.978 14.656l-1.794-1.035c6.569-6.203 6.98-9.396 8.293-14.451z"/></g><g><path fill="#f4a12e" d="M13.441 2.76h-1.967c-2.699 0-4.907 2.209-4.907 4.907v.76l6.874-2.49z"/></g><g><path fill="#f9c5c8" d="M23.352 21.156a58.915 58.915 0 0 1 1.285 16.182h-2.072c2.588-8.657 1.35-11.628-.044-16.66z"/></g><g><path fill="#f05d5c" d="M16.345 4.431a49.161 49.161 0 0 1 8.11 23.678l-7.904-4.564c-5.499-3.174-7.4-10.27-4.226-15.769l1.943-3.366 1.567.904z"/></g><g><path fill="#fff" d="M14.252 3.543a1.62 1.62 0 1 1-1.619 2.808 1.62 1.62 0 0 1 1.619-2.807z"/></g><g><path fill="#4f2828" d="M13.937 4.09a.99.99 0 1 1-.99 1.715.99.99 0 0 1 .99-1.715z"/></g><g><path fill="#693939" d="M16.06 9.506c5.048 3.11 6.75 9.752 3.768 14.919l-.09.156c-5.048-3.11-6.75-9.752-3.768-14.92z"/></g></g></svg>