<svg xmlns="http://www.w3.org/2000/svg" width="8.5" height="9" viewBox="0 0 17 18"><g><g><path fill="#231f20" d="M2.84 3.634v11.003a3.486 3.486 0 0 0 3.477 3.477h3.477V3.634z"/></g><g><path fill="#231f20" d="M2.84.158v6.954h3.477a3.488 3.488 0 0 0 3.477-3.477A3.487 3.487 0 0 0 6.317.158z"/></g><g><path fill="#ec1c24" d="M2.84 4.853V2.505H.32z"/></g><g><path fill="#ec1c24" d="M2.84 2.505V.157H.32z"/></g><g><path fill="#fff" d="M3.86 2.421a1.229 1.229 0 1 0 2.458.001 1.229 1.229 0 0 0-2.457 0z"/></g><g><path fill="#441609" d="M4.438 2.421a.651.651 0 1 0 1.302.001.651.651 0 0 0-1.303 0z"/></g><g><path fill="#fff" d="M7.496 15.824c5.375-12.634-5.819-12.634 0 0"/></g><g><path fill="#231f20" d="M18.131 18.108a8.66 8.66 0 0 1-8.338-8.654v-.595h.021a8.363 8.363 0 0 0-.02.595v8.66h8.337z"/></g></g></svg>