
<!DOCTYPE svg PUBLIC "-//W3C//DTD SVG 1.1//EN" "http://www.w3.org/Graphics/SVG/1.1/DTD/svg11.dtd">
<!-- Creator: CorelDRAW -->
<svg xmlns="http://www.w3.org/2000/svg" xml:space="preserve" width="2048px" height="2048px" style="shape-rendering:geometricPrecision; text-rendering:geometricPrecision; image-rendering:optimizeQuality; fill-rule:evenodd; clip-rule:evenodd" viewBox="0 0 2048 2048" xmlns:xlink="http://www.w3.org/1999/xlink">
 <defs>
  <style type="text/css">
   
    .str0 {stroke:white;stroke-width:64.0004}
    .fil2 {fill:none}
    .fil1 {fill:white;fill-rule:nonzero}
   
  </style>
 </defs>
 <g id="Layer_x0020_1">
  <metadata id="CorelCorpID_0Corel-Layer"></metadata>
  <path class="fil1" d="M448.001 544.001l320 0 32.0008 0 0 32.0008 0 384 0 32.0008 -32.0008 0 -320 0 -32.0008 0 0 -32.0008 0 -384 0 -32.0008 32.0008 0zm287.999 64.0016l-255.998 0 0 319.999 255.998 0 0 -319.999z" fill="black" />
  <path class="fil1" d="M1568 641.66l0 -161.661 -1248.01 0 0 1024.01c0,17.8618 7.02756,33.9449 18.3886,45.502 11.2287,11.4213 26.7756,18.4878 43.976,18.4878l1236.1 0c30.228,0 57.5705,-12.4382 77.3339,-32.5453 19.8969,-20.2417 32.2028,-48.3248 32.2028,-79.4469l0 -782.345 -127.999 0 -32.0008 0 0 -32.0008zm64.0016 -193.662l0 161.661 127.999 0 32.0008 0 0 32.0008 0 814.346c0,48.4075 -19.3748,92.3245 -50.7036,124.197 -31.4563,32.0032 -74.8879,51.7973 -122.835,51.7973l-1236.1 0c-34.9181,0 -66.554,-14.4236 -89.4768,-37.7398 -22.7917,-23.1839 -36.8894,-55.1032 -36.8894,-90.2516l0 -1056.01 0 -32.0008 32.0008 0 1312.01 0 32.0008 0 0 32.0008z" fill="black" />
  <line class="fil2 str0" x1="1600" y1="641.662" x2="1600" y2="1600" />
  <polygon class="fil1" points="928.001,544.001 1440,544.001 1440,608.002 928.001,608.002 " />
  <polygon class="fil1" points="928.001,736.003 1440,736.003 1440,800.005 928.001,800.005 " />
  <polygon class="fil1" points="928.001,928.006 1440,928.006 1440,992.007 928.001,992.007 " />
  <polygon class="fil1" points="416,1120 1440,1120 1440,1184 416,1184 " />
  <polygon class="fil1" points="416,1280 1440,1280 1440,1344 416,1344 " />
  <polygon class="fil1" points="416,1439.99 1440,1439.99 1440,1503.99 416,1503.99 " />
 </g>
</svg>
