<svg xmlns="http://www.w3.org/2000/svg" width="12.5" height="8" viewBox="0 0 25 16"><g><g><path fill="#be5327" d="M4.541 2.29v3.236H2.535c0-1.419.817-2.645 2.006-3.237z"/></g><g><path fill="#cf9d2b" d="M16.94 4.452h5.655c1.38 0 2.51 1.131 2.51 2.511v3.734h-.883V6.963c0-.893-.733-1.626-1.627-1.626H16.94z"/></g><g><path fill="#be5327" d="M9.368 4.452h11.34a2.685 2.685 0 0 1 2.675 2.676v3.417a2.685 2.685 0 0 1-2.676 2.677v-1.224a2.73 2.73 0 0 0-2.722-2.72H12.09a2.73 2.73 0 0 0-2.722 2.72v1.224a2.684 2.684 0 0 1-2.676-2.677V7.128a2.684 2.684 0 0 1 2.676-2.676z"/></g><g><path fill="#cf9d2b" d="M.163 4.452l.018 4.212a1.87 1.87 0 0 0 1.863 1.864h4.648v-.017a6.077 6.077 0 0 0 5.62-6.059z"/></g><g><path fill="#fff" d="M8.098 5.105A1.46 1.46 0 1 0 9.56 6.566c0-.806-.653-1.461-1.462-1.461z"/></g><g><path fill="#f48120" d="M9.896.769h1.21a1.21 1.21 0 0 1 1.206 1.207v1.208h-1.206a1.212 1.212 0 0 1-1.21-1.208z"/></g><g><path fill="#f48120" d="M12.312 3.183h-.604v1.269h.604z"/></g><g><path fill="#cf9d2b" d="M19.98 15.54v-3.541a2.003 2.003 0 0 0-1.995-1.996H12.09c-1.096 0-1.998.9-1.998 1.996v3.54h3.8v-4.145c0-.333.271-.604.604-.604h1.083c.333 0 .604.272.604.604v4.146z"/></g><g><path fill="#cf9d2b" d="M13.718 14.867h-3.452a.43.43 0 0 0 0 .857h3.452a.43.43 0 0 0 .429-.428.43.43 0 0 0-.43-.429z"/></g><g><path fill="#cf9d2b" d="M19.81 14.867h-3.453a.43.43 0 0 0 0 .857h3.453a.43.43 0 0 0 .428-.428.43.43 0 0 0-.428-.429z"/></g><g><path fill="#be5327" d="M.163 4.452A4.468 4.468 0 0 1 2.69.427v4.025z"/></g></g></svg>