<svg xmlns="http://www.w3.org/2000/svg" width="67" height="67" viewBox="0 0 67 67"><g><g><path fill="#ffe9ce" d="M66.715.644H.787v65.929h65.928z"/></g><g><path fill="#faf6f4" d="M15.745 27.855c-.191-1.599.098-3.05.928-4.28.247-.366.536-.703.864-1.012.448 2.616 2.133 5.593 4.807 8.613z"/></g><g><path fill="#916060" d="M9.931 34.393a20.017 20.017 0 0 1 1.362-14.85c.311-.612.65-1.2 1.014-1.766-.714 6.594 1.894 13.232 7.06 17.56z"/></g><g><path fill="#916060" d="M58.408 44.336h-.826l-.432-5.856-6.316 10.959H47.09v-7.01H33.32l1.625-2.818a.377.377 0 0 0-.652-.375L29.68 47.24l-1.267 2.199H24.67V38.456H13.052a3.857 3.857 0 0 1-3.846-3.846v-3.845l17.473-7.803c.709-.413 1.478-.922 2.24-1.251a6.948 6.948 0 0 1 5.414-.042c1.152.477 2.11 1.334 3.2 1.956a15.966 15.966 0 0 0 7.94 2.107h4.586c4.592 0 8.349 3.757 8.349 8.349z"/></g><g><path fill="#9f6e6f" d="M58.408 44.336h-.826l-.432-5.856-6.316 10.959H47.09V25.732h2.969c4.592 0 8.349 3.757 8.349 8.349z"/></g><g><path fill="#9f6e6f" d="M24.67 38.456H13.05a3.856 3.856 0 0 1-3.845-3.845v-3.846L24.67 23.86z"/></g><g><path fill="#fff" d="M19.272 29.738a1.924 1.924 0 1 1-3.273 0z"/></g><g><path fill="#faf6f4" d="M22.002 25.317h1.056-1.145a1.793 1.793 0 0 1-1.79-1.788V21.74h1.79c.983 0 1.787.805 1.787 1.788v4.567h-.642v-1.727a1.056 1.056 0 0 0-1.056-1.052z"/></g></g></svg>