<?xml version="1.0" encoding="UTF-8"?>
<!DOCTYPE svg PUBLIC "-//W3C//DTD SVG 1.1//EN" "http://www.w3.org/Graphics/SVG/1.1/DTD/svg11.dtd">
<!-- Creator: CorelDRAW -->
<svg xmlns="http://www.w3.org/2000/svg" xml:space="preserve" width="6.82666in" height="6.82666in" style="shape-rendering:geometricPrecision; text-rendering:geometricPrecision; image-rendering:optimizeQuality; fill-rule:evenodd; clip-rule:evenodd"
viewBox="0 0 6.82666 6.82666"
 xmlns:xlink="http://www.w3.org/1999/xlink">
 <defs>
  <style type="text/css">
   <![CDATA[
    .fil0 {fill:none}
    .fil1 {fill:#8E24AA}
    .fil3 {fill:#FFFFFE}
    .fil2 {fill:#FFFFFE;fill-rule:nonzero}
   ]]>
  </style>
 </defs>
 <g id="Layer_x0020_1">
  <metadata id="CorelCorpID_0Corel-Layer"/>
  <rect class="fil0" width="6.82666" height="6.82666"/>
  <rect class="fil0" x="0.853331" y="0.853331" width="5.12" height="5.12"/>
  <rect class="fil0" width="6.82666" height="6.82666"/>
  <rect class="fil0" x="0.853331" y="0.853331" width="5.12" height="5.12"/>
  <rect class="fil0" width="6.82666" height="6.82666"/>
  <rect class="fil0" x="0.853331" y="0.853331" width="5.12" height="5.12"/>
  <rect class="fil1" width="6.82666" height="6.82666"/>
  <rect class="fil0" x="0.853331" y="0.853331" width="5.12" height="5.12"/>
  <path class="fil2" d="M3.41333 0.746661c0.736366,0 1.40304,0.29848 1.88561,0.781059 0.482579,0.482575 0.781059,1.14924 0.781059,1.88561 0,0.736366 -0.29848,1.40304 -0.781059,1.88561 -0.482575,0.482579 -1.14924,0.781059 -1.88561,0.781059 -0.736366,0 -1.40304,-0.29848 -1.88561,-0.781059 -0.482579,-0.482575 -0.781059,-1.14924 -0.781059,-1.88561 0,-0.736366 0.29848,-1.40304 0.781059,-1.88561 0.482575,-0.482579 1.14924,-0.781059 1.88561,-0.781059zm1.73478 0.931894c-0.443957,-0.443961 -1.0573,-0.718555 -1.73478,-0.718555 -0.67748,0 -1.29082,0.274594 -1.73478,0.718555 -0.443961,0.443957 -0.718555,1.0573 -0.718555,1.73478 0,0.67748 0.274594,1.29082 0.718555,1.73478 0.443957,0.443961 1.0573,0.718555 1.73478,0.718555 0.67748,0 1.29082,-0.274594 1.73478,-0.718555 0.443961,-0.443957 0.718555,-1.0573 0.718555,-1.73478 0,-0.67748 -0.274594,-1.29082 -0.718555,-1.73478z"/>
  <circle class="fil3" cx="4.15995" cy="2.77003" r="0.210033"/>
  <polygon class="fil2" points="4.63779,2.57885 4.07328,2.27731 4.17328,2.08981 4.73779,2.39134 "/>
  <circle class="fil3" cx="2.66671" cy="2.77003" r="0.210033"/>
  <polygon class="fil2" points="2.08887,2.39134 2.65339,2.08981 2.75339,2.27731 2.18887,2.57885 "/>
  <path class="fil2" d="M3.41333 4.15999c0.222291,0 0.425937,0.046252 0.575472,0.121016 0.171673,0.0858346 0.277862,0.212283 0.277862,0.358984 0,0.146697 -0.106189,0.27315 -0.277862,0.358984 -0.149535,0.0747638 -0.353181,0.121016 -0.575472,0.121016 -0.222291,0 -0.425937,-0.046252 -0.575472,-0.121016 -0.171673,-0.0858346 -0.277862,-0.212287 -0.277862,-0.358984 0,-0.146701 0.106189,-0.27315 0.277862,-0.358984 0.149535,-0.0747638 0.353181,-0.121016 0.575472,-0.121016zm0.480472 0.311016c-0.120697,-0.0603465 -0.290398,-0.0976772 -0.480472,-0.0976772 -0.190075,0 -0.359776,0.0373307 -0.480472,0.0976772 -0.0985591,0.0492795 -0.159524,0.109504 -0.159524,0.168984 0,0.0594724 0.0609646,0.119705 0.159524,0.168984 0.120697,0.0603465 0.290398,0.0976772 0.480472,0.0976772 0.190075,0 0.359776,-0.0373307 0.480472,-0.0976772 0.0985591,-0.0492795 0.159524,-0.109512 0.159524,-0.168984 0,-0.0594803 -0.0609646,-0.119705 -0.159524,-0.168984z"/>
 </g>
</svg>
