<svg xmlns="http://www.w3.org/2000/svg" width="28" height="17" viewBox="0 0 28 17"><g><g><path fill="#000" d="M1.001 16.508a.999.999 0 0 1-.534-1.846l4.286-2.701c.81-.574 1.912-.65 2.906-.171 1.128.543 3.816.526 4.876-.032a2.799 2.799 0 0 1 2.813.11l4.207 2.808a1 1 0 0 1-1.11 1.664l-4.194-2.798a.778.778 0 0 0-.786-.013c-1.611.846-4.979.878-6.673.063-.331-.16-.676-.147-.928.03l-4.331 2.732a.997.997 0 0 1-.532.154z"/></g><g><path fill="#000" d="M4.949 5c0-2.757 2.243-5 5-5s5 2.243 5 5-2.243 5-5 5-5-2.243-5-5zm2 0c0 1.654 1.346 3 3 3s3-1.346 3-3-1.346-3-3-3-3 1.346-3 3z"/></g><g><path fill="#000" d="M26.999 12.985a.994.994 0 0 1-.554-.168l-3.029-2.02c-.073-.048-.182-.05-.284.005-1.248.656-3.758.68-5.07.05-.054-.026-.243-.104-.388 0a1 1 0 1 1-1.155-1.634c.7-.495 1.601-.557 2.41-.169.743.357 2.577.346 3.272-.018a2.296 2.296 0 0 1 2.312.093l3.042 2.03a1 1 0 0 1-.556 1.831z"/></g><g><path fill="#000" d="M16.574 4.397a3.894 3.894 0 0 1 3.889-3.89 3.893 3.893 0 0 1 3.889 3.89 3.893 3.893 0 0 1-3.89 3.889 3.894 3.894 0 0 1-3.888-3.89zm2 0c0 1.04.847 1.889 1.889 1.889a1.891 1.891 0 0 0 1.889-1.89 1.89 1.89 0 0 0-1.89-1.888 1.89 1.89 0 0 0-1.888 1.889z"/></g></g></svg>