<?xml version="1.0" encoding="UTF-8"?>
<!DOCTYPE svg PUBLIC "-//W3C//DTD SVG 1.1//EN" "http://www.w3.org/Graphics/SVG/1.1/DTD/svg11.dtd">
<!-- Creator: CorelDRAW -->
<svg xmlns="http://www.w3.org/2000/svg" xml:space="preserve" width="2048px" height="2048px" style="shape-rendering:geometricPrecision; text-rendering:geometricPrecision; image-rendering:optimizeQuality; fill-rule:evenodd; clip-rule:evenodd"
viewBox="0 0 2048 2048"
 xmlns:xlink="http://www.w3.org/1999/xlink">
 <defs>
  <style type="text/css">
   <![CDATA[
    .fil0 {fill:#464549;}
    .fil1 {fill:white;fill-rule:nonzero}
   ]]>
  </style>
 </defs>
 <rect class="fil0" width="2048" height="2048"/>
 <g id="Layer_x0020_1">
  <metadata id="CorelCorpID_0Corel-Layer"/>
  <path class="fil1" d="M529.993 383.998l988.009 0c22.5815,0 43.0902,9.21615 57.9367,24.0626 14.8465,14.8465 24.0626,35.3551 24.0626,57.9378l0 476.001c0,22.5827 -9.21615,43.0914 -24.0626,57.9378 -14.8465,14.8465 -35.3551,24.0626 -57.9367,24.0626l-988.009 0c-22.5815,0 -43.0902,-9.21615 -57.9367,-24.0626 -14.8465,-14.8465 -24.0626,-35.3551 -24.0626,-57.9378l0 -476.001c0,-22.5827 9.21615,-43.0914 24.0626,-57.9378 14.8465,-14.8465 35.3551,-24.0626 57.9367,-24.0626zm988.009 64.0016l-988.009 0c-4.91575,0 -9.40985,2.03504 -12.6862,5.31142 -3.27638,3.27638 -5.31142,7.77048 -5.31142,12.6874l0 476.001c0,4.91693 2.03504,9.41103 5.31142,12.6874 3.27638,3.27638 7.77048,5.31142 12.6862,5.31142l988.009 0c4.91575,0 9.40985,-2.03504 12.6862,-5.31142 3.27638,-3.27638 5.31142,-7.77048 5.31142,-12.6874l0 -476.001c0,-4.91693 -2.03504,-9.41103 -5.31142,-12.6874 -3.27638,-3.27638 -7.77048,-5.31142 -12.6862,-5.31142z"/>
  <g id="_497291064">
   <path id="_415332760" class="fil1" d="M705.04 1472l-257.59 0c-5.84056,0 -10.9063,1.50709 -14.113,4.1563 -1.22126,1.00866 -1.99606,2.25827 -1.99606,3.58937l0 88.252 287.998 0 0 -88.252 0.125197 -0.250394 0.0011811 -0.19252 -0.122835 0c0,-0.445276 -1.11732,-1.5626 -2.76142,-2.90788 -3.36024,-2.74961 -7.50355,-4.45985 -11.2772,-4.51536l0 -0.00236221 -0.263386 -0.0011811 0 0.124016zm-257.59 -64.0016l257.59 0 0.125197 0.125197 0.638977 0.00472441 0.250394 0c18.4122,0.271654 37.1044,7.37127 51.026,18.7665 15.6414,12.8008 26.263,31.1717 26.263,52.4079l-0.125197 0.250394 -0.0011811 0.19252 0.122835 0 0 120.253 0 32.0008 -32.0008 0 -351.999 0 -32.0008 0 0 -32.0008 0 -120.253c0,-21.9402 9.77835,-40.0618 25.2473,-52.839 14.5866,-12.052 34.2957,-18.9083 54.8634,-18.9083z"/>
   <path id="_415336816" class="fil1" d="M513.794 1242.21c0,23.85 8.67638,48.691 22.6063,67.0335 10.9878,14.4697 24.8433,24.254 39.0189,24.254 14.002,0 27.7866,-9.80079 38.7709,-24.2894l0.125197 0c13.8992,-18.3331 22.5721,-43.1575 22.5721,-66.9981 0,-18.9201 -5.86063,-33.0296 -15.4252,-42.2599 -10.8992,-10.5189 -27.2929,-15.9449 -46.0429,-15.9449 -18.8421,0 -35.2701,5.41772 -46.1717,15.9201 -9.5882,9.23859 -15.4536,23.3575 -15.4536,42.2847zm-28.1433 105.533c-22.0973,-29.0965 -35.8583,-68.2111 -35.8583,-105.533 0,-37.5603 13.3595,-67.2378 35.204,-88.2839 23.2288,-22.3784 55.33,-33.9225 90.4229,-33.9225 35.0091,0 67.089,11.5524 90.2942,33.9473 21.8126,21.0508 35.1756,50.7213 35.1756,88.2591 0,37.2756 -13.7457,76.3465 -35.7792,105.437l0.080315 0.0602363c-22.5189,29.7036 -53.987,49.7918 -89.7709,49.7918 -35.7709,0 -67.2272,-20.0717 -89.7686,-49.7563z"/>
   <path id="_497295312" class="fil1" d="M1153.7 1472l-257.59 0c-5.84056,0 -10.9063,1.50709 -14.113,4.1563 -1.22126,1.00866 -1.99606,2.25827 -1.99606,3.58937l0 88.252 287.998 0 0 -88.252 0.125197 -0.250394 0.0011811 -0.19252 -0.122835 0c0,-0.445276 -1.11732,-1.5626 -2.76142,-2.90788 -3.36024,-2.74961 -7.50355,-4.45985 -11.2772,-4.51536l0 -0.00236221 -0.263386 -0.0011811 0 0.124016zm-257.59 -64.0016l257.59 0 0.125197 0.125197 0.638977 0.00472441 0.250394 0c18.4122,0.271654 37.1044,7.37127 51.026,18.7665 15.6414,12.8008 26.263,31.1717 26.263,52.4079l-0.125197 0.250394 -0.0011811 0.19252 0.122835 0 0 120.253 0 32.0008 -32.0008 0 -351.999 0 -32.0008 0 0 -32.0008 0 -120.253c0,-21.9402 9.77835,-40.0618 25.2473,-52.839 14.5866,-12.052 34.2957,-18.9083 54.8634,-18.9083z"/>
   <path id="_497295576" class="fil1" d="M962.452 1242.21c0,23.85 8.67638,48.691 22.6063,67.0335 10.9878,14.4697 24.8433,24.254 39.0189,24.254 14.002,0 27.7866,-9.80079 38.7709,-24.2894l0.125197 0c13.8992,-18.3331 22.5721,-43.1575 22.5721,-66.9981 0,-18.9201 -5.86063,-33.0296 -15.4252,-42.2599 -10.8992,-10.5189 -27.2929,-15.9449 -46.0429,-15.9449 -18.8421,0 -35.2701,5.41772 -46.1717,15.9201 -9.5882,9.23859 -15.4536,23.3575 -15.4536,42.2847zm-28.1433 105.533c-22.0973,-29.0965 -35.8583,-68.2111 -35.8583,-105.533 0,-37.5603 13.3595,-67.2378 35.204,-88.2839 23.2288,-22.3784 55.33,-33.9225 90.4229,-33.9225 35.0091,0 67.089,11.5524 90.2942,33.9473 21.8126,21.0508 35.1756,50.7213 35.1756,88.2591 0,37.2756 -13.7457,76.3465 -35.7792,105.437l0.080315 0.0602363c-22.5189,29.7036 -53.9859,49.7918 -89.7709,49.7918 -35.7709,0 -67.2272,-20.0717 -89.7686,-49.7563z"/>
   <path id="_497296440" class="fil1" d="M1602.35 1472l-257.59 0c-5.84056,0 -10.9075,1.50827 -14.113,4.1563 -1.22126,1.00866 -1.99606,2.25827 -1.99606,3.58937l0 88.252 287.998 0 0 -88.252 0.125197 -0.250394 0.0011811 -0.19252 -0.122835 0c0,-0.445276 -1.11732,-1.5626 -2.76142,-2.90788 -3.36024,-2.74961 -7.50355,-4.45985 -11.2772,-4.51536l0 -0.00236221 -0.263386 -0.0011811 0 0.124016zm-257.59 -64.0016l257.59 0 0.125197 0.125197 0.638977 0.00472441 0.250394 0c18.4122,0.271654 37.1044,7.37127 51.026,18.7665 15.6414,12.8008 26.263,31.1717 26.263,52.4079l-0.125197 0.250394 -0.0011811 0.19252 0.122835 0 0 120.253 0 32.0008 -32.0008 0 -351.999 0 -32.0008 0 0 -32.0008 0 -120.253c0,-21.9402 9.77835,-40.0618 25.2473,-52.839 14.5866,-12.052 34.2957,-18.9083 54.8634,-18.9083z"/>
   <path id="_497295168" class="fil1" d="M1411.11 1242.21c0,23.85 8.67638,48.691 22.6063,67.0335 10.9878,14.4697 24.8433,24.254 39.0189,24.254 14.002,0 27.7866,-9.80079 38.7709,-24.2894l0.125197 0c13.8992,-18.3331 22.5721,-43.1575 22.5721,-66.9981 0,-18.9201 -5.86063,-33.0296 -15.4252,-42.2599 -10.8992,-10.5189 -27.2929,-15.9449 -46.0429,-15.9449 -18.8421,0 -35.2713,5.4189 -46.1717,15.9201 -9.5882,9.23859 -15.4536,23.3575 -15.4536,42.2847zm-28.1433 105.533c-22.0973,-29.0965 -35.8583,-68.2111 -35.8583,-105.533 0,-37.5603 13.3595,-67.2378 35.204,-88.2839 23.2288,-22.3784 55.33,-33.9225 90.4229,-33.9225 35.0091,0 67.089,11.5524 90.2942,33.9473 21.8126,21.0508 35.1756,50.7213 35.1756,88.2591 0,37.2756 -13.7457,76.3465 -35.7792,105.437l0.080315 0.0602363c-22.5189,29.7036 -53.9859,49.7918 -89.7709,49.7918 -35.7709,0 -67.226,-20.0705 -89.7686,-49.7563z"/>
  </g>
  <polygon class="fil1" points="704.001,703.995 1056,703.995 1056,767.997 704.001,767.997 "/>
  <polygon class="fil1" points="576.002,543.996 736.001,543.996 736.001,607.998 576.002,607.998 "/>
 </g>
</svg>
