<svg xmlns="http://www.w3.org/2000/svg" width="13" height="8.5" viewBox="0 0 26 17"><g><g><path fill="#c5a4cd" d="M20.681 8.196L12.557.073V16.32z"/></g><g><path fill="#7c51a0" d="M26.112 8.196l-10.688-5.27-10.687 5.27 10.687 5.27z"/></g><g><path fill="#946eaf" d="M4.737 8.196l10.688 5.27 10.687-5.27z"/></g><g><path fill="#ac87bd" d="M.46 12.474l4.277-4.277L.46 3.92z"/></g><g><path fill="#fff" d="M18.7 5.087l-1.155 3.11 1.155 3.107z"/></g><g><path fill="#e4c9e0" d="M17.545 4.165l-1.156 4.031 1.156 4.031z"/></g><g><path fill="#fff" d="M22.622 8.196l-1.77-1.77-1.77 1.77 1.77 1.77z"/></g><g><path fill="#58595b" d="M21.748 8.196l-.896-.896-.895.896.895.896z"/></g><g><path fill="#ac87bd" d="M15.464 5.93L14.33 4.798 13.197 5.93l1.133 1.133z"/></g><g><path fill="#ac87bd" d="M15.464 8.196L14.33 7.063l-1.133 1.133L14.33 9.33z"/></g><g><path fill="#ac87bd" d="M15.464 10.462L14.33 9.33l-1.133 1.132 1.133 1.133z"/></g><g><path fill="#c5a4cd" d="M13.165 7.064L12.031 5.93l-1.132 1.133 1.132 1.133z"/></g><g><path fill="#c5a4cd" d="M13.165 9.33l-1.134-1.134-1.132 1.134 1.132 1.132z"/></g><g><path fill="#e4c9e0" d="M10.866 8.196L9.733 7.063 8.6 8.196 9.733 9.33z"/></g></g></svg>