<svg xmlns="http://www.w3.org/2000/svg" width="19" height="20" viewBox="0 0 19 20"><g><g><path fill="#7e576a" d="M8.187 6.892V3.033h1.93c1.06 0 1.928.868 1.928 1.93 0 1.06-.867 1.93-1.928 1.93z"/></g><g><path fill="#7e576a" d="M9.398 4.266h-3.86v-1.93c0-1.061.869-1.93 1.93-1.93 1.062 0 1.93.869 1.93 1.93z"/></g><g><path fill="#7e576a" d="M15.481 10.568l1.315-1.314a.773.773 0 0 1 1.092 1.092l-1.314 1.315z"/></g><g><path fill="#f7aaac" d="M9.398 8.771h1.968c4.01 0 7.29 3.283 7.29 7.292v.011l-.536-.01-.086-.958-2.09-1.712-4.092.418-2.454 2.251z"/></g><g><path fill="#f7aaac" d="M9.398 7.986v6.84H7.332A3.339 3.339 0 0 1 4.004 11.5v-3.27c0-.576-.472-1.05-1.05-1.05-.403 0-.807.01-1.2.01A1.499 1.499 0 0 1 .262 5.694V3.919a.9.9 0 0 1 .899-.898c3.565-.001 4.89.008 8.238.012V7.14z"/></g><g><path fill="#fff" d="M6.64 3.729a2.056 2.056 0 1 1 .001 4.112 2.056 2.056 0 0 1-.002-4.112z"/></g><g><path fill="#b95453" d="M6.64 4.694a1.091 1.091 0 1 1 .001 2.182 1.091 1.091 0 0 1-.002-2.182z"/></g><g><path fill="#e97873" d="M18.657 16.064H17.58v-.231a.54.54 0 0 0-.538-.539.54.54 0 0 0-.537.539v.231h-1.078v-.499c0-.771-.63-1.401-1.4-1.401-.77 0-1.401.63-1.401 1.401v.499H11.55v-.231a.54.54 0 0 0-.54-.539.54.54 0 0 0-.537.539v.231H9.398a4.643 4.643 0 0 1 4.63-4.629 4.643 4.643 0 0 1 4.629 4.629z"/></g><g><path fill="#e97873" d="M9.397 16.064h1.077v3.506a.54.54 0 0 1-1.077 0zm2.153 0h1.076v3.506a.54.54 0 0 1-1.076 0zm3.878 0h1.076v3.506a.538.538 0 0 1-1.076 0zm2.153 0h1.076v3.506a.54.54 0 0 1-1.076 0z"/></g><g><path fill="#b95453" d="M1.06 2.795H.7a.665.665 0 0 0-.663.664v.36c0 .365.296.664.662.664h.362a.665.665 0 0 0 .663-.664v-.36a.665.665 0 0 0-.663-.664z"/></g></g></svg>