<?xml version="1.0" encoding="utf-8"?>
<!-- Generator: Adobe Illustrator 23.0.3, SVG Export Plug-In . SVG Version: 6.00 Build 0)  -->
<svg version="1.1" id="Layer_1" xmlns="http://www.w3.org/2000/svg" xmlns:xlink="http://www.w3.org/1999/xlink" x="0px" y="0px"
	 viewBox="0 0 60 60" style="enable-background:new 0 0 60 60;" xml:space="preserve">
<style type="text/css">
	.st0{fill:#71C6EF;}
	.st1{fill:#FFFFFF;}
	.st2{fill:#89C763;}
	.st3{fill:#ED1B31;}
	.st4{fill:#F3A0B7;}
	.st5{fill:#FFC548;}
	.st6{fill:#F36F34;}
</style>
<g>
	<rect x="37" y="16" width="4" height="2"/>
</g>
<g>
	<rect x="19" y="16" width="4" height="2"/>
</g>
<g>
	<rect x="9" y="17" class="st2" width="42" height="2"/>
</g>
<g>
	<ellipse transform="matrix(0.7071 -0.7071 0.7071 0.7071 -1.3701 21.6924)" class="st2" cx="25.5" cy="12.5" rx="1.86" ry="4.95"/>
</g>
<g>
	<ellipse transform="matrix(0.7071 -0.7071 0.7071 0.7071 4.7807 36.5416)" class="st2" cx="46.5" cy="12.5" rx="4.95" ry="1.86"/>
</g>
<g>
	<circle cx="21" cy="16" r="2"/>
</g>
<g>
	<circle cx="39" cy="16" r="2"/>
</g>
<path d="M41,25v-6h-4v6c0,0.47-0.05,0.92-0.13,1.36c-1.39,1.02-2.39,2.53-2.73,4.28c-0.05,0.03-0.09,0.07-0.13,0.1V16
	c0-1.1-0.9-2-2-2s-2,0.9-2,2v9c0,2.59-1.41,4.85-3.5,6.06C24.41,29.85,23,27.59,23,25v-6h-4v11.74c-1.81-1.27-3-3.36-3-5.74v-9
	c0-1.1-0.9-2-2-2s-2,0.9-2,2v16c0,9.94,8.06,18,18,18c9.94,0,18-8.06,18-18C48,28.13,44.87,25,41,25z"/>
<g>
	<g>
		<circle class="st1" cx="38" cy="31" r="1"/>
	</g>
	<g>
		<circle cx="38" cy="31" r="0.5"/>
	</g>
</g>
<g>
	<path class="st1" d="M45.57,33H44c-1.1,0-2-0.9-2-2s0.9-2,2-2h2.2c-0.52-0.9-1.26-1.65-2.15-2.17C42.7,26.04,41,26.98,41,28.54
		c0-1.56-1.7-2.51-3.04-1.71c-0.89,0.53-1.63,1.28-2.15,2.17H38c1.1,0,2,0.9,2,2s-0.9,2-2,2h-1.57c-0.72,0-1.21,0.75-0.92,1.41
		C36.44,36.52,38.54,38,41,38s4.56-1.48,5.49-3.59C46.78,33.75,46.29,33,45.57,33z"/>
	<g>
		<circle class="st1" cx="44" cy="31" r="1"/>
	</g>
	<g>
		<circle cx="44" cy="31" r="0.5"/>
	</g>
</g>
<g>
	<path d="M41,35.5c-0.91,0-1.75-0.42-2.38-1.18l0.77-0.64c0.88,1.06,2.36,1.06,3.23,0l0.77,0.64C42.75,35.08,41.91,35.5,41,35.5z"/>
</g>
<g>
	<circle cx="41" cy="33" r="1"/>
</g>
</svg>
