<?xml version="1.0" encoding="UTF-8"?>
<!DOCTYPE svg PUBLIC "-//W3C//DTD SVG 1.1//EN" "http://www.w3.org/Graphics/SVG/1.1/DTD/svg11.dtd">
<!-- Creator: CorelDRAW -->
<svg xmlns="http://www.w3.org/2000/svg" xml:space="preserve" width="6.82666in" height="6.82666in" style="shape-rendering:geometricPrecision; text-rendering:geometricPrecision; image-rendering:optimizeQuality; fill-rule:evenodd; clip-rule:evenodd"
viewBox="0 0 6.82666 6.82666"
 xmlns:xlink="http://www.w3.org/1999/xlink">
 <defs>
  <style type="text/css">
   <![CDATA[
    .fil1 {fill:none}
    .fil0 {fill:#f7933c}
    .fil3 {fill:#FFFFFE}
    .fil2 {fill:#FFFFFE;fill-rule:nonzero}
   ]]>
  </style>
 </defs>
 <g id="Layer_x0020_1">
  <metadata id="CorelCorpID_0Corel-Layer"/>
  <g id="_429134072">
   <rect id="_429135704" class="fil0" x="0.106665" width="6.82666" height="6.82666"/>
   <rect id="_429133472" class="fil0" x="0.959996" y="0.853327" width="5.12" height="5.12"/>
  </g>
  <rect class="fil1" x="0.853331" y="0.853331" width="5.12" height="5.12"/>
  <path class="fil2" d="M3.41333 0.746661c0.736366,0 1.40304,0.29848 1.88561,0.781059 0.482579,0.482575 0.781059,1.14924 0.781059,1.88561 0,0.736366 -0.29848,1.40304 -0.781059,1.88561 -0.482575,0.482579 -1.14924,0.781059 -1.88561,0.781059 -0.736366,0 -1.40304,-0.29848 -1.88561,-0.781059 -0.482579,-0.482575 -0.781059,-1.14924 -0.781059,-1.88561 0,-0.736366 0.29848,-1.40304 0.781059,-1.88561 0.482575,-0.482579 1.14924,-0.781059 1.88561,-0.781059zm1.73478 0.931894c-0.443957,-0.443961 -1.0573,-0.718555 -1.73478,-0.718555 -0.67748,0 -1.29082,0.274594 -1.73478,0.718555 -0.443961,0.443957 -0.718555,1.0573 -0.718555,1.73478 0,0.67748 0.274594,1.29082 0.718555,1.73478 0.443957,0.443961 1.0573,0.718555 1.73478,0.718555 0.67748,0 1.29082,-0.274594 1.73478,-0.718555 0.443961,-0.443957 0.718555,-1.0573 0.718555,-1.73478 0,-0.67748 -0.274594,-1.29082 -0.718555,-1.73478z"/>
  <circle class="fil3" cx="2.6681" cy="2.69205" r="0.213335"/>
  <circle class="fil3" cx="4.15856" cy="2.69205" r="0.213335"/>
  <path class="fil2" d="M4.77151 4.22859c-0.140272,0.242961 -0.339681,0.439079 -0.573862,0.574283l-0.000417323 0c-0.23487,0.135598 -0.504315,0.210453 -0.783902,0.210453 -0.279587,0 -0.549031,-0.0748543 -0.783902,-0.210453l-0.000417323 0c-0.234181,-0.135205 -0.433591,-0.331323 -0.573862,-0.574283l0.184165 -0.105835c0.120878,0.20937 0.293374,0.378756 0.496366,0.495953l-0.000102362 0.000181102c0.20224,0.116689 0.435165,0.181098 0.677752,0.181098 0.242587,0 0.475512,-0.0644094 0.677752,-0.181098l-0.000102362 -0.000181102c0.202992,-0.117197 0.375488,-0.286583 0.496366,-0.495953l0.184165 0.105835z"/>
 </g>
</svg>
