<?xml version="1.0" encoding="UTF-8"?>
<!DOCTYPE svg PUBLIC "-//W3C//DTD SVG 1.1//EN" "http://www.w3.org/Graphics/SVG/1.1/DTD/svg11.dtd">
<!-- Creator: CorelDRAW -->
<svg xmlns="http://www.w3.org/2000/svg" xml:space="preserve" width="6.82666in" height="6.82666in" style="shape-rendering:geometricPrecision; text-rendering:geometricPrecision; image-rendering:optimizeQuality; fill-rule:evenodd; clip-rule:evenodd"
viewBox="0 0 6.82666 6.82666"
 xmlns:xlink="http://www.w3.org/1999/xlink">
 <defs>
  <style type="text/css">
   <![CDATA[
    .fil0 {fill:#00796B}
    .fil1 {fill:#FFFFFE;fill-rule:nonzero}
   ]]>
  </style>
 </defs>
 <g id="Layer_x0020_1">
  <metadata id="CorelCorpID_0Corel-Layer"/>
  <g id="_429136376">
   <rect id="_429131024" class="fil0" width="6.82666" height="6.82666"/>
   <rect id="_429137096" class="fil0" x="0.853331" y="0.853331" width="5.12" height="5.12"/>
  </g>
  <path class="fil1" d="M3.41333 0.746661c0.736366,0 1.40304,0.29848 1.88561,0.781059 0.482579,0.482575 0.781059,1.14924 0.781059,1.88561 0,0.736366 -0.29848,1.40304 -0.781059,1.88561 -0.482575,0.482579 -1.14924,0.781059 -1.88561,0.781059 -0.736366,0 -1.40304,-0.29848 -1.88561,-0.781059 -0.482579,-0.482575 -0.781059,-1.14924 -0.781059,-1.88561 0,-0.736366 0.29848,-1.40304 0.781059,-1.88561 0.482575,-0.482579 1.14924,-0.781059 1.88561,-0.781059zm1.73478 0.931894c-0.443957,-0.443961 -1.0573,-0.718555 -1.73478,-0.718555 -0.67748,0 -1.29082,0.274594 -1.73478,0.718555 -0.443961,0.443957 -0.718555,1.0573 -0.718555,1.73478 0,0.67748 0.274594,1.29082 0.718555,1.73478 0.443957,0.443961 1.0573,0.718555 1.73478,0.718555 0.67748,0 1.29082,-0.274594 1.73478,-0.718555 0.443961,-0.443957 0.718555,-1.0573 0.718555,-1.73478 0,-0.67748 -0.274594,-1.29082 -0.718555,-1.73478z"/>
  <g id="_429135392">
   <polygon id="_429133496" class="fil1" points="2.73412,2.45333 2.73412,2.93716 2.52078,2.93716 2.52078,2.45333 "/>
   <polygon id="_429130712" class="fil1" points="4.30588,2.45333 4.30588,2.93716 4.09254,2.93716 4.09254,2.45333 "/>
  </g>
  <polygon class="fil1" points="2.18667,4.37333 4.64,4.37333 4.64,4.58667 2.18667,4.58667 "/>
 </g>
</svg>
