<?xml version="1.0" encoding="UTF-8"?>
<!DOCTYPE svg PUBLIC "-//W3C//DTD SVG 1.1//EN" "http://www.w3.org/Graphics/SVG/1.1/DTD/svg11.dtd">
<!-- Creator: CorelDRAW -->
<svg xmlns="http://www.w3.org/2000/svg" xml:space="preserve" width="2048px" height="2048px" style="shape-rendering:geometricPrecision; text-rendering:geometricPrecision; image-rendering:optimizeQuality; fill-rule:evenodd; clip-rule:evenodd"
viewBox="0 0 2048 2048"
 xmlns:xlink="http://www.w3.org/1999/xlink">
 <defs>
  <style type="text/css">
   <![CDATA[
    .str0 {stroke:white;stroke-width:64.0004}
    .fil1 {fill:none}
    .fil0 {fill:#464549}
    .fil2 {fill:white;fill-rule:nonzero}
   ]]>
  </style>
 </defs>
 <rect class="fil0" width="2048" height="2048"/>
 <g id="Layer_x0020_1">
  <metadata id="CorelCorpID_0Corel-Layer"/>
  <path class="fil1 str0" d="M1509.28 939.144l-103.465 0 -91.1174 149.102 -90.7264 -149.102 -107.726 0c0,0 -249.161,-3.23977 -267.206,211.686l0 28.1303 -97.3324 -66.5186 -11.361 -7.93347c-96.8292,-75.0886 -190.904,45.2103 -118.017,118.082 0.154725,0.154725 54.0556,36.6555 54.0556,36.6555l75.2646 50.289 143.133 95.3186c48.3839,29.9339 119.512,-10.7693 119.512,-72.9898l0 -147.173 124.35 0 -0.161811 352.475 366.405 0 -0.173622 -350.325 110.398 0c0,94.0961 0,188.193 0,282.288 0,109.26 165.171,108.889 165.171,0l0 -318.377c0.0696851,0 10.0772,-206.406 -271.004,-211.609z"/>
  <path class="fil2" d="M1314.72 825.067c46.4906,0 88.2355,-18.5032 118.14,-48.4122 28.2496,-28.2544 45.7264,-66.7465 45.7264,-108.767 0,-42.0307 -17.4709,-80.5146 -45.7158,-108.761 -29.9044,-29.9079 -71.654,-48.404 -118.15,-48.404 -46.4977,0 -88.2627,18.4996 -118.181,48.4134 -28.2544,28.2484 -45.737,66.7288 -45.737,108.751 0,42.013 17.4874,80.5005 45.7465,108.756 29.9185,29.915 71.68,48.4229 118.172,48.4229zm149.345 1.58858c-38.5536,38.5595 -91.382,62.413 -149.345,62.413 -57.9591,0 -110.808,-23.8583 -149.376,-62.4237 -40.2166,-40.2118 -65.1024,-96.3107 -65.1024,-158.757 0,-62.4579 24.8811,-118.549 65.093,-158.752 38.5701,-38.5642 91.4233,-62.4142 149.386,-62.4142 57.9662,0 110.8,23.8465 149.355,62.4048 40.2024,40.2059 65.0717,96.3001 65.0717,158.762 0,62.4473 -24.8729,118.551 -65.0823,158.767z"/>
  <polygon class="fil2" points="222.782,773.471 608.005,1076.15 581.343,1130.4 196.12,827.722 "/>
 </g>
</svg>
