<svg xmlns="http://www.w3.org/2000/svg" width="67" height="67" viewBox="0 0 67 67"><g><g><path fill="#f7bed7" d="M66.572.501H.645v65.928h65.927z"/></g><g><path fill="#a75151" d="M24.193 19.696a8.237 8.237 0 0 1-6.417 8.033v4.17c0 3.045 2.49 5.537 5.537 5.537H39.6c-.138.554-.185 1.119-.093 1.666.2 1.15 1.07 2.084 2.286 2.084 1.213 0 2.086-.933 2.283-2.084.095-.547.045-1.112-.093-1.666h5.134c5.707 0 10.377 4.668 10.377 10.374 0 5.709-4.67 10.377-10.377 10.377H34.693c-11.306 0-20.554-9.25-20.554-20.554v-9.904a8.238 8.238 0 0 1-6.419-8.033 3.458 3.458 0 0 1 3.448-3.447 3.457 3.457 0 0 1 3.446 3.447v5.103a1.35 1.35 0 0 0 1.343 1.343c.74 0 1.343-.607 1.343-1.343v-5.103a3.457 3.457 0 0 1 3.446-3.447 3.457 3.457 0 0 1 3.447 3.447z"/></g><g><path fill="#fff" d="M50.6 47.565h-3.46a3.204 3.204 0 0 0-3.194 3.194 3.203 3.203 0 0 0 3.194 3.193h3.46a3.201 3.201 0 0 0 3.191-3.193 3.201 3.201 0 0 0-3.192-3.194z"/></g><g><path fill="#693939" d="M48.87 48.664a2.096 2.096 0 1 0 0 4.191 2.096 2.096 0 0 0 0-4.19z"/></g><g><path fill="#fff" d="M42.076 37.598v-5.22c.048-1.817 1.139-3.31 2.834-3.733a3.113 3.113 0 1 0-1.4-6.007v-9.904a2.41 2.41 0 0 0 4.224-1.585 2.409 2.409 0 1 0-4.819 0V22.94c-.244.16-.465.355-.655.575v-9.68a4.12 4.12 0 0 0-4.121-4.12 4.12 4.12 0 0 0-.386 8.223c2.247.56 3.69 2.537 3.753 4.94V37.598z"/></g></g></svg>