<svg xmlns="http://www.w3.org/2000/svg" width="10" height="9.5" viewBox="0 0 20 19"><g><g><path fill="#6c8bc6" d="M6.273 4.482a3.102 3.102 0 0 1-2.416 3.025v1.57A2.09 2.09 0 0 0 5.94 11.16h6.133a1.538 1.538 0 0 0-.036.628c.075.433.403.785.86.785.458 0 .785-.352.86-.785a1.52 1.52 0 0 0-.034-.628h1.933a3.917 3.917 0 0 1 3.905 3.906 3.917 3.917 0 0 1-3.905 3.907h-5.431c-4.256 0-7.738-3.482-7.738-7.738v-3.73A3.1 3.1 0 0 1 .07 4.483c0-.713.584-1.298 1.298-1.298.714 0 1.297.585 1.297 1.298v1.922c0 .277.228.505.505.505a.508.508 0 0 0 .507-.505V4.482c0-.713.583-1.298 1.297-1.298s1.298.585 1.298 1.298z"/></g><g><path fill="#fff" d="M16.213 14.975H14.91c-.66 0-1.202.54-1.202 1.202 0 .662.541 1.203 1.202 1.203h1.303c.661 0 1.202-.541 1.202-1.203 0-.661-.54-1.202-1.202-1.202z"/></g><g><path fill="#693939" d="M15.562 15.388a.79.79 0 1 0 .002 1.58.79.79 0 0 0-.002-1.58z"/></g><g><path fill="#8fd5e0" d="M13.004 11.223V9.257c.018-.684.43-1.245 1.067-1.405a1.171 1.171 0 1 0-.526-2.262V1.862a.907.907 0 1 0-.225-.597v4.44a1.212 1.212 0 0 0-.246.216V2.277a1.552 1.552 0 1 0-1.697 1.544c.845.21 1.39.954 1.413 1.86l.001 1.548v3.994z"/></g></g></svg>