<svg xmlns="http://www.w3.org/2000/svg" width="49" height="46" viewBox="0 0 49 46"><g><g><path fill="#cba397" d="M48.911.058H.315v45.601h48.596z"/></g><g><path fill="#e5c5ba" d="M17.3 21.122a.858.858 0 1 1 1.215 1.215.858.858 0 1 1-1.215-1.215zm0 4.516a.86.86 0 0 1 1.215 1.215.86.86 0 0 1-1.215-1.215zm-2.26 2.258a.86.86 0 1 1 1.216 1.218.86.86 0 0 1-1.215-1.218zm-2.257 2.26a.86.86 0 0 1 1.215 1.214.86.86 0 0 1-1.215-1.215zm-2.258 2.257a.86.86 0 1 1 1.215 1.218.86.86 0 0 1-1.215-1.218zm-2.26 2.26a.858.858 0 1 1 1.216 1.214.858.858 0 1 1-1.215-1.215zM6.009 36.93a.859.859 0 1 1 1.215 1.214.859.859 0 0 1-1.215-1.214zM3.75 39.188a.858.858 0 1 1 1.215 1.213.858.858 0 0 1-1.215-1.213zm-2.258 2.258a.858.858 0 1 1 1.215 1.215.858.858 0 0 1-1.215-1.215zm18.066-13.55a.86.86 0 1 1 1.215 1.218.86.86 0 0 1-1.215-1.218zm-2.258 2.26a.86.86 0 0 1 1.215 1.214.86.86 0 0 1-1.215-1.215zm-2.26 2.257a.86.86 0 1 1 1.216 1.218.86.86 0 0 1-1.215-1.218zm-2.257 2.26a.858.858 0 1 1 1.215 1.214.858.858 0 1 1-1.215-1.215zm-2.258 2.257a.858.858 0 1 1 1.215 1.213.858.858 0 0 1-1.215-1.213zm-2.26 2.258a.858.858 0 1 1 1.216 1.213.858.858 0 0 1-1.215-1.213zm-2.257 2.258a.858.858 0 1 1 1.215 1.213.858.858 0 0 1-1.215-1.213zM3.75 43.704a.86.86 0 1 1 1.215 1.218.86.86 0 0 1-1.215-1.218zm18.066-13.549a.86.86 0 0 1 1.215 1.215.86.86 0 0 1-1.215-1.215zm-2.258 2.258a.86.86 0 1 1 1.215 1.218.86.86 0 0 1-1.215-1.218zm-2.258 2.26a.858.858 0 1 1 1.215 1.214.86.86 0 1 1-1.215-1.215zm-2.26 2.257a.86.86 0 1 1 1.216 1.215.86.86 0 0 1-1.215-1.215zm-2.257 2.258a.858.858 0 1 1 1.215 1.213.858.858 0 0 1-1.215-1.213zm-2.258 2.258a.858.858 0 1 1 1.215 1.213.858.858 0 0 1-1.215-1.213zm-2.26 2.258a.86.86 0 1 1 1.216 1.218.86.86 0 0 1-1.215-1.218zm15.809-11.29a.86.86 0 1 1 1.215 1.217.86.86 0 0 1-1.215-1.218zm-2.258 2.258a.858.858 0 1 1 1.215 1.215.858.858 0 1 1-1.215-1.215zm-2.258 2.258a.86.86 0 1 1 1.215 1.215.86.86 0 0 1-1.215-1.215zM17.3 39.188a.858.858 0 1 1 1.215 1.213.858.858 0 0 1-1.215-1.213zm-2.26 2.258a.858.858 0 1 1 1.216 1.213.858.858 0 0 1-1.215-1.213zm-2.257 2.258a.86.86 0 1 1 1.215 1.218.86.86 0 0 1-1.215-1.218zm13.549-9.032a.86.86 0 1 1 1.216 1.215.86.86 0 0 1-1.216-1.215zm-2.258 2.258a.859.859 0 1 1 1.215 1.214.859.859 0 0 1-1.215-1.214zm-2.258 2.258a.858.858 0 1 1 1.215 1.213.858.858 0 0 1-1.215-1.213zm-2.258 2.258a.857.857 0 0 1 1.214 0 .861.861 0 0 1 0 1.215.86.86 0 0 1-1.214-1.215zM17.3 43.704a.86.86 0 1 1 1.215 1.218.86.86 0 0 1-1.215-1.218zm11.29-6.774a.859.859 0 1 1 1.215 1.214.859.859 0 0 1-1.214-1.214zm-2.258 2.258a.86.86 0 1 1 1.216 1.215.86.86 0 0 1-1.216-1.215zm-2.258 2.258a.858.858 0 1 1 1.215 1.213.858.858 0 0 1-1.215-1.213zm-2.258 2.258a.86.86 0 1 1 1.215 1.218.86.86 0 0 1-1.215-1.218zm9.033-4.516a.858.858 0 1 1 1.215 1.213.858.858 0 0 1-1.215-1.213zm-2.258 2.258a.858.858 0 1 1 1.215 1.213.858.858 0 0 1-1.215-1.213zm-2.26 2.258a.86.86 0 1 1 1.214 1.215.86.86 0 0 1-1.213-1.215zm6.776-2.258a.86.86 0 1 1 1.216 1.215.86.86 0 0 1-1.216-1.215zm-2.258 2.258a.86.86 0 1 1 1.215 1.218.86.86 0 0 1-1.215-1.218zm4.516 0a.86.86 0 1 1 1.215 1.218.86.86 0 0 1-1.215-1.218zM42.14.797a.86.86 0 1 1 1.215 1.218A.86.86 0 0 1 42.14.797zm-2.258 2.26a.86.86 0 0 1 1.215 1.214.86.86 0 0 1-1.215-1.215zm-2.258 2.257a.858.858 0 1 1 1.215 1.216.86.86 0 0 1-1.215-1.216zm-2.26 2.26a.858.858 0 1 1 1.216 1.212.858.858 0 0 1-1.215-1.213zM33.108 9.83a.861.861 0 0 1 1.216 0 .861.861 0 0 1 0 1.216.86.86 0 1 1-1.216-1.216zm-2.258 2.258a.86.86 0 1 1 1.215 1.218.86.86 0 0 1-1.215-1.218zm-2.258 2.26a.86.86 0 0 1 1.215 1.214.86.86 0 0 1-1.215-1.215zm-2.258 2.257a.86.86 0 1 1 1.215 1.218.86.86 0 0 1-1.215-1.218zm-2.26 2.26a.858.858 0 1 1 1.216 1.212.858.858 0 0 1-1.215-1.213zm-2.257 2.257a.858.858 0 1 1 1.215 1.215.858.858 0 1 1-1.215-1.215zm-2.258 2.257a.859.859 0 1 1 1.214 1.215.859.859 0 0 1-1.214-1.215zM46.656.797a.861.861 0 0 1 1.216 0 .861.861 0 0 1 0 1.216.861.861 0 0 1-1.216 0 .861.861 0 0 1 0-1.216zm-2.258 2.26a.86.86 0 1 1 1.214 1.215.86.86 0 0 1-1.214-1.216zM42.14 5.313a.858.858 0 1 1 1.215 1.216.86.86 0 0 1-1.215-1.216zm-2.258 2.26a.858.858 0 1 1 1.215 1.212.858.858 0 0 1-1.215-1.213zM37.624 9.83a.86.86 0 1 1 1.215 1.218.86.86 0 0 1-1.215-1.218zm-2.26 2.258a.86.86 0 1 1 1.216 1.218.86.86 0 0 1-1.215-1.218zm-2.257 2.26a.86.86 0 1 1 1.214 1.215.86.86 0 0 1-1.214-1.216zm-2.258 2.257a.86.86 0 1 1 1.215 1.218.86.86 0 0 1-1.215-1.218zm-2.258 2.26a.858.858 0 1 1 1.215 1.212.858.858 0 0 1-1.215-1.213zm-2.258 2.256a.86.86 0 1 1 1.214 1.216.86.86 0 0 1-1.214-1.216zm-2.26 2.258a.86.86 0 1 1 1.216 1.218.86.86 0 0 1-1.215-1.218zm-2.257 2.26a.86.86 0 0 1 1.215 1.214.86.86 0 0 1-1.215-1.215zm24.84-20.325a.86.86 0 1 1 1.216 1.215.86.86 0 0 1-1.216-1.215zm-2.258 2.26a.86.86 0 1 1 1.216 1.214.86.86 0 0 1-1.216-1.215zM42.14 9.83a.86.86 0 1 1 1.215 1.218.86.86 0 0 1-1.215-1.218zm-2.258 2.258a.86.86 0 1 1 1.215 1.218.86.86 0 0 1-1.215-1.218zm-2.258 2.26a.86.86 0 0 1 1.215 1.214.86.86 0 0 1-1.215-1.215zm-2.26 2.257a.86.86 0 1 1 1.216 1.218.86.86 0 0 1-1.215-1.218zm-2.257 2.26a.86.86 0 1 1 1.216 1.214.86.86 0 0 1-1.216-1.215zm-2.258 2.257a.858.858 0 1 1 1.215 1.215.858.858 0 1 1-1.215-1.215zm-2.258 2.26a.859.859 0 1 1 1.215 1.214.859.859 0 0 1-1.215-1.215zm-2.26 2.256a.86.86 0 1 1 1.214 1.215.86.86 0 0 1-1.213-1.215zm-2.257 2.258a.86.86 0 1 1 1.215 1.218.86.86 0 0 1-1.215-1.218zM46.656 9.83a.86.86 0 1 1 1.215 1.218.86.86 0 0 1-1.215-1.218zm-2.258 2.258a.861.861 0 0 1 1.216 0 .861.861 0 0 1 0 1.216.861.861 0 0 1-1.216 0 .861.861 0 0 1 0-1.216zm-2.258 2.26a.86.86 0 0 1 1.215 1.214.86.86 0 0 1-1.215-1.215zm-2.258 2.257a.86.86 0 1 1 1.215 1.218.86.86 0 0 1-1.215-1.218zm-2.258 2.26a.858.858 0 1 1 1.215 1.212.858.858 0 0 1-1.215-1.213zm-2.26 2.257a.858.858 0 1 1 1.216 1.215.858.858 0 1 1-1.215-1.215zm-2.257 2.257a.86.86 0 1 1 1.214 1.217.86.86 0 0 1-1.214-1.217zm-2.258 2.26a.86.86 0 0 1 1.215 1.214.86.86 0 0 1-1.215-1.215zm-2.258 2.257a.86.86 0 1 1 1.215 1.218.86.86 0 0 1-1.215-1.218zm-2.26 2.26a.86.86 0 1 1 1.214 1.215.86.86 0 0 1-1.213-1.216zm18.067-13.55a.86.86 0 1 1 1.214 1.215.86.86 0 0 1-1.214-1.216zm-2.258 2.258a.858.858 0 1 1 1.215 1.213.858.858 0 0 1-1.215-1.213zm-2.258 2.257a.86.86 0 1 1 1.215 1.218.86.86 0 0 1-1.215-1.218zm-2.258 2.26a.859.859 0 1 1 1.215 1.214.859.859 0 0 1-1.215-1.214zm-2.26 2.257a.86.86 0 0 1 1.216 1.215.86.86 0 0 1-1.215-1.215zm-2.257 2.258a.861.861 0 0 1 1.216 0 .861.861 0 0 1 0 1.216.86.86 0 1 1-1.216-1.216zm-2.258 2.26a.86.86 0 0 1 1.215 1.214.86.86 0 0 1-1.215-1.215zm-2.258 2.257a.86.86 0 1 1 1.215 1.218.86.86 0 0 1-1.215-1.218zm18.065-13.549a.86.86 0 1 1 1.216 1.215.86.86 0 0 1-1.216-1.215zm-2.258 2.258a.86.86 0 1 1 1.216 1.215.86.86 0 0 1-1.216-1.215zM42.14 23.38a.858.858 0 0 1 1.215.002.857.857 0 0 1 0 1.214.856.856 0 0 1-1.215 0 .861.861 0 0 1 0-1.216zm-2.258 2.26a.86.86 0 0 1 1.215 1.214.86.86 0 0 1-1.215-1.215zm-2.258 2.257a.86.86 0 1 1 1.215 1.218.86.86 0 0 1-1.215-1.218zm-2.26 2.26a.86.86 0 0 1 1.216 1.214.86.86 0 0 1-1.215-1.215zm-2.257 2.257a.861.861 0 0 1 1.216 0 .861.861 0 0 1 0 1.216.86.86 0 1 1-1.216-1.216zm-2.258 2.26a.858.858 0 1 1 1.215 1.214.858.858 0 1 1-1.215-1.215zM46.656 23.38a.859.859 0 1 1 1.217 1.214.859.859 0 0 1-1.217-1.214zm-2.258 2.257a.86.86 0 1 1 1.214 1.215.86.86 0 0 1-1.214-1.215zm-2.258 2.258a.86.86 0 1 1 1.215 1.218.86.86 0 0 1-1.215-1.218zm-2.258 2.26a.86.86 0 0 1 1.215 1.214.86.86 0 0 1-1.215-1.215zm-2.258 2.257a.86.86 0 1 1 1.215 1.218.86.86 0 0 1-1.215-1.218zm-2.26 2.26a.858.858 0 1 1 1.217 1.215.858.858 0 0 1-1.216-1.216zm-2.257 2.257a.859.859 0 1 1 1.217 1.214.859.859 0 0 1-1.217-1.214zm13.549-9.034a.861.861 0 0 1 1.216 0 .861.861 0 0 1 0 1.216.861.861 0 0 1-1.216 0 .861.861 0 0 1 0-1.216zm-2.258 2.26a.86.86 0 1 1 1.214 1.215.86.86 0 0 1-1.214-1.216zm-2.258 2.257a.86.86 0 1 1 1.215 1.218.86.86 0 0 1-1.215-1.218zm-2.258 2.26a.858.858 0 1 1 1.215 1.214.858.858 0 1 1-1.215-1.215zm-2.258 2.257a.859.859 0 1 1 1.215 1.214.859.859 0 0 1-1.215-1.214zm-2.26 2.258a.858.858 0 1 1 1.216 1.213.858.858 0 0 1-1.215-1.213zm11.292-6.775a.861.861 0 0 1 1.216 0 .861.861 0 0 1 0 1.216.861.861 0 0 1-1.216 0 .861.861 0 0 1 0-1.216zm-2.258 2.26a.86.86 0 1 1 1.216 1.214.86.86 0 0 1-1.216-1.215zM42.14 36.93a.86.86 0 0 1 1.215 0 .857.857 0 0 1 0 1.214.859.859 0 0 1-1.215-1.214zm-2.258 2.258a.858.858 0 1 1 1.215 1.213.858.858 0 0 1-1.215-1.213zm-2.258 2.258a.858.858 0 1 1 1.215 1.213.858.858 0 0 1-1.215-1.213zm9.032-4.516a.859.859 0 1 1 1.217 1.214.859.859 0 0 1-1.217-1.214zm-2.258 2.258a.86.86 0 1 1 1.216 1.215.86.86 0 0 1-1.216-1.215zm-2.258 2.258a.858.858 0 1 1 1.215 1.213.858.858 0 0 1-1.215-1.213zm-2.258 2.258a.86.86 0 1 1 1.215 1.218.86.86 0 0 1-1.215-1.218zm6.774-2.258a.86.86 0 1 1 1.216 1.215.86.86 0 0 1-1.216-1.215zm-2.258 2.258a.86.86 0 1 1 1.214 1.215.86.86 0 0 1-1.214-1.215zM1.492 9.83a.859.859 0 1 1 1.214 1.215.859.859 0 0 1-1.214-1.215zm2.258 2.258a.86.86 0 1 1 1.215 1.218.86.86 0 0 1-1.215-1.218zm-2.258 2.26a.859.859 0 1 1 1.214 1.214.859.859 0 0 1-1.214-1.215zm4.517 0a.859.859 0 1 1 1.214 1.214.859.859 0 0 1-1.214-1.215zm-2.26 2.257a.86.86 0 1 1 1.216 1.218.86.86 0 0 1-1.215-1.218zm-2.257 2.26a.857.857 0 0 1 1.214 0 .857.857 0 0 1 0 1.213.857.857 0 0 1-1.214 0 .857.857 0 0 1 0-1.214zm6.774-2.26a.86.86 0 1 1 1.215 1.218.86.86 0 0 1-1.215-1.218zm-2.257 2.26a.859.859 0 1 1 1.213 1.214.859.859 0 0 1-1.213-1.215zm-2.26 2.257a.858.858 0 1 1 1.216 1.215.858.858 0 1 1-1.215-1.215zm-2.257 2.26a.855.855 0 0 1 1.214 0 .857.857 0 0 1 0 1.213.855.855 0 0 1-1.214 0 .857.857 0 0 1 0-1.214zm9.033-4.518a.858.858 0 1 1 1.215 1.213.858.858 0 0 1-1.215-1.213zm-2.26 2.258a.858.858 0 1 1 1.216 1.215.858.858 0 1 1-1.215-1.215zm-2.256 2.26a.859.859 0 1 1 1.213 1.214.859.859 0 0 1-1.213-1.215zm-2.26 2.256a.86.86 0 0 1 1.216 1.215.86.86 0 0 1-1.215-1.215zm-2.257 2.258a.859.859 0 1 1 1.214 1.215.859.859 0 0 1-1.214-1.215zm11.29-6.774a.858.858 0 1 1 1.216 1.215.858.858 0 1 1-1.215-1.215zm-2.257 2.26a.859.859 0 1 1 1.215 1.214.859.859 0 0 1-1.215-1.215zm-2.26 2.256a.86.86 0 0 1 1.216 1.215.86.86 0 0 1-1.215-1.215zm-2.257 2.258a.86.86 0 1 1 1.215 1.218.86.86 0 0 1-1.215-1.218zm-2.258 2.26a.86.86 0 0 1 1.215 1.214.86.86 0 0 1-1.215-1.215zm-2.258 2.257a.859.859 0 1 1 1.214 1.215.859.859 0 0 1-1.214-1.215zm13.549-9.032a.856.856 0 0 1 1.215 0 .857.857 0 0 1 0 1.214.856.856 0 0 1-1.215 0 .857.857 0 0 1 0-1.214zm-2.258 2.257a.86.86 0 0 1 1.215 1.215.86.86 0 0 1-1.215-1.215zm-2.258 2.258a.86.86 0 1 1 1.215 1.218.86.86 0 0 1-1.215-1.218zm-2.26 2.26a.86.86 0 0 1 1.216 1.214.86.86 0 0 1-1.215-1.215zM6.01 32.412a.859.859 0 1 1 1.214 1.215.859.859 0 0 1-1.214-1.215zm-2.26 2.26a.858.858 0 1 1 1.216 1.214.858.858 0 1 1-1.215-1.215zM1.493 36.93a.859.859 0 1 1 1.214 1.215.859.859 0 0 1-1.214-1.215zm0-36.133a.859.859 0 1 1 1.214 1.215A.859.859 0 0 1 1.492.797zm4.516 0a.86.86 0 1 1 1.215 1.218A.86.86 0 0 1 6.008.797zM3.75 3.057A.86.86 0 0 1 4.965 4.27.86.86 0 0 1 3.75 3.056zM1.492 5.313A.858.858 0 1 1 2.706 6.53a.859.859 0 1 1-1.214-1.216zM10.525.797a.86.86 0 1 1 1.215 1.218.86.86 0 0 1-1.215-1.218zm-2.26 2.26A.86.86 0 0 1 9.482 4.27a.86.86 0 0 1-1.215-1.215zM6.009 5.313A.86.86 0 1 1 7.224 6.53a.86.86 0 0 1-1.216-1.215zM3.75 7.574a.858.858 0 1 1 1.215 1.212.858.858 0 0 1-1.215-1.213zM15.04.796a.86.86 0 1 1 1.216 1.218A.86.86 0 0 1 15.04.797zm-2.257 2.26a.86.86 0 0 1 1.215 1.214.86.86 0 0 1-1.215-1.215zm-2.258 2.257A.858.858 0 1 1 11.74 6.53a.86.86 0 0 1-1.215-1.216zm-2.26 2.26a.858.858 0 1 1 1.216 1.212.858.858 0 0 1-1.215-1.213zM6.01 9.83a.859.859 0 1 1 1.214 1.215.859.859 0 0 1-1.214-1.215zM19.558.797a.86.86 0 1 1 1.215 1.218.86.86 0 0 1-1.215-1.218zM17.3 3.057a.86.86 0 0 1 1.215 1.214.86.86 0 0 1-1.215-1.215zm-2.26 2.257a.858.858 0 1 1 1.216 1.216.86.86 0 0 1-1.215-1.216zm-2.257 2.26a.858.858 0 1 1 1.215 1.212.858.858 0 0 1-1.215-1.213zM10.525 9.83a.86.86 0 1 1 1.215 1.218.86.86 0 0 1-1.215-1.218zm-2.26 2.258a.86.86 0 1 1 1.216 1.218.86.86 0 0 1-1.215-1.218zM24.075.798a.86.86 0 1 1 1.215 1.217.86.86 0 0 1-1.215-1.218zm-2.258 2.258a.86.86 0 0 1 1.215 1.215.86.86 0 0 1-1.215-1.215zm-2.258 2.258a.858.858 0 1 1 1.215 1.216.86.86 0 0 1-1.215-1.216zM17.3 7.574a.858.858 0 1 1 1.215 1.212.858.858 0 0 1-1.215-1.213zM15.04 9.83a.86.86 0 1 1 1.216 1.218.86.86 0 0 1-1.215-1.218zm-2.257 2.258a.86.86 0 1 1 1.215 1.218.86.86 0 0 1-1.215-1.218zm-2.258 2.26a.86.86 0 0 1 1.215 1.214.86.86 0 0 1-1.215-1.215zM28.59.797a.86.86 0 1 1 1.215 1.217A.86.86 0 0 1 28.59.797zm-2.26 2.258a.86.86 0 1 1 1.214 1.215.86.86 0 0 1-1.213-1.215zm-2.257 2.258a.858.858 0 1 1 1.215 1.216.86.86 0 0 1-1.215-1.216zm-2.258 2.26a.858.858 0 1 1 1.215 1.212.858.858 0 0 1-1.215-1.213zM19.558 9.83a.86.86 0 1 1 1.215 1.218.86.86 0 0 1-1.215-1.218zM17.3 12.088a.86.86 0 1 1 1.215 1.218.86.86 0 0 1-1.215-1.218zm-2.26 2.26a.86.86 0 0 1 1.216 1.214.86.86 0 0 1-1.215-1.215zm-2.257 2.257a.86.86 0 1 1 1.215 1.218.86.86 0 0 1-1.215-1.218zM33.107.797a.861.861 0 0 1 1.216 0 .861.861 0 0 1 0 1.216.86.86 0 0 1-1.216-1.216zm-2.258 2.26a.86.86 0 0 1 1.215 1.214.86.86 0 0 1-1.215-1.215zM28.59 5.313a.858.858 0 1 1 1.215 1.216.86.86 0 0 1-1.215-1.216zm-2.258 2.26a.858.858 0 1 1 1.215 1.212.858.858 0 0 1-1.215-1.213zm-2.26 2.256a.86.86 0 1 1 1.216 1.218.86.86 0 0 1-1.215-1.218zm-2.257 2.258a.86.86 0 1 1 1.215 1.218.86.86 0 0 1-1.215-1.218zm-2.258 2.26a.86.86 0 0 1 1.215 1.214.86.86 0 0 1-1.215-1.215zM17.3 16.604a.86.86 0 1 1 1.215 1.218.86.86 0 0 1-1.215-1.218zm-2.26 2.26a.858.858 0 1 1 1.216 1.212.858.858 0 0 1-1.215-1.213zM37.625.796a.86.86 0 1 1 1.215 1.218.86.86 0 0 1-1.215-1.218zm-2.26 2.26A.86.86 0 0 1 36.58 4.27a.86.86 0 0 1-1.215-1.215zm-2.257 2.257a.86.86 0 1 1 1.216 1.215.86.86 0 0 1-1.216-1.215zm-2.258 2.26a.858.858 0 1 1 1.215 1.212.858.858 0 0 1-1.215-1.213zM28.59 9.83a.86.86 0 1 1 1.215 1.218.86.86 0 0 1-1.215-1.218zm-2.26 2.258a.861.861 0 0 1 1.217 0 .86.86 0 1 1-1.216 0zm-2.257 2.26a.86.86 0 0 1 1.215 1.214.86.86 0 0 1-1.215-1.215zm-2.258 2.257a.86.86 0 1 1 1.215 1.218.86.86 0 0 1-1.215-1.218zm-2.258 2.26a.858.858 0 1 1 1.215 1.212.858.858 0 0 1-1.215-1.213z"/></g><g><path fill="#ffe9ce" d="M32.126 32.367l-.012 1.974c-.17-1.332-.029-3.057.925-5.675a6.397 6.397 0 0 0 .324-3.028c-.497-3.874-3.978-5.873-2.394-10.55.362-1.069.844-2.09.895-3.627a8.498 8.498 0 0 0-.004-.656 16.374 16.374 0 0 1 2.595-2.158c.267 1.12.352 2.032.326 2.814-.05 1.536-.534 2.558-.896 3.626-1.583 4.678 1.898 6.677 2.395 10.551a6.398 6.398 0 0 1-.325 3.028 19.482 19.482 0 0 0-.679 2.241 7.808 7.808 0 0 1-3.15 1.46zm-.065 11.786h-.1l.101-.21zm-4.927-11.428a6.365 6.365 0 0 0-.646-1.644c.156-.713.388-1.509.717-2.415a6.384 6.384 0 0 0 .324-3.028c-.304-2.378-1.733-4.049-2.426-6.068h2.328a17.73 17.73 0 0 1 .272-1.303c.372 2.662 2.375 4.502 2.743 7.371a6.373 6.373 0 0 1-.325 3.028c-3.07 8.44 2.265 7.59-.52 14.27zm-5.518-4.97a6.458 6.458 0 0 0 .07-2.117c-.306-2.378-1.735-4.049-2.427-6.068h2.917c.692 2.02 2.121 3.69 2.425 6.068a6.383 6.383 0 0 1-.323 3.028l-.027.077a6.957 6.957 0 0 0-2.635-.988zM14.9 30.698c.15-.613.355-1.285.627-2.032a6.372 6.372 0 0 0 .324-3.028c-.304-2.378-1.734-4.049-2.426-6.068h2.917c.693 2.02 2.122 3.69 2.426 6.068a6.489 6.489 0 0 1-.109 2.305 6.776 6.776 0 0 0-3.759 2.755zm-5.895 4.78c-.419-1.49-.558-3.384.688-6.812a6.385 6.385 0 0 0 .325-3.028c-.242-1.898-1.202-3.346-1.932-4.879.11-.085.22-.165.336-.24h-.18c-.089 0-.176.001-.265.007a10.592 10.592 0 0 1-.372-.92c.21-.024.421-.036.637-.036h2.267c.692 2.02 2.121 3.69 2.426 6.068a6.41 6.41 0 0 1-.324 3.028c-3.167 8.7 2.602 7.527-.805 14.913zm-2.54-7.35c-.34-.985-.633-1.737-.633-2.792 0-.806.168-1.579.47-2.282.364.793.666 1.632.788 2.584a6.397 6.397 0 0 1-.324 3.028l-.059.165zm-2.733-4.242a13.454 13.454 0 0 0-.529-1.219 5.722 5.722 0 0 1 1.861-2.112c.132.29.275.577.421.863a4.738 4.738 0 0 0-1.753 2.468zM3.4 36.228c-.544-1.556-.978-3.378.276-7.069 1.267.56 2.1 2.916-.276 7.07zM37.677 6.975c.624-.239 1.261-.44 1.91-.6l.044.131c.791 2.171 1.025 3.727.983 4.955-.05 1.536-.534 2.558-.895 3.626-.529 1.562-.492 2.826-.192 3.96h-1.193v3.844c-1.113-2.36-2.699-4.354-1.532-7.804.362-1.068.845-2.09.896-3.626.036-1.08-.14-2.415-.722-4.198.231-.103.465-.198.701-.288zm6.97 6.782v.002h.86c.174 0 .343.017.507.048-.146.443-.308.858-.45 1.28-.529 1.562-.493 2.826-.19 3.96h-2.918c-.3-1.134-.338-2.398.191-3.96.361-1.068.843-2.09.895-3.626.004-.09.005-.18.005-.274a3.56 3.56 0 0 1 1.1 2.57zm3.44 3.228c.012-.187.033-.38.064-.578 0 .2-.023.392-.065.578z"/></g><g><path fill="#693939" d="M38.334 24.719a7.817 7.817 0 0 1-3.057 6.189c.155-.667.376-1.41.679-2.242a6.393 6.393 0 0 0 .325-3.027c-.497-3.874-3.978-5.873-2.395-10.551.36-1.07.844-2.091.896-3.627.026-.781-.06-1.693-.327-2.813a16.174 16.174 0 0 1 2.522-1.384c.58 1.783.758 3.116.722 4.197-.051 1.536-.535 2.558-.896 3.627-1.167 3.449.419 5.443 1.53 7.804zm-6.271 19.225l-.102.209h-2.067l-.294-1.216c2.787-6.682-2.55-5.831.522-14.271a6.368 6.368 0 0 0 .325-3.027c-.368-2.87-2.371-4.71-2.744-7.372a16.258 16.258 0 0 1 4.158-7.461c.01.229.01.447.004.655-.052 1.536-.534 2.558-.895 3.627-1.584 4.678 1.898 6.677 2.394 10.55a6.393 6.393 0 0 1-.325 3.028c-.953 2.619-1.095 4.343-.924 5.675zm-7.812-15.2c.01-.027.017-.051.028-.078a6.39 6.39 0 0 0 .323-3.027c-.304-2.38-1.733-4.05-2.425-6.07h2.916c.693 2.02 2.12 3.69 2.426 6.07a6.379 6.379 0 0 1-.324 3.027 19.154 19.154 0 0 0-.715 2.4 6.6 6.6 0 0 0-2.23-2.322zm-5.462-.837c-.043.01-.086.024-.13.036a6.482 6.482 0 0 0 .11-2.304c-.305-2.38-1.733-4.05-2.426-6.07h2.917c.692 2.02 2.12 3.69 2.426 6.07a6.486 6.486 0 0 1-.07 2.117 6.875 6.875 0 0 0-2.827.15zm-5.05 6.747v9.499h-1.734l-.198-.574c3.407-7.385-2.362-6.212.804-14.913a6.379 6.379 0 0 0 .324-3.027c-.304-2.38-1.733-4.05-2.426-6.07h2.918c.692 2.02 2.12 3.69 2.425 6.07a6.379 6.379 0 0 1-.324 3.027 19.79 19.79 0 0 0-.628 2.033 6.846 6.846 0 0 0-1.16 3.955zM6.708 28.83l.06-.165a6.392 6.392 0 0 0 .324-3.027c-.122-.952-.424-1.791-.788-2.584a5.819 5.819 0 0 1 1.775-2.29c.729 1.53 1.687 2.979 1.93 4.874a6.393 6.393 0 0 1-.325 3.027c-1.205 3.313-1.115 5.193-.73 6.66zm-1.221-7.413a22.857 22.857 0 0 1-.422-.862 5.615 5.615 0 0 1 2.53-.948c.109.313.236.618.374.919a4.676 4.676 0 0 0-2.482.89zm-1.95 3.807v3.879c.048.016.095.035.14.056-1.253 3.69-.82 5.512-.275 7.068-.107.185-.22.374-.34.567-2.885-4.663-1.872-7.226-.473-7.691v-3.88c0-.918.223-1.788.615-2.556.192.394.374.798.53 1.218a4.639 4.639 0 0 0-.197 1.339zm38.1-19.22v4.23a3.572 3.572 0 0 1 1.9.942c0 .096 0 .19-.004.284-.052 1.536-.535 2.558-.896 3.627-.528 1.562-.491 2.825-.19 3.959h-2.918c-.301-1.134-.337-2.397.192-3.96.36-1.068.843-2.09.895-3.626.042-1.228-.192-2.784-.983-4.955-.014-.044-.03-.087-.045-.131a16.35 16.35 0 0 1 2.049-.37zm6.516 10.399v.005a6.27 6.27 0 0 0-.065.576 2.654 2.654 0 0 1-2.58 2.062h-.134c-.301-1.134-.337-2.397.19-3.96.144-.421.306-.836.452-1.28a2.655 2.655 0 0 1 2.137 2.597z"/></g></g></svg>