<svg xmlns="http://www.w3.org/2000/svg" width="58" height="59" viewBox="0 0 58 59"><g><g><path fill="#f5accc" d="M.323 58.432h57.722V.708H.323z"/></g><g><path fill="#ffe9ce" d="M36.628 36.856l-.011 1.974c-.172-1.332-.03-3.055.924-5.675a6.388 6.388 0 0 0 .324-3.026c-.496-3.875-3.976-5.872-2.394-10.55.362-1.068.844-2.09.895-3.626a8.01 8.01 0 0 0-.003-.656 16.446 16.446 0 0 1 2.593-2.156c.268 1.119.353 2.032.327 2.812-.052 1.536-.534 2.558-.896 3.627-1.582 4.677 1.898 6.674 2.394 10.549.122.95.057 1.978-.324 3.026a19.482 19.482 0 0 0-.68 2.24 7.802 7.802 0 0 1-3.15 1.46zm-.064 11.784h-.101l.102-.21zm-4.926-11.426a6.38 6.38 0 0 0-.647-1.644c.157-.712.388-1.51.717-2.415a6.389 6.389 0 0 0 .325-3.026c-.305-2.38-1.734-4.05-2.426-6.068h2.327c.052-.313.114-.622.184-.928.027-.126.057-.25.088-.374.372 2.66 2.376 4.5 2.743 7.37a6.4 6.4 0 0 1-.324 3.026c-3.072 8.439 2.263 7.588-.522 14.269zm-5.517-4.968a6.513 6.513 0 0 0 .068-2.117c-.305-2.38-1.734-4.05-2.426-6.068h2.917c.692 2.018 2.12 3.689 2.425 6.068.122.95.058 1.978-.324 3.026l-.027.077a6.944 6.944 0 0 0-2.633-.986zm-6.717 2.942c.152-.613.356-1.286.628-2.033a6.389 6.389 0 0 0 .325-3.026c-.305-2.38-1.734-4.05-2.426-6.068h2.916c.692 2.018 2.12 3.689 2.426 6.068.093.73.077 1.506-.11 2.304a6.779 6.779 0 0 0-3.76 2.755zm-5.893 4.778c-.42-1.49-.56-3.384.688-6.811a6.376 6.376 0 0 0 .325-3.026c-.244-1.9-1.203-3.346-1.932-4.88a6.19 6.19 0 0 1 .336-.24h-.18c-.088 0-.177.002-.264.008a10.914 10.914 0 0 1-.374-.92c.21-.024.423-.036.639-.036h2.265c.693 2.018 2.122 3.689 2.426 6.068.122.95.058 1.978-.324 3.026-3.166 8.7 2.602 7.526-.804 14.91zm-2.541-7.35c-.34-.983-.631-1.734-.631-2.79 0-.806.167-1.578.47-2.281.363.793.665 1.63.788 2.584a6.4 6.4 0 0 1-.324 3.026l-.06.166zm-2.731-4.24a13.578 13.578 0 0 0-.53-1.22 5.73 5.73 0 0 1 1.86-2.11c.134.29.276.577.423.863a4.74 4.74 0 0 0-1.753 2.467zm-.333 12.339c-.543-1.555-.977-3.376.277-7.067 1.267.56 2.1 2.917-.277 7.067zm34.273-29.248a16.346 16.346 0 0 1 1.908-.598c.015.044.03.087.047.13.789 2.17 1.023 3.727.982 4.954-.052 1.536-.534 2.558-.896 3.627-.53 1.562-.492 2.824-.191 3.959h-1.194v3.842c-1.113-2.36-2.698-4.353-1.531-7.801.362-1.07.844-2.091.895-3.627.037-1.08-.14-2.414-.721-4.198.23-.101.465-.197.7-.288zm6.968 6.782v.002h.86c.173 0 .343.018.508.05-.147.44-.308.857-.451 1.279-.53 1.562-.492 2.824-.191 3.959h-2.917c-.301-1.135-.337-2.397.19-3.96.362-1.068.845-2.09.897-3.626.003-.09.004-.18.004-.273.677.65 1.1 1.562 1.1 2.569zm3.438 3.229a6.34 6.34 0 0 1 .066-.58c0 .199-.023.393-.066.58z"/></g><g><path fill="#231f20" d="M42.835 29.209a7.81 7.81 0 0 1-3.057 6.187c.155-.667.377-1.408.679-2.241a6.375 6.375 0 0 0 .324-3.026c-.496-3.874-3.976-5.872-2.393-10.55.36-1.068.843-2.09.896-3.626.025-.78-.06-1.693-.328-2.812a16.187 16.187 0 0 1 2.522-1.385c.58 1.783.759 3.117.722 4.197-.052 1.536-.534 2.558-.896 3.627-1.167 3.449.419 5.44 1.53 7.802zm-6.27 19.222l-.102.209h-2.066l-.294-1.216c2.786-6.681-2.55-5.83.52-14.27a6.363 6.363 0 0 0 .326-3.025c-.367-2.87-2.371-4.71-2.743-7.37a16.251 16.251 0 0 1 4.157-7.461c.01.229.01.446.004.655-.052 1.536-.534 2.558-.896 3.627-1.582 4.677 1.898 6.675 2.395 10.549.122.95.057 1.978-.325 3.026-.953 2.619-1.096 4.342-.924 5.674zm-7.811-15.2l.027-.076a6.375 6.375 0 0 0 .324-3.026c-.304-2.38-1.733-4.05-2.425-6.068h2.916c.693 2.018 2.12 3.689 2.426 6.068.12.95.057 1.978-.325 3.026a19.134 19.134 0 0 0-.714 2.4 6.628 6.628 0 0 0-2.23-2.323zm-5.461-.834c-.043.01-.086.024-.13.036a6.485 6.485 0 0 0 .11-2.304c-.305-2.38-1.734-4.05-2.425-6.068h2.916c.69 2.018 2.12 3.689 2.425 6.068a6.513 6.513 0 0 1-.068 2.117 6.84 6.84 0 0 0-2.828.15zm-5.048 6.746l-.001 9.497H16.51l-.2-.574c3.407-7.385-2.361-6.211.805-14.911a6.388 6.388 0 0 0 .324-3.026c-.304-2.38-1.733-4.05-2.425-6.068h2.917c.69 2.018 2.12 3.689 2.425 6.068a6.4 6.4 0 0 1-.324 3.026 19.79 19.79 0 0 0-.628 2.033 6.839 6.839 0 0 0-1.16 3.955zm-7.031-5.821l.059-.167a6.375 6.375 0 0 0 .324-3.026c-.123-.953-.424-1.791-.788-2.584a5.806 5.806 0 0 1 1.775-2.29c.729 1.532 1.686 2.979 1.929 4.874.122.95.058 1.978-.324 3.026-1.206 3.313-1.115 5.193-.73 6.66zm-1.222-7.413a22.173 22.173 0 0 1-.422-.863 5.614 5.614 0 0 1 2.53-.947c.109.312.236.619.373.918a4.682 4.682 0 0 0-2.481.892zm-1.95 3.806v3.878c.048.016.096.035.14.055-1.252 3.692-.82 5.512-.275 7.068-.106.186-.22.376-.338.567-2.887-4.662-1.874-7.225-.474-7.69v-3.878c0-.918.222-1.788.615-2.558.192.395.373.798.529 1.219a4.668 4.668 0 0 0-.196 1.339zm38.094-19.216v4.228a3.566 3.566 0 0 1 1.9.942 6.63 6.63 0 0 1-.004.284c-.052 1.536-.534 2.558-.896 3.627-.528 1.562-.492 2.825-.19 3.959h-2.917c-.301-1.134-.338-2.397.19-3.96.363-1.068.845-2.09.898-3.626.04-1.227-.194-2.783-.983-4.953l-.047-.131c.675-.167 1.36-.291 2.049-.37zm6.515 10.395v.006a6.66 6.66 0 0 0-.065.577 2.654 2.654 0 0 1-2.578 2.062h-.135c-.301-1.134-.337-2.397.19-3.96.144-.421.306-.837.452-1.278a2.653 2.653 0 0 1 2.136 2.593z"/></g></g></svg>